<svg width="12cm" height="12cm" viewBox="0 0 1 1">
<g id="Apple" type="iconel" clip-path="url(#ClipPath)" >
<g type="clip-iconel" clip-rule="nonzero" >
<clipPath id="ClipPath" >
	<path type="line" fill="none" point-count="453" stroke="rgb(255,0,0)" stroke-width="0.020" d="M0.3800,0.0000 L0.3771,0.0115 0.3771,0.0143 0.3743,0.0143 0.3743,0.0172 0.3714,0.0201 0.3686,0.0229 0.3657,0.0315 0.3657,0.0372 0.3657,0.0430 0.3657,0.0458 0.3686,0.0516 0.3714,0.0573 0.3743,0.0630 0.3771,0.0659 0.3771,0.0688 0.3829,0.0745 0.3857,0.0802 0.3914,0.0831 0.3943,0.0888 0.3971,0.0917 0.4000,0.0974 0.4000,0.1003 0.4029,0.1032 0.4086,0.1089 0.4114,0.1117 0.4143,0.1117 0.4171,0.1146 0.4200,0.1175 0.4229,0.1175 0.4229,0.1203 0.4257,0.1232 0.4286,0.1232 0.4286,0.1261 0.4314,0.1261 0.4343,0.1261 0.4343,0.1289 0.4371,0.1318 0.4400,0.1347 0.4429,0.1375 0.4486,0.1404 0.4514,0.1404 0.4514,0.1433 0.4543,0.1461 0.4571,0.1490 0.4571,0.1519 0.4600,0.1547 0.4600,0.1576 0.4629,0.1605 0.4657,0.1605 0.4657,0.1633 0.4657,0.1662 0.4629,0.1662 0.4600,0.1662 0.4571,0.1662 0.4543,0.1633 0.4514,0.1605 0.4486,0.1576 0.4429,0.1519 0.4400,0.1490 0.4371,0.1461 0.4314,0.1461 0.4257,0.1433 0.4229,0.1404 0.4171,0.1404 0.4114,0.1404 0.4000,0.1318 0.3914,0.1289 0.3857,0.1289 0.3800,0.1289 0.3771,0.1261 0.3714,0.1261 0.3629,0.1261 0.3571,0.1232 0.3400,0.1232 0.3286,0.1203 0.3143,0.1175 0.3057,0.1146 0.2971,0.1146 0.2886,0.1146 0.2829,0.1146 0.2743,0.1146 0.2629,0.1117 0.2514,0.1117 0.2429,0.1117 0.2343,0.1117 0.2286,0.1117 0.2171,0.1117 0.2114,0.1117 0.2057,0.1117 0.2000,0.1146 0.1943,0.1146 0.1857,0.1175 0.1800,0.1203 0.1743,0.1232 0.1686,0.1261 0.1657,0.1289 0.1600,0.1289 0.1543,0.1375 0.1486,0.1404 0.1429,0.1433 0.1400,0.1490 0.1343,0.1519 0.1286,0.1576 0.1229,0.1605 0.1200,0.1662 0.1143,0.1691 0.1086,0.1719 0.1057,0.1777 0.1057,0.1834 0.1029,0.1920 0.1000,0.1977 0.1000,0.2006 0.1000,0.2092 0.1000,0.2178 0.1000,0.2264 0.1029,0.2350 0.1057,0.2436 0.1086,0.2464 0.1086,0.2550 0.1114,0.2607 0.1143,0.2693 0.1200,0.2779 0.1229,0.2837 0.1257,0.2894 0.1286,0.2980 0.1343,0.3066 0.1371,0.3123 0.1400,0.3181 0.1429,0.3209 0.1486,0.3295 0.1514,0.3381 0.1543,0.3467 0.1571,0.3553 0.1571,0.3610 0.1629,0.3725 0.1629,0.3754 0.1657,0.3840 0.1657,0.3868 0.1686,0.3954 0.1686,0.4040 0.1714,0.4126 0.1714,0.4183 0.1743,0.4269 0.1743,0.4355 0.1743,0.4413 0.1771,0.4441 0.1800,0.4556 0.1800,0.4613 0.1800,0.4699 0.1829,0.4756 0.1857,0.4928 0.1914,0.5043 0.1943,0.5158 0.1971,0.5301 0.1971,0.5415 0.1971,0.5501 0.1971,0.5559 0.1971,0.5645 0.2000,0.5702 0.2000,0.5788 0.1971,0.5903 0.1971,0.6103 0.1943,0.6218 0.1943,0.6361 0.1914,0.6476 0.1886,0.6562 0.1886,0.6619 0.1857,0.6705 0.1857,0.6819 0.1857,0.6963 0.1857,0.7077 0.1857,0.7163 0.1857,0.7192 0.1857,0.7278 0.1857,0.7393 0.1886,0.7421 0.1914,0.7507 0.1943,0.7564 0.1971,0.7650 0.2029,0.7736 0.2086,0.7794 0.2143,0.7908 0.2143,0.7966 0.2171,0.7994 0.2200,0.8080 0.2229,0.8109 0.2286,0.8195 0.2371,0.8281 0.2429,0.8367 0.2457,0.8395 0.2486,0.8424 0.2514,0.8481 0.2571,0.8539 0.2600,0.8567 0.2657,0.8596 0.2743,0.8653 0.2857,0.8682 0.2943,0.8739 0.3029,0.8768 0.3143,0.8825 0.3229,0.8825 0.3343,0.8854 0.3429,0.8854 0.3571,0.8883 0.3686,0.8883 0.3743,0.8883 0.3800,0.8883 0.3886,0.8883 0.3971,0.8883 0.4029,0.8854 0.4086,0.8854 0.4171,0.8854 0.4229,0.8854 0.4257,0.8854 0.4314,0.8854 0.4400,0.8825 0.4457,0.8797 0.4514,0.8768 0.4514,0.8739 0.4543,0.8711 0.4571,0.8653 0.4629,0.8596 0.4657,0.8567 0.4686,0.8510 0.4686,0.8481 0.4714,0.8453 0.4743,0.8395 0.4800,0.8367 0.4800,0.8395 0.4800,0.8424 0.4800,0.8453 0.4800,0.8510 0.4800,0.8567 0.4800,0.8596 0.4800,0.8653 0.4829,0.8682 0.4857,0.8739 0.4914,0.8797 0.4971,0.8854 0.5057,0.8883 0.5200,0.8940 0.5314,0.8997 0.5429,0.8997 0.5571,0.9026 0.5657,0.9026 0.5743,0.9026 0.5829,0.9026 0.5914,0.9026 0.6029,0.9026 0.6143,0.9026 0.6229,0.9054 0.6314,0.9083 0.6429,0.9083 0.6514,0.9112 0.6571,0.9112 0.6657,0.9140 0.6714,0.9169 0.6800,0.9169 0.6886,0.9169 0.6943,0.9169 0.6971,0.9198 0.7086,0.9198 0.7200,0.9226 0.7286,0.9255 0.7400,0.9255 0.7486,0.9255 0.7600,0.9255 0.7686,0.9255 0.7771,0.9255 0.7800,0.9255 0.7857,0.9255 0.7914,0.9198 0.7971,0.9169 0.8000,0.9140 0.8057,0.9112 0.8114,0.9054 0.8200,0.8968 0.8257,0.8911 0.8286,0.8854 0.8343,0.8825 0.8400,0.8768 0.8486,0.8739 0.8543,0.8653 0.8600,0.8567 0.8657,0.8510 0.8686,0.8481 0.8714,0.8424 0.8743,0.8367 0.8743,0.8309 0.8771,0.8223 0.8800,0.8109 0.8829,0.8052 0.8829,0.7994 0.8829,0.7908 0.8829,0.7851 0.8829,0.7822 0.8829,0.7765 0.8857,0.7708 0.8857,0.7622 0.8914,0.7536 0.8914,0.7479 0.8943,0.7421 0.8943,0.7364 0.8971,0.7307 0.9000,0.7249 0.9029,0.7135 0.9057,0.7077 0.9086,0.7020 0.9086,0.6963 0.9086,0.6848 0.9114,0.6762 0.9114,0.6648 0.9143,0.6562 0.9143,0.6504 0.9143,0.6390 0.9143,0.6189 0.9143,0.6103 0.9143,0.6017 0.9143,0.5931 0.9143,0.5845 0.9143,0.5788 0.9143,0.5731 0.9114,0.5673 0.9114,0.5587 0.9086,0.5530 0.9086,0.5473 0.9086,0.5415 0.9086,0.5358 0.9086,0.5330 0.9086,0.5272 0.9086,0.5244 0.9086,0.5186 0.9057,0.5100 0.9057,0.5043 0.9057,0.4986 0.9057,0.4928 0.9057,0.4871 0.9057,0.4814 0.9057,0.4699 0.9029,0.4556 0.9029,0.4499 0.9029,0.4470 0.9029,0.4413 0.9029,0.4355 0.9029,0.4298 0.9029,0.4241 0.9029,0.4183 0.9029,0.4126 0.9029,0.4040 0.9029,0.4011 0.9029,0.3954 0.9029,0.3840 0.9029,0.3782 0.9029,0.3725 0.9029,0.3696 0.9029,0.3668 0.9029,0.3639 0.9057,0.3639 0.9057,0.3582 0.9057,0.3496 0.9057,0.3438 0.9057,0.3381 0.9057,0.3324 0.9057,0.3238 0.9057,0.3095 0.9057,0.3037 0.9057,0.2951 0.9057,0.2894 0.9057,0.2865 0.9086,0.2808 0.9086,0.2722 0.9086,0.2636 0.9086,0.2550 0.9086,0.2493 0.9114,0.2464 0.9114,0.2407 0.9114,0.2321 0.9143,0.2235 0.9143,0.2206 0.9143,0.2120 0.9143,0.2034 0.9143,0.1977 0.9143,0.1891 0.9143,0.1862 0.9143,0.1777 0.9143,0.1748 0.9143,0.1691 0.9143,0.1662 0.9143,0.1633 0.9143,0.1576 0.9143,0.1490 0.9143,0.1461 0.9143,0.1404 0.9143,0.1318 0.9114,0.1261 0.9086,0.1146 0.9086,0.1060 0.9029,0.1003 0.9000,0.0946 0.8971,0.0888 0.8943,0.0860 0.8886,0.0831 0.8886,0.0802 0.8829,0.0745 0.8771,0.0688 0.8743,0.0659 0.8686,0.0630 0.8629,0.0602 0.8571,0.0602 0.8514,0.0573 0.8486,0.0573 0.8429,0.0573 0.8314,0.0573 0.8229,0.0573 0.8143,0.0544 0.8057,0.0544 0.8029,0.0544 0.8000,0.0544 0.7943,0.0544 0.7886,0.0544 0.7800,0.0544 0.7743,0.0544 0.7686,0.0573 0.7657,0.0573 0.7629,0.0573 0.7600,0.0573 0.7571,0.0602 0.7543,0.0602 0.7486,0.0630 0.7486,0.0659 0.7400,0.0688 0.7400,0.0716 0.7400,0.0688 0.7400,0.0659 0.7429,0.0630 0.7457,0.0516 0.7486,0.0458 0.7486,0.0430 0.7486,0.0372 0.7486,0.0344 0.7486,0.0315 0.7486,0.0287 0.7486,0.0229 0.7486,0.0201 0.7457,0.0172 0.7429,0.0172 0.7400,0.0143 0.7371,0.0115 0.7343,0.0086 0.7314,0.0086 0.7286,0.0086 0.7286,0.0057 T0.7286,0.0000" />
</clipPath>
</g>
<g type="background-iconel" >
	<rect type="rectangle" x="0.000" y="0.000" width="1.000" height="1.000" fill="rgb(255,255,255)" stroke="rgb(255,255,255)" stroke-width="0.001" />
	<path type="line" fill="none" point-count="1" stroke="rgb(255,200,200)" stroke-width="0.001" d="M0.1330,0.0000 T0.1330,1.0000" />
	<path type="line" fill="none" point-count="1" stroke="rgb(200,200,255)" stroke-width="0.001" d="M0.0000,0.1330 T1.0000,0.1330" />
	<path type="line" fill="none" point-count="1" stroke="rgb(200,200,255)" stroke-width="0.001" d="M0.0000,0.2000 T1.0000,0.2000" />
	<path type="line" fill="none" point-count="1" stroke="rgb(200,200,255)" stroke-width="0.001" d="M0.0000,0.2670 T1.0000,0.2670" />
	<path type="line" fill="none" point-count="1" stroke="rgb(200,200,255)" stroke-width="0.001" d="M0.0000,0.3330 T1.0000,0.3330" />
	<path type="line" fill="none" point-count="1" stroke="rgb(200,200,255)" stroke-width="0.001" d="M0.0000,0.4000 T1.0000,0.4000" />
	<path type="line" fill="none" point-count="1" stroke="rgb(200,200,255)" stroke-width="0.001" d="M0.0000,0.4670 T1.0000,0.4670" />
	<path type="line" fill="none" point-count="1" stroke="rgb(200,200,255)" stroke-width="0.001" d="M0.0000,0.5330 T1.0000,0.5330" />
	<path type="line" fill="none" point-count="1" stroke="rgb(200,200,255)" stroke-width="0.001" d="M0.0000,0.6000 T1.0000,0.6000" />
	<path type="line" fill="none" point-count="1" stroke="rgb(200,200,255)" stroke-width="0.001" d="M0.0000,0.6670 T1.0000,0.6670" />
	<path type="line" fill="none" point-count="1" stroke="rgb(200,200,255)" stroke-width="0.001" d="M0.0000,0.7330 T1.0000,0.7330" />
	<path type="line" fill="none" point-count="1" stroke="rgb(200,200,255)" stroke-width="0.001" d="M0.0000,0.8000 T1.0000,0.8000" />
	<path type="line" fill="none" point-count="1" stroke="rgb(200,200,255)" stroke-width="0.001" d="M0.0000,0.8670 T1.0000,0.8670" />
	<path type="line" fill="none" point-count="1" stroke="rgb(200,200,255)" stroke-width="0.001" d="M0.0000,0.9330 T1.0000,0.9330" />
</g>
	<path type="line" fill="none" point-count="190" stroke="rgb(255,0,0)" stroke-width="0.020" d="M0.5514,0.3037 L0.5514,0.3037 0.5514,0.3009 0.5486,0.2980 0.5457,0.2980 0.5429,0.2951 0.5400,0.2923 0.5343,0.2865 0.5314,0.2865 0.5257,0.2808 0.5200,0.2779 0.5143,0.2693 0.5114,0.2665 0.5029,0.2607 0.5000,0.2579 0.4971,0.2579 0.4914,0.2521 0.4886,0.2493 0.4829,0.2464 0.4800,0.2436 0.4743,0.2407 0.4686,0.2350 0.4657,0.2321 0.4571,0.2292 0.4543,0.2264 0.4457,0.2235 0.4429,0.2235 0.4343,0.2178 0.4229,0.2178 0.4086,0.2120 0.4000,0.2034 0.3943,0.2006 0.3829,0.2006 0.3771,0.1977 0.3714,0.1948 0.3657,0.1948 0.3600,0.1948 0.3486,0.1948 0.3429,0.1948 0.3400,0.1948 0.3371,0.1948 0.3257,0.1948 0.3229,0.1948 0.3114,0.1948 0.3086,0.1948 0.3000,0.1948 0.2914,0.1948 0.2886,0.1948 0.2771,0.1948 0.2743,0.1948 0.2686,0.1977 0.2629,0.1977 0.2571,0.2006 0.2457,0.2034 0.2457,0.2063 0.2400,0.2092 0.2343,0.2092 0.2286,0.2120 0.2257,0.2149 0.2229,0.2178 0.2200,0.2206 0.2143,0.2235 0.2086,0.2292 0.2057,0.2292 0.2029,0.2350 0.2029,0.2378 0.2000,0.2436 0.1971,0.2436 0.1971,0.2493 0.1943,0.2550 0.1914,0.2579 0.1914,0.2607 0.1886,0.2665 0.1857,0.2722 0.1857,0.2751 0.1857,0.2808 0.1857,0.2837 0.1857,0.2894 0.1857,0.2951 0.1857,0.3066 0.1857,0.3123 0.1857,0.3152 0.1886,0.3238 0.1886,0.3266 0.1914,0.3352 0.2000,0.3410 0.2029,0.3496 0.2057,0.3553 0.2086,0.3610 0.2114,0.3696 0.2143,0.3696 0.2200,0.3811 0.2257,0.3868 0.2257,0.3897 0.2314,0.3983 0.2343,0.4011 0.2371,0.4069 0.2400,0.4097 0.2429,0.4155 0.2457,0.4183 0.2457,0.4269 0.2543,0.4355 0.2543,0.4413 0.2600,0.4499 0.2600,0.4556 0.2629,0.4642 0.2657,0.4699 0.2686,0.4814 0.2771,0.4900 0.2771,0.4957 0.2771,0.5072 0.2771,0.5100 0.2800,0.5186 0.2800,0.5244 0.2800,0.5330 0.2800,0.5358 0.2800,0.5473 0.2800,0.5587 0.2800,0.5731 0.2800,0.5845 0.2800,0.5903 0.2800,0.5989 0.2800,0.6017 0.2800,0.6103 0.2800,0.6189 0.2800,0.6218 0.2800,0.6304 0.2771,0.6332 0.2771,0.6418 0.2771,0.6447 0.2743,0.6533 0.2743,0.6619 0.2743,0.6648 0.2714,0.6705 0.2714,0.6762 0.2714,0.6877 0.2714,0.6905 0.2714,0.6934 0.2714,0.7020 0.2714,0.7077 0.2714,0.7135 0.2743,0.7163 0.2771,0.7221 0.2800,0.7307 0.2829,0.7335 0.2857,0.7421 0.2914,0.7507 0.2914,0.7536 0.2971,0.7622 0.3000,0.7650 0.3057,0.7708 0.3086,0.7736 0.3143,0.7794 0.3171,0.7822 0.3229,0.7851 0.3286,0.7908 0.3314,0.7908 0.3400,0.7966 0.3429,0.7966 0.3514,0.8023 0.3571,0.8023 0.3714,0.8109 0.3743,0.8109 0.3943,0.8138 0.4086,0.8138 0.4229,0.8166 0.4257,0.8166 0.4343,0.8166 0.4371,0.8166 0.4486,0.8166 0.4543,0.8166 0.4600,0.8166 0.4714,0.8138 0.4743,0.8138 0.4829,0.8109 0.4857,0.8109 0.4914,0.8080 0.4943,0.8052 0.4971,0.8023 0.5000,0.7937 0.5000,0.7908 0.5029,0.7880 0.5086,0.7851 0.5114,0.7794 0.5143,0.7765 0.5143,0.7736 0.5171,0.7708 0.5171,0.7679 0.5200,0.7679 0.5200,0.7650 T0.5229,0.7650" />
	<path type="line" fill="none" point-count="211" stroke="rgb(255,0,0)" stroke-width="0.020" d="M0.5657,0.2951 L0.5657,0.2951 0.5686,0.2951 0.5686,0.2923 0.5714,0.2923 0.5714,0.2894 0.5771,0.2865 0.5800,0.2837 0.5829,0.2837 0.5829,0.2808 0.5829,0.2751 0.5857,0.2722 0.5857,0.2693 0.5914,0.2636 0.5943,0.2607 0.5971,0.2550 0.6000,0.2550 0.6029,0.2493 0.6029,0.2464 0.6057,0.2378 0.6086,0.2292 0.6143,0.2235 0.6143,0.2206 0.6171,0.2206 0.6171,0.2178 0.6171,0.2149 0.6200,0.2092 0.6229,0.2034 0.6286,0.2034 0.6286,0.1977 0.6314,0.1977 0.6343,0.1948 0.6371,0.1948 0.6400,0.1920 0.6429,0.1891 0.6457,0.1862 0.6514,0.1834 0.6543,0.1834 0.6600,0.1805 0.6629,0.1777 0.6686,0.1748 0.6686,0.1719 0.6800,0.1691 0.6886,0.1662 0.6914,0.1633 0.7000,0.1605 0.7057,0.1605 0.7171,0.1576 0.7200,0.1547 0.7257,0.1519 0.7314,0.1519 0.7343,0.1519 0.7371,0.1519 0.7400,0.1490 0.7429,0.1490 0.7457,0.1490 0.7486,0.1490 0.7543,0.1490 0.7600,0.1490 0.7629,0.1490 0.7686,0.1490 0.7743,0.1490 0.7771,0.1490 0.7829,0.1490 0.7971,0.1519 0.8057,0.1576 0.8114,0.1576 0.8257,0.1662 0.8343,0.1691 0.8371,0.1719 0.8429,0.1748 0.8486,0.1777 0.8486,0.1805 0.8514,0.1834 0.8543,0.1862 0.8543,0.1891 0.8571,0.1891 0.8571,0.1920 0.8600,0.1948 0.8629,0.2006 0.8657,0.2034 0.8657,0.2063 0.8686,0.2092 0.8686,0.2120 0.8714,0.2178 0.8743,0.2206 0.8743,0.2235 0.8743,0.2264 0.8771,0.2321 0.8800,0.2378 0.8800,0.2407 0.8800,0.2464 0.8800,0.2493 0.8800,0.2550 0.8800,0.2607 0.8800,0.2636 0.8800,0.2722 0.8800,0.2751 0.8800,0.2808 0.8771,0.2865 0.8743,0.2951 0.8743,0.3009 0.8714,0.3066 0.8686,0.3095 0.8657,0.3181 0.8657,0.3238 0.8600,0.3324 0.8600,0.3352 0.8600,0.3496 0.8543,0.3553 0.8543,0.3610 0.8486,0.3696 0.8486,0.3725 0.8457,0.3782 0.8457,0.3811 0.8429,0.3897 0.8429,0.3983 0.8400,0.4097 0.8400,0.4155 0.8371,0.4269 0.8371,0.4298 0.8371,0.4355 0.8343,0.4470 0.8343,0.4556 0.8343,0.4585 0.8314,0.4670 0.8314,0.4699 0.8286,0.4785 0.8286,0.4814 0.8286,0.4928 0.8257,0.4986 0.8257,0.5043 0.8257,0.5158 0.8257,0.5244 0.8257,0.5301 0.8257,0.5358 0.8257,0.5444 0.8286,0.5530 0.8286,0.5616 0.8286,0.5645 0.8314,0.5702 0.8314,0.5759 0.8314,0.5874 0.8314,0.5903 0.8314,0.5989 0.8314,0.6046 0.8343,0.6132 0.8343,0.6275 0.8343,0.6332 0.8371,0.6447 0.8371,0.6504 0.8371,0.6590 0.8371,0.6648 0.8371,0.6791 0.8371,0.6934 0.8371,0.7106 0.8371,0.7221 0.8343,0.7307 0.8314,0.7393 0.8314,0.7507 0.8257,0.7708 0.8229,0.7822 0.8200,0.7880 0.8171,0.7994 0.8143,0.8052 0.8114,0.8138 0.8086,0.8166 0.8057,0.8252 0.8000,0.8367 0.7971,0.8395 0.7886,0.8481 0.7829,0.8567 0.7800,0.8567 0.7743,0.8625 0.7686,0.8653 0.7629,0.8653 0.7543,0.8682 0.7486,0.8682 0.7371,0.8739 0.7286,0.8739 0.7229,0.8739 0.7086,0.8739 0.6943,0.8739 0.6914,0.8739 0.6800,0.8739 0.6657,0.8711 0.6571,0.8682 0.6486,0.8653 0.6371,0.8625 0.6229,0.8567 0.6229,0.8539 0.6086,0.8481 0.6057,0.8453 0.5943,0.8395 0.5886,0.8367 0.5771,0.8281 0.5714,0.8252 0.5686,0.8223 0.5629,0.8195 0.5600,0.8166 0.5571,0.8166 0.5571,0.8138 0.5571,0.8109 0.5543,0.8052 0.5543,0.8023 0.5543,0.7994 0.5543,0.7937 0.5543,0.7908 0.5514,0.7851 0.5457,0.7736 0.5457,0.7708 T0.5457,0.7679" />
	<path type="line" fill="none" point-count="97" stroke="rgb(0,255,0)" stroke-width="0.020" d="M0.5457,0.2779 L0.5457,0.2779 0.5486,0.2751 0.5486,0.2722 0.5486,0.2693 0.5486,0.2665 0.5486,0.2579 0.5486,0.2521 0.5486,0.2464 0.5486,0.2378 0.5486,0.2235 0.5486,0.2206 0.5457,0.2120 0.5429,0.2006 0.5429,0.1891 0.5400,0.1805 0.5343,0.1662 0.5343,0.1633 0.5286,0.1461 0.5200,0.1347 0.5171,0.1261 0.5171,0.1232 0.5114,0.1146 0.5057,0.1032 0.5057,0.1003 0.5000,0.0917 0.4971,0.0888 0.4914,0.0831 0.4829,0.0688 0.4743,0.0630 0.4743,0.0602 0.4686,0.0544 0.4657,0.0516 0.4514,0.0430 0.4457,0.0372 0.4429,0.0372 0.4400,0.0344 0.4429,0.0344 0.4457,0.0344 0.4486,0.0344 0.4514,0.0344 0.4600,0.0344 0.4743,0.0344 0.4886,0.0344 0.4971,0.0344 0.5029,0.0344 0.5143,0.0344 0.5257,0.0315 0.5286,0.0315 0.5314,0.0315 0.5343,0.0315 0.5371,0.0315 0.5400,0.0315 0.5429,0.0315 0.5457,0.0315 0.5486,0.0315 0.5514,0.0315 0.5543,0.0315 0.5571,0.0315 0.5600,0.0315 0.5629,0.0315 0.5629,0.0344 0.5657,0.0372 0.5657,0.0401 0.5686,0.0430 0.5686,0.0458 0.5686,0.0487 0.5686,0.0516 0.5686,0.0573 0.5686,0.0630 0.5686,0.0745 0.5686,0.0802 0.5686,0.0860 0.5657,0.0974 0.5657,0.1032 0.5629,0.1146 0.5629,0.1261 0.5600,0.1404 0.5600,0.1461 0.5543,0.1547 0.5543,0.1605 0.5543,0.1748 0.5543,0.1805 0.5543,0.1891 0.5514,0.1977 0.5514,0.2034 0.5486,0.2063 0.5486,0.2178 0.5486,0.2206 0.5486,0.2292 0.5486,0.2378 0.5486,0.2464 0.5486,0.2493 0.5486,0.2579 0.5486,0.2636 0.5486,0.2665 0.5486,0.2693 T0.5486,0.2751" />
	<path type="line" fill="none" point-count="313" stroke="rgb(0,255,0)" stroke-width="0.020" d="M0.5514,0.2779 L0.5514,0.2779 0.5514,0.2751 0.5543,0.2722 0.5543,0.2693 0.5571,0.2693 0.5571,0.2636 0.5571,0.2607 0.5600,0.2550 0.5600,0.2521 0.5629,0.2464 0.5657,0.2436 0.5657,0.2378 0.5686,0.2350 0.5714,0.2264 0.5743,0.2206 0.5743,0.2149 0.5771,0.2006 0.5771,0.1977 0.5829,0.1862 0.5829,0.1805 0.5857,0.1719 0.5886,0.1662 0.5914,0.1633 0.5914,0.1547 0.5943,0.1519 0.5971,0.1461 0.5971,0.1433 0.6000,0.1289 0.6000,0.1175 0.6029,0.1032 0.6029,0.0974 0.6086,0.0888 0.6143,0.0860 0.6171,0.0860 0.6200,0.0831 0.6200,0.0802 0.6200,0.0774 0.6229,0.0745 0.6257,0.0688 0.6286,0.0659 0.6314,0.0602 0.6343,0.0573 0.6429,0.0516 0.6429,0.0487 0.6486,0.0458 0.6514,0.0458 0.6571,0.0401 0.6600,0.0401 0.6657,0.0372 0.6686,0.0344 0.6686,0.0315 0.6714,0.0315 0.6771,0.0287 0.6771,0.0258 0.6800,0.0258 0.6800,0.0229 0.6829,0.0229 0.6857,0.0229 0.6886,0.0229 0.6886,0.0258 0.6914,0.0258 0.6914,0.0287 0.6943,0.0344 0.6943,0.0372 0.6971,0.0430 0.7000,0.0487 0.7000,0.0516 0.7000,0.0573 0.7000,0.0602 0.7000,0.0716 0.7000,0.0802 0.7000,0.0831 0.7000,0.0946 0.6971,0.0974 0.6971,0.1060 0.6943,0.1060 0.6886,0.1232 0.6857,0.1261 0.6829,0.1318 0.6771,0.1404 0.6771,0.1433 0.6714,0.1490 0.6714,0.1519 0.6629,0.1605 0.6571,0.1662 0.6543,0.1691 0.6486,0.1777 0.6457,0.1805 0.6371,0.1948 0.6343,0.2006 0.6314,0.2034 0.6286,0.2063 0.6257,0.2092 0.6229,0.2120 0.6229,0.2149 0.6200,0.2178 0.6171,0.2206 0.6114,0.2264 0.6086,0.2292 0.6057,0.2350 0.6000,0.2436 0.5914,0.2493 0.5914,0.2521 0.5857,0.2521 0.5829,0.2607 0.5800,0.2607 0.5771,0.2607 0.5743,0.2636 0.5686,0.2665 0.5686,0.2693 0.5657,0.2693 0.5629,0.2722 0.5600,0.2722 0.5600,0.2751 0.5571,0.2751 0.5571,0.2779 0.5571,0.2751 0.5600,0.2751 0.5600,0.2722 0.5657,0.2636 0.5686,0.2579 0.5714,0.2550 0.5771,0.2464 0.5800,0.2378 0.5829,0.2350 0.5886,0.2235 0.5914,0.2206 0.5943,0.2092 0.5971,0.2006 0.6000,0.1977 0.6029,0.1920 0.6057,0.1834 0.6057,0.1777 0.6086,0.1777 0.6086,0.1691 0.6114,0.1691 0.6114,0.1605 0.6143,0.1519 0.6143,0.1490 0.6171,0.1404 0.6200,0.1404 0.6200,0.1347 0.6229,0.1318 0.6229,0.1289 0.6257,0.1175 0.6257,0.1146 0.6286,0.1032 0.6314,0.1003 0.6314,0.0974 0.6343,0.0888 0.6371,0.0888 0.6371,0.0860 0.6400,0.0831 0.6400,0.0802 0.6429,0.0774 0.6429,0.0745 0.6457,0.0745 0.6486,0.0716 0.6486,0.0688 0.6514,0.0659 0.6543,0.0630 0.6571,0.0602 0.6571,0.0573 0.6600,0.0573 0.6629,0.0573 0.6629,0.0602 0.6657,0.0630 0.6657,0.0659 0.6657,0.0688 0.6657,0.0774 0.6657,0.0831 0.6657,0.0860 0.6629,0.0974 0.6571,0.1032 0.6514,0.1117 0.6486,0.1175 0.6457,0.1261 0.6429,0.1289 0.6314,0.1404 0.6314,0.1433 0.6229,0.1519 0.6200,0.1576 0.6171,0.1662 0.6143,0.1691 0.6057,0.1777 0.6057,0.1805 0.6000,0.1862 0.5971,0.1891 0.5971,0.1948 0.5943,0.1948 0.5943,0.2006 0.5914,0.2006 0.5914,0.2063 0.5914,0.2092 0.5886,0.2120 0.5886,0.2149 0.5914,0.2149 0.5914,0.2120 0.6029,0.2006 0.6057,0.1948 0.6229,0.1748 0.6257,0.1691 0.6371,0.1547 0.6400,0.1490 0.6429,0.1433 0.6457,0.1404 0.6514,0.1289 0.6600,0.1175 0.6600,0.1146 0.6600,0.1117 0.6629,0.1089 0.6657,0.1032 0.6657,0.1003 0.6714,0.0974 0.6743,0.0917 0.6743,0.0888 0.6800,0.0831 0.6800,0.0802 0.6829,0.0802 0.6829,0.0774 0.6829,0.0745 0.6829,0.0688 0.6857,0.0630 0.6857,0.0602 0.6857,0.0544 0.6857,0.0516 0.6829,0.0516 0.6800,0.0516 0.6800,0.0544 0.6800,0.0573 0.6771,0.0688 0.6743,0.0716 0.6743,0.0831 0.6714,0.0946 0.6714,0.1060 0.6686,0.1203 0.6657,0.1289 0.6629,0.1375 0.6600,0.1490 0.6571,0.1605 0.6543,0.1662 0.6486,0.1748 0.6429,0.1805 0.6400,0.1834 0.6343,0.1920 0.6257,0.2034 0.6257,0.2063 0.6229,0.2092 0.6229,0.2063 0.6229,0.2006 0.6286,0.1891 0.6371,0.1719 0.6457,0.1576 0.6514,0.1375 0.6571,0.1232 0.6600,0.1203 0.6686,0.1003 0.6686,0.0860 0.6686,0.0831 0.6686,0.0774 0.6686,0.0745 0.6686,0.0602 0.6686,0.0573 0.6686,0.0544 0.6686,0.0516 0.6686,0.0487 0.6657,0.0487 0.6657,0.0516 0.6629,0.0573 0.6629,0.0688 0.6600,0.0745 0.6543,0.0831 0.6486,0.0974 0.6429,0.1146 0.6400,0.1203 0.6343,0.1318 0.6314,0.1433 0.6229,0.1519 0.6200,0.1547 0.6143,0.1605 0.6114,0.1633 0.6086,0.1691 0.6057,0.1691 0.6086,0.1691 0.6086,0.1633 0.6143,0.1576 0.6229,0.1318 0.6286,0.1175 0.6286,0.1117 0.6314,0.1003 0.6343,0.0946 0.6343,0.0774 0.6371,0.0716 0.6371,0.0688 0.6371,0.0716 0.6371,0.0745 0.6343,0.0831 0.6286,0.0974 0.6200,0.1146 0.6143,0.1347 0.6057,0.1576 0.6000,0.1719 0.5943,0.1920 0.5943,0.2006 0.5943,0.2092 0.5914,0.2149 0.5943,0.2149 0.5971,0.2149 0.6000,0.2092 0.6200,0.1920 0.6314,0.1777 0.6457,0.1576 T0.6543,0.1347" />
	<path type="line" fill="none" point-count="60" stroke="rgb(0,255,0)" stroke-width="0.020" d="M0.4857,0.0458 L0.4857,0.0458 0.4800,0.0430 0.4771,0.0430 0.4800,0.0430 0.4800,0.0458 0.4886,0.0487 0.4971,0.0516 0.5029,0.0516 0.5086,0.0544 0.5086,0.0573 0.5086,0.0659 0.5114,0.0745 0.5114,0.0860 0.5143,0.0946 0.5143,0.1003 0.5143,0.0974 0.5143,0.0946 0.5143,0.0888 0.5143,0.0831 0.5114,0.0544 0.5086,0.0401 0.5057,0.0315 0.5057,0.0287 0.5057,0.0315 0.5057,0.0344 0.5114,0.0458 0.5200,0.0602 0.5200,0.0745 0.5229,0.0860 0.5257,0.0946 0.5257,0.0917 0.5257,0.0860 0.5286,0.0745 0.5286,0.0688 0.5286,0.0602 0.5286,0.0573 0.5286,0.0602 0.5286,0.0659 0.5286,0.0802 0.5286,0.0946 0.5286,0.1060 0.5286,0.1146 0.5286,0.1117 0.5314,0.1089 0.5314,0.0917 0.5314,0.0688 0.5314,0.0544 0.5314,0.0487 0.5314,0.0516 0.5314,0.0573 0.5371,0.0802 0.5371,0.1003 0.5400,0.1175 0.5400,0.1289 0.5400,0.1318 0.5429,0.1289 0.5429,0.1261 0.5429,0.0974 0.5429,0.0602 T0.5429,0.0430" />
	<path type="line" fill="none" point-count="18" stroke="rgb(0,255,0)" stroke-width="0.020" d="M0.5429,0.0372 L0.5429,0.0372 0.5429,0.0487 0.5429,0.0602 0.5457,0.0745 0.5457,0.0774 0.5486,0.0831 0.5486,0.0888 0.5486,0.0860 0.5486,0.0831 0.5486,0.0802 0.5486,0.0745 0.5514,0.0716 0.5514,0.0659 0.5514,0.0602 0.5514,0.0573 0.5514,0.0544 0.5514,0.0516 T0.5514,0.0487" />
	<path type="line" fill="none" point-count="2" stroke="rgb(0,255,0)" stroke-width="0.020" d="M0.5314,0.0458 L0.5314,0.0458 T0.5286,0.0458" />
	<path type="line" fill="none" point-count="60" stroke="rgb(0,0,0)" stroke-width="0.020" d="M0.3457,0.2521 L0.3457,0.2521 0.3429,0.2521 0.3400,0.2521 0.3371,0.2493 0.3343,0.2493 0.3286,0.2493 0.3200,0.2493 0.3114,0.2493 0.3000,0.2493 0.2971,0.2521 0.2914,0.2550 0.2886,0.2607 0.2829,0.2636 0.2800,0.2751 0.2771,0.2865 0.2743,0.2980 0.2743,0.3066 0.2743,0.3123 0.2714,0.3209 0.2714,0.3238 0.2714,0.3266 0.2743,0.3266 0.2829,0.3324 0.2943,0.3410 0.2971,0.3438 0.3000,0.3467 0.3057,0.3553 0.3086,0.3610 0.3114,0.3639 0.3114,0.3610 0.3143,0.3610 0.3143,0.3582 0.3143,0.3553 0.3143,0.3524 0.3143,0.3496 0.3143,0.3438 0.3143,0.3410 0.3143,0.3381 0.3171,0.3295 0.3200,0.3238 0.3286,0.3152 0.3286,0.3123 0.3314,0.3123 0.3343,0.3066 0.3429,0.3066 0.3514,0.3066 0.3600,0.3037 0.3629,0.3037 0.3657,0.3037 0.3686,0.3037 0.3714,0.3037 0.3743,0.3037 0.3743,0.3009 0.3743,0.2980 0.3743,0.2923 0.3743,0.2837 0.3714,0.2722 0.3600,0.2607 0.3514,0.2464 T0.3486,0.2464" />
</g>
</svg>
