<svg width="5in" height="5in" viewBox="0 0 1 1">
<g id="Arrow" type="iconel" clip-path="url(#ClipPath)" >
<g type="clip-iconel" clip-rule="nonzero" >
<clipPath id="ClipPath" >
	<path type="line" fill="none" point-count="4" stroke="rgb(0,0,0)" stroke-width="0.050" d="M0.0000,0.0000 L1.0000,0.0000 1.0000,1.0000 0.0000,1.0000 T0.0000,0.0000" />
</clipPath>
</g>
<g type="background-iconel" >
	<rect type="rectangle" x="0.000" y="0.000" width="1.000" height="1.000" fill="rgb(255,255,255)" stroke="rgb(255,255,255)" stroke-width="0.001" />
</g>
	<path type="line" fill="none" point-count="725" stroke="rgb(0,0,0)" stroke-width="0.010" d="M0.3714,0.0086 L0.3714,0.0086 0.3686,0.0057 0.3686,0.0086 0.3686,0.0143 0.3543,0.0086 0.3543,0.0115 0.3514,0.0143 0.3514,0.0201 0.3514,0.0258 0.3514,0.0344 0.3514,0.0372 0.3486,0.0401 0.3486,0.0430 0.3486,0.0487 0.3486,0.0516 0.3486,0.0544 0.3486,0.0630 0.3457,0.0630 0.3457,0.0688 0.3457,0.0716 0.3457,0.0745 0.3457,0.0802 0.3457,0.0831 0.3457,0.0860 0.3486,0.0917 0.3486,0.0946 0.3514,0.0974 0.3514,0.1032 0.3514,0.1060 0.3514,0.1089 0.3514,0.1117 0.3514,0.1146 0.3543,0.1175 0.3543,0.1203 0.3543,0.1261 0.3543,0.1289 0.3543,0.1318 0.3571,0.1347 0.3571,0.1375 0.3571,0.1404 0.3629,0.1433 0.3629,0.1461 0.3657,0.1519 0.3657,0.1547 0.3657,0.1576 0.3657,0.1605 0.3686,0.1633 0.3686,0.1662 0.3686,0.1691 0.3714,0.1748 0.3714,0.1777 0.3714,0.1805 0.3714,0.1834 0.3714,0.1862 0.3743,0.1977 0.3743,0.2063 0.3743,0.2092 0.3800,0.2206 0.3800,0.2235 0.3800,0.2292 0.3800,0.2321 0.3829,0.2378 0.3829,0.2407 0.3829,0.2493 0.3829,0.2550 0.3829,0.2579 0.3829,0.2665 0.3829,0.2693 0.3829,0.2722 0.3829,0.2751 0.3829,0.2779 0.3829,0.2865 0.3829,0.2894 0.3829,0.2923 0.3829,0.2951 0.3829,0.3009 0.3829,0.3037 0.3829,0.3066 0.3829,0.3123 0.3829,0.3152 0.3829,0.3181 0.3829,0.3209 0.3829,0.3238 0.3829,0.3266 0.3829,0.3295 0.3829,0.3352 0.3829,0.3381 0.3829,0.3410 0.3800,0.3438 0.3800,0.3467 0.3800,0.3496 0.3800,0.3524 0.3800,0.3582 0.3800,0.3610 0.3771,0.3639 0.3771,0.3668 0.3771,0.3696 0.3771,0.3725 0.3771,0.3754 0.3771,0.3782 0.3771,0.3840 0.3714,0.3868 0.3714,0.3897 0.3714,0.3926 0.3714,0.3983 0.3714,0.4011 0.3686,0.4069 0.3686,0.4097 0.3686,0.4126 0.3686,0.4155 0.3686,0.4183 0.3657,0.4212 0.3657,0.4241 0.3657,0.4298 0.3657,0.4355 0.3657,0.4384 0.3657,0.4413 0.3657,0.4441 0.3657,0.4470 0.3657,0.4556 0.3657,0.4585 0.3657,0.4613 0.3657,0.4642 0.3657,0.4670 0.3657,0.4699 0.3657,0.4728 0.3657,0.4785 0.3657,0.4814 0.3657,0.4842 0.3657,0.4871 0.3657,0.4900 0.3657,0.4928 0.3657,0.4957 0.3657,0.5014 0.3657,0.5043 0.3657,0.5072 0.3657,0.5100 0.3657,0.5129 0.3657,0.5158 0.3657,0.5186 0.3657,0.5244 0.3657,0.5272 0.3657,0.5301 0.3657,0.5330 0.3657,0.5358 0.3657,0.5387 0.3657,0.5415 0.3657,0.5444 0.3657,0.5501 0.3657,0.5530 0.3657,0.5559 0.3657,0.5587 0.3657,0.5616 0.3657,0.5645 0.3657,0.5673 0.3657,0.5731 0.3657,0.5759 0.3657,0.5788 0.3629,0.5788 0.3629,0.5817 0.3600,0.5817 0.3571,0.5817 0.3571,0.5845 0.3543,0.5845 0.3486,0.5845 0.3457,0.5845 0.3429,0.5845 0.3400,0.5845 0.3371,0.5845 0.3343,0.5845 0.3257,0.5845 0.3229,0.5845 0.3171,0.5845 0.3086,0.5845 0.2971,0.5845 0.2943,0.5845 0.2886,0.5845 0.2800,0.5845 0.2743,0.5845 0.2657,0.5845 0.2629,0.5845 0.2514,0.5845 0.2486,0.5845 0.2429,0.5817 0.2400,0.5817 0.2286,0.5817 0.2200,0.5788 0.2171,0.5788 0.2114,0.5788 0.2086,0.5788 0.2000,0.5731 0.1971,0.5731 0.1914,0.5731 0.1886,0.5731 0.1857,0.5702 0.1829,0.5702 0.1771,0.5702 0.1743,0.5702 0.1714,0.5702 0.1657,0.5673 0.1629,0.5673 0.1600,0.5673 0.1543,0.5645 0.1514,0.5645 0.1486,0.5645 0.1457,0.5645 0.1429,0.5645 0.1400,0.5645 0.1371,0.5616 0.1314,0.5616 0.1257,0.5616 0.1171,0.5616 0.1143,0.5559 0.1086,0.5559 0.1057,0.5559 0.1029,0.5559 0.1000,0.5559 0.0914,0.5530 0.0857,0.5530 0.0829,0.5530 0.0771,0.5530 0.0743,0.5501 0.0714,0.5501 0.0686,0.5501 0.0657,0.5501 0.0629,0.5501 0.0600,0.5501 0.0543,0.5473 0.0514,0.5473 0.0486,0.5473 0.0457,0.5473 0.0429,0.5473 0.0400,0.5473 0.0400,0.5444 0.0371,0.5444 0.0314,0.5444 0.0286,0.5444 0.0257,0.5444 0.0257,0.5473 0.0286,0.5501 0.0314,0.5530 0.0371,0.5559 0.0400,0.5645 0.0486,0.5731 0.0514,0.5759 0.0543,0.5788 0.0571,0.5817 0.0657,0.5903 0.0686,0.5931 0.0714,0.5960 0.0743,0.5989 0.0829,0.6074 0.0857,0.6132 0.0886,0.6132 0.0971,0.6218 0.1000,0.6246 0.1057,0.6332 0.1086,0.6361 0.1171,0.6418 0.1200,0.6504 0.1343,0.6590 0.1371,0.6619 0.1457,0.6705 0.1543,0.6819 0.1571,0.6848 0.1686,0.6934 0.1714,0.7020 0.1829,0.7106 0.1914,0.7192 0.2000,0.7307 0.2143,0.7393 0.2171,0.7421 0.2286,0.7536 0.2286,0.7564 0.2371,0.7593 0.2400,0.7622 0.2457,0.7679 0.2514,0.7736 0.2629,0.7851 0.2686,0.7908 0.2714,0.7937 0.2800,0.8023 0.2829,0.8052 0.2886,0.8109 0.2943,0.8166 0.3000,0.8223 0.3086,0.8281 0.3171,0.8338 0.3257,0.8424 0.3314,0.8481 0.3400,0.8539 0.3429,0.8539 0.3514,0.8625 0.3543,0.8653 0.3600,0.8682 0.3686,0.8739 0.3686,0.8768 0.3714,0.8797 0.3743,0.8797 0.3771,0.8825 0.3829,0.8825 0.3829,0.8854 0.3857,0.8854 0.3857,0.8883 0.3886,0.8883 0.3914,0.8911 0.3943,0.8968 0.3971,0.8968 0.4000,0.8997 0.4057,0.9026 0.4086,0.9054 0.4114,0.9083 0.4143,0.9083 0.4171,0.9112 0.4200,0.9140 0.4229,0.9198 0.4286,0.9198 0.4314,0.9226 0.4343,0.9255 0.4371,0.9255 0.4400,0.9284 0.4429,0.9312 0.4457,0.9312 0.4457,0.9341 0.4514,0.9341 0.4543,0.9370 0.4571,0.9427 0.4600,0.9427 0.4600,0.9456 0.4629,0.9456 0.4657,0.9456 0.4657,0.9484 0.4686,0.9513 0.4714,0.9513 0.4714,0.9542 0.4771,0.9542 0.4771,0.9570 0.4800,0.9570 0.4829,0.9599 0.4857,0.9628 0.4886,0.9628 0.4886,0.9685 0.4914,0.9685 0.4943,0.9713 0.5000,0.9742 0.5029,0.9771 0.5057,0.9799 0.5086,0.9799 0.5086,0.9828 0.5114,0.9828 0.5114,0.9857 0.5143,0.9857 0.5171,0.9914 0.5229,0.9914 0.5257,0.9914 0.5257,0.9857 0.5286,0.9857 0.5286,0.9828 0.5343,0.9828 0.5343,0.9799 0.5429,0.9771 0.5457,0.9742 0.5486,0.9742 0.5514,0.9713 0.5543,0.9713 0.5629,0.9685 0.5657,0.9628 0.5686,0.9599 0.5714,0.9599 0.5800,0.9570 0.5829,0.9570 0.5857,0.9542 0.5886,0.9542 0.5914,0.9456 0.5943,0.9456 0.5971,0.9427 0.6029,0.9398 0.6057,0.9398 0.6086,0.9370 0.6114,0.9370 0.6143,0.9341 0.6143,0.9312 0.6171,0.9284 0.6200,0.9284 0.6229,0.9226 0.6286,0.9198 0.6314,0.9169 0.6371,0.9140 0.6400,0.9112 0.6457,0.9083 0.6486,0.9026 0.6514,0.9026 0.6571,0.8968 0.6600,0.8940 0.6686,0.8911 0.6714,0.8854 0.6743,0.8825 0.6771,0.8797 0.6857,0.8768 0.6886,0.8739 0.6914,0.8739 0.7000,0.8682 0.7000,0.8653 0.7057,0.8625 0.7086,0.8625 0.7114,0.8567 0.7200,0.8510 0.7286,0.8481 0.7314,0.8395 0.7343,0.8395 0.7429,0.8367 0.7429,0.8338 0.7486,0.8309 0.7514,0.8309 0.7571,0.8223 0.7629,0.8195 0.7657,0.8195 0.7714,0.8109 0.7771,0.8080 0.7800,0.8080 0.7829,0.8052 0.7857,0.8023 0.7886,0.8023 0.7886,0.7994 0.7914,0.7994 0.7943,0.7994 0.8000,0.7994 0.8029,0.7966 0.8029,0.7937 0.8057,0.7937 0.8086,0.7880 0.8114,0.7880 0.8114,0.7851 0.8143,0.7851 0.8143,0.7822 0.8171,0.7822 0.8229,0.7794 0.8257,0.7765 0.8286,0.7736 0.8314,0.7708 0.8343,0.7708 0.8371,0.7650 0.8400,0.7622 0.8457,0.7622 0.8457,0.7593 0.8514,0.7564 0.8571,0.7536 0.8657,0.7450 0.8686,0.7450 0.8714,0.7421 0.8714,0.7393 0.8800,0.7364 0.8800,0.7335 0.8857,0.7335 0.8857,0.7278 0.8914,0.7278 0.8914,0.7249 0.8943,0.7249 0.8943,0.7221 0.8971,0.7221 0.8971,0.7192 0.9000,0.7192 0.9057,0.7135 0.9086,0.7135 0.9086,0.7106 0.9114,0.7106 0.9114,0.7077 0.9143,0.7020 0.9143,0.6991 0.9171,0.6991 0.9171,0.6963 0.9200,0.6963 0.9200,0.6934 0.9200,0.6905 0.9229,0.6877 0.9286,0.6877 0.9286,0.6848 0.9314,0.6791 0.9314,0.6762 0.9314,0.6734 0.9343,0.6734 0.9343,0.6705 0.9371,0.6705 0.9371,0.6676 0.9400,0.6648 0.9400,0.6619 0.9400,0.6590 0.9429,0.6590 0.9429,0.6533 0.9457,0.6533 0.9457,0.6504 0.9457,0.6476 0.9514,0.6476 0.9543,0.6447 0.9543,0.6418 0.9571,0.6418 0.9571,0.6390 0.9600,0.6390 0.9600,0.6361 0.9600,0.6304 0.9629,0.6304 0.9629,0.6275 0.9657,0.6275 0.9657,0.6246 0.9686,0.6246 0.9714,0.6246 0.9771,0.6246 0.9771,0.6218 0.9800,0.6218 0.9800,0.6189 0.9829,0.6189 0.9829,0.6160 0.9857,0.6160 0.9886,0.6160 0.9886,0.6132 0.9886,0.6074 0.9914,0.6074 0.9914,0.6046 0.9943,0.6046 0.9943,0.6017 0.9914,0.6017 0.9886,0.6017 0.9857,0.6017 0.9829,0.6017 0.9800,0.6017 0.9771,0.6017 0.9714,0.6017 0.9657,0.6017 0.9629,0.6046 0.9600,0.6046 0.9543,0.6074 0.9457,0.6160 0.9429,0.6160 0.9371,0.6160 0.9343,0.6189 0.9314,0.6189 0.9257,0.6189 0.9200,0.6218 0.9143,0.6218 0.9114,0.6218 0.9029,0.6218 0.8971,0.6246 0.8886,0.6246 0.8829,0.6246 0.8743,0.6246 0.8686,0.6246 0.8543,0.6246 0.8514,0.6246 0.8429,0.6246 0.8229,0.6218 0.8143,0.6218 0.8057,0.6160 0.7886,0.6160 0.7743,0.6132 0.7686,0.6132 0.7600,0.6103 0.7457,0.6103 0.7429,0.6103 0.7371,0.6074 0.7257,0.6074 0.7143,0.6074 0.7114,0.6046 0.7029,0.6046 0.6943,0.5989 0.6886,0.5989 0.6857,0.5989 0.6714,0.5960 0.6686,0.5960 0.6657,0.5931 0.6514,0.5931 0.6486,0.5931 0.6429,0.5903 0.6371,0.5903 0.6343,0.5903 0.6314,0.5903 0.6286,0.5903 0.6257,0.5903 0.6200,0.5903 0.6114,0.5903 0.6086,0.5903 0.6029,0.5903 0.6000,0.5903 0.5943,0.5903 0.5914,0.5903 0.5886,0.5903 0.5857,0.5903 0.5829,0.5903 0.5800,0.5903 0.5771,0.5903 0.5714,0.5903 0.5686,0.5903 0.5686,0.5874 0.5686,0.5817 0.5714,0.5788 0.5714,0.5759 0.5714,0.5731 0.5771,0.5673 0.5800,0.5587 0.5800,0.5559 0.5829,0.5473 0.5857,0.5444 0.5857,0.5358 0.5857,0.5301 0.5857,0.5215 0.5914,0.5129 0.5943,0.4986 0.5943,0.4928 0.5943,0.4814 0.5943,0.4785 0.5971,0.4670 0.5971,0.4585 0.5971,0.4298 0.5971,0.4269 0.5971,0.4155 0.5971,0.3954 0.5971,0.3926 0.5971,0.3782 0.5971,0.3668 0.5971,0.3553 0.5971,0.3410 0.5971,0.3352 0.5971,0.3152 0.5971,0.3066 0.5971,0.2951 0.5971,0.2865 0.5971,0.2837 0.5971,0.2636 0.5971,0.2579 0.5971,0.2493 0.5971,0.2206 0.5971,0.2178 0.5971,0.1948 0.5971,0.1891 0.5971,0.1777 0.5971,0.1719 0.5971,0.1691 0.5971,0.1633 0.5971,0.1576 0.5971,0.1433 0.5971,0.1404 0.5971,0.1232 0.5971,0.1203 0.5971,0.1175 0.6000,0.1089 0.6000,0.1060 0.6000,0.1032 0.6000,0.1003 0.6029,0.0974 0.6029,0.0888 0.6029,0.0831 0.6029,0.0802 0.6029,0.0774 0.6086,0.0745 0.6086,0.0716 0.6086,0.0630 0.6086,0.0602 0.6086,0.0544 0.6114,0.0516 0.6114,0.0458 0.6114,0.0430 0.6114,0.0372 0.6114,0.0344 0.6114,0.0315 0.6114,0.0287 0.6114,0.0258 0.6114,0.0229 0.6114,0.0201 0.6114,0.0143 0.6114,0.0115 0.6086,0.0115 0.6029,0.0115 0.6000,0.0115 0.5971,0.0115 0.5943,0.0115 0.5914,0.0115 0.5886,0.0115 0.5800,0.0115 0.5771,0.0115 0.5686,0.0115 0.5657,0.0115 0.5629,0.0115 0.5600,0.0115 0.5543,0.0086 0.5514,0.0086 0.5486,0.0086 0.5457,0.0057 0.5429,0.0057 0.5400,0.0057 0.5371,0.0057 0.5314,0.0057 0.5257,0.0057 0.5229,0.0057 0.5171,0.0057 0.5143,0.0057 0.5086,0.0057 0.5057,0.0057 0.5000,0.0057 0.4971,0.0057 0.4943,0.0057 0.4857,0.0057 0.4829,0.0057 0.4800,0.0057 0.4771,0.0057 0.4714,0.0057 0.4686,0.0057 0.4600,0.0057 0.4457,0.0057 0.4343,0.0057 0.4229,0.0057 0.4200,0.0057 0.4114,0.0057 0.4086,0.0057 0.4029,0.0057 0.3971,0.0057 0.3914,0.0057 0.3886,0.0057 0.3857,0.0057 0.3829,0.0057 0.3800,0.0057 0.3771,0.0057 0.3714,0.0057 0.3686,0.0057 0.3657,0.0057 0.3629,0.0057 T0.3600,0.0057" />
</g>
</svg>