<svg width="12cm" height="12cm" viewBox="0 0 1 1">
<g id="BlueFish" type="iconel" clip-path="url(#ClipPath)" >
<g type="clip-iconel" clip-rule="nonzero" >
<clipPath id="ClipPath" >
	<path type="line" fill="none" point-count="1055" stroke="rgb(255,0,0)" stroke-width="0.020" d="M1.0000,0.1948 L0.9771,0.1948 0.9743,0.1948 0.9714,0.1977 0.9686,0.1977 0.9657,0.2006 0.9629,0.2034 0.9629,0.2063 0.9600,0.2063 0.9571,0.2063 0.9543,0.2092 0.9514,0.2120 0.9486,0.2149 0.9457,0.2149 0.9429,0.2178 0.9400,0.2206 0.9371,0.2206 0.9343,0.2235 0.9314,0.2264 0.9314,0.2292 0.9286,0.2321 0.9257,0.2321 0.9229,0.2350 0.9200,0.2350 0.9171,0.2378 0.9143,0.2407 0.9143,0.2436 0.9114,0.2436 0.9114,0.2464 0.9057,0.2493 0.9029,0.2521 0.9000,0.2550 0.9000,0.2579 0.8971,0.2607 0.8971,0.2636 0.8914,0.2693 0.8886,0.2722 0.8857,0.2751 0.8829,0.2751 0.8800,0.2779 0.8771,0.2808 0.8743,0.2837 0.8714,0.2865 0.8714,0.2894 0.8686,0.2894 0.8657,0.2951 0.8629,0.2980 0.8600,0.3009 0.8600,0.3037 0.8600,0.3066 0.8600,0.3095 0.8571,0.3095 0.8543,0.3123 0.8514,0.3152 0.8486,0.3181 0.8486,0.3209 0.8457,0.3209 0.8429,0.3266 0.8400,0.3295 0.8371,0.3324 0.8343,0.3352 0.8314,0.3381 0.8286,0.3410 0.8286,0.3438 0.8257,0.3438 0.8257,0.3467 0.8229,0.3496 0.8200,0.3524 0.8171,0.3553 0.8143,0.3553 0.8143,0.3582 0.8114,0.3582 0.8086,0.3610 0.8057,0.3639 0.8029,0.3639 0.8029,0.3668 0.8000,0.3668 0.7971,0.3696 0.7971,0.3725 0.7943,0.3725 0.7914,0.3725 0.7886,0.3754 0.7857,0.3754 0.7857,0.3782 0.7829,0.3782 0.7829,0.3811 0.7800,0.3811 0.7771,0.3811 0.7771,0.3840 0.7743,0.3840 0.7714,0.3868 0.7686,0.3868 0.7686,0.3897 0.7686,0.3926 0.7657,0.3926 0.7657,0.3954 0.7629,0.3954 0.7600,0.3954 0.7600,0.3983 0.7571,0.3983 0.7571,0.4011 0.7543,0.4011 0.7543,0.3983 0.7514,0.3954 0.7486,0.3926 0.7457,0.3897 0.7429,0.3868 0.7400,0.3840 0.7400,0.3811 0.7400,0.3782 0.7400,0.3754 0.7371,0.3754 0.7371,0.3725 0.7343,0.3725 0.7314,0.3696 0.7314,0.3668 0.7286,0.3668 0.7286,0.3639 0.7257,0.3639 0.7257,0.3610 0.7257,0.3582 0.7229,0.3582 0.7229,0.3553 0.7200,0.3553 0.7200,0.3524 0.7171,0.3524 0.7171,0.3496 0.7143,0.3496 0.7143,0.3467 0.7114,0.3438 0.7114,0.3410 0.7086,0.3410 0.7086,0.3381 0.7057,0.3381 0.7057,0.3352 0.7029,0.3352 0.7029,0.3324 0.7000,0.3324 0.6971,0.3324 0.6971,0.3295 0.6943,0.3295 0.6943,0.3266 0.6914,0.3238 0.6886,0.3209 0.6857,0.3181 0.6829,0.3152 0.6829,0.3123 0.6800,0.3123 0.6771,0.3095 0.6743,0.3095 0.6714,0.3066 0.6686,0.3066 0.6657,0.3037 0.6629,0.3009 0.6600,0.3009 0.6600,0.2980 0.6571,0.2980 0.6543,0.2951 0.6514,0.2894 0.6486,0.2894 0.6457,0.2894 0.6457,0.2865 0.6400,0.2865 0.6400,0.2837 0.6371,0.2837 0.6343,0.2837 0.6314,0.2837 0.6286,0.2808 0.6257,0.2808 0.6200,0.2808 0.6200,0.2779 0.6171,0.2779 0.6143,0.2751 0.6086,0.2751 0.6057,0.2722 0.6029,0.2722 0.6000,0.2722 0.5971,0.2693 0.5943,0.2693 0.5914,0.2665 0.5886,0.2665 0.5857,0.2665 0.5857,0.2636 0.5829,0.2636 0.5800,0.2607 0.5771,0.2607 0.5743,0.2607 0.5743,0.2579 0.5657,0.2579 0.5629,0.2579 0.5600,0.2579 0.5543,0.2579 0.5514,0.2579 0.5457,0.2550 0.5429,0.2550 0.5400,0.2550 0.5371,0.2550 0.5314,0.2521 0.5286,0.2521 0.5257,0.2521 0.5200,0.2521 0.5171,0.2521 0.5114,0.2521 0.5114,0.2493 0.5057,0.2493 0.5000,0.2493 0.4943,0.2493 0.4914,0.2464 0.4857,0.2464 0.4829,0.2464 0.4771,0.2464 0.4743,0.2436 0.4686,0.2436 0.4657,0.2436 0.4629,0.2436 0.4600,0.2407 0.4543,0.2407 0.4514,0.2407 0.4457,0.2407 0.4429,0.2407 0.4371,0.2407 0.4314,0.2407 0.4286,0.2407 0.4257,0.2407 0.4229,0.2407 0.4171,0.2407 0.4143,0.2407 0.4114,0.2407 0.4086,0.2407 0.4029,0.2407 0.4000,0.2407 0.4000,0.2436 0.3943,0.2436 0.3914,0.2436 0.3857,0.2436 0.3800,0.2464 0.3771,0.2464 0.3743,0.2464 0.3714,0.2464 0.3686,0.2464 0.3657,0.2493 0.3629,0.2493 0.3600,0.2493 0.3543,0.2521 0.3514,0.2521 0.3457,0.2521 0.3429,0.2550 0.3371,0.2579 0.3343,0.2579 0.3286,0.2607 0.3257,0.2607 0.3200,0.2636 0.3143,0.2665 0.3114,0.2665 0.3086,0.2665 0.3086,0.2693 0.3029,0.2693 0.3029,0.2722 0.3000,0.2722 0.2943,0.2751 0.2914,0.2751 0.2886,0.2779 0.2829,0.2779 0.2800,0.2808 0.2771,0.2808 0.2714,0.2837 0.2686,0.2837 0.2657,0.2865 0.2600,0.2865 0.2600,0.2894 0.2543,0.2894 0.2514,0.2923 0.2486,0.2923 0.2457,0.2951 0.2429,0.2951 0.2400,0.2980 0.2371,0.2980 0.2314,0.3009 0.2286,0.3009 0.2286,0.3037 0.2257,0.3037 0.2200,0.3037 0.2171,0.3066 0.2143,0.3066 0.2086,0.3095 0.2057,0.3095 0.2029,0.3123 0.2000,0.3123 0.1971,0.3152 0.1943,0.3152 0.1914,0.3181 0.1886,0.3181 0.1857,0.3181 0.1829,0.3181 0.1800,0.3209 0.1771,0.3209 0.1743,0.3238 0.1657,0.3238 0.1657,0.3266 0.1600,0.3295 0.1571,0.3295 0.1514,0.3324 0.1486,0.3324 0.1486,0.3352 0.1457,0.3352 0.1457,0.3381 0.1400,0.3410 0.1371,0.3438 0.1343,0.3438 0.1343,0.3467 0.1314,0.3496 0.1286,0.3496 0.1257,0.3496 0.1229,0.3524 0.1200,0.3553 0.1171,0.3582 0.1143,0.3582 0.1086,0.3639 0.1086,0.3668 0.1057,0.3696 0.1029,0.3696 0.1000,0.3725 0.0971,0.3754 0.0943,0.3782 0.0943,0.3811 0.0914,0.3840 0.0886,0.3868 0.0857,0.3868 0.0857,0.3897 0.0829,0.3926 0.0829,0.3954 0.0800,0.3983 0.0800,0.4011 0.0800,0.4040 0.0771,0.4069 0.0743,0.4097 0.0714,0.4097 0.0714,0.4155 0.0686,0.4183 0.0657,0.4212 0.0657,0.4241 0.0657,0.4269 0.0629,0.4327 0.0629,0.4355 0.0600,0.4384 0.0600,0.4441 0.0571,0.4470 0.0571,0.4499 0.0543,0.4499 0.0543,0.4556 0.0514,0.4585 0.0514,0.4613 0.0514,0.4642 0.0514,0.4670 0.0486,0.4728 0.0486,0.4756 0.0457,0.4814 0.0457,0.4842 0.0457,0.4900 0.0457,0.4928 0.0457,0.4957 0.0457,0.4986 0.0429,0.5043 0.0429,0.5072 0.0429,0.5100 0.0429,0.5129 0.0429,0.5186 0.0429,0.5244 0.0429,0.5272 0.0429,0.5301 0.0429,0.5330 0.0429,0.5387 0.0429,0.5415 0.0429,0.5444 0.0457,0.5530 0.0457,0.5559 0.0486,0.5587 0.0486,0.5616 0.0486,0.5645 0.0486,0.5673 0.0486,0.5702 0.0486,0.5731 0.0486,0.5759 0.0514,0.5788 0.0514,0.5817 0.0543,0.5874 0.0543,0.5903 0.0543,0.5931 0.0571,0.5960 0.0600,0.5960 0.0600,0.5989 0.0629,0.6017 0.0629,0.6046 0.0657,0.6046 0.0657,0.6074 0.0686,0.6074 0.0686,0.6103 0.0714,0.6103 0.0714,0.6132 0.0743,0.6132 0.0743,0.6160 0.0743,0.6189 0.0743,0.6218 0.0771,0.6218 0.0771,0.6246 0.0800,0.6246 0.0800,0.6275 0.0829,0.6275 0.0857,0.6304 0.0886,0.6304 0.0886,0.6332 0.0914,0.6332 0.0943,0.6332 0.0943,0.6361 0.0971,0.6361 0.1000,0.6390 0.1000,0.6418 0.1057,0.6418 0.1057,0.6447 0.1086,0.6476 0.1114,0.6476 0.1114,0.6504 0.1143,0.6504 0.1171,0.6504 0.1171,0.6533 0.1200,0.6533 0.1229,0.6562 0.1257,0.6590 0.1286,0.6590 0.1314,0.6619 0.1343,0.6648 0.1371,0.6676 0.1429,0.6705 0.1429,0.6734 0.1457,0.6762 0.1486,0.6762 0.1514,0.6762 0.1543,0.6791 0.1571,0.6791 0.1600,0.6791 0.1657,0.6819 0.1686,0.6819 0.1743,0.6848 0.1771,0.6877 0.1829,0.6877 0.1829,0.6905 0.1857,0.6905 0.1886,0.6905 0.1943,0.6934 0.2000,0.6963 0.2029,0.6963 0.2057,0.6963 0.2114,0.6963 0.2143,0.6963 0.2171,0.6963 0.2200,0.6963 0.2229,0.6963 0.2257,0.6991 0.2286,0.6991 0.2314,0.6991 0.2343,0.6991 0.2371,0.6991 0.2400,0.6991 0.2429,0.6991 0.2457,0.6991 0.2486,0.6991 0.2514,0.6991 0.2543,0.6991 0.2571,0.6991 0.2629,0.6991 0.2657,0.6991 0.2686,0.6991 0.2714,0.6991 0.2743,0.6991 0.2771,0.6991 0.2800,0.6991 0.2829,0.6991 0.2857,0.6991 0.2886,0.6991 0.2914,0.6991 0.2943,0.6991 0.2971,0.6991 0.3000,0.6991 0.3029,0.6991 0.3057,0.6991 0.3086,0.6991 0.3114,0.6991 0.3143,0.6991 0.3171,0.6991 0.3200,0.6991 0.3229,0.6991 0.3229,0.6963 0.3257,0.6963 0.3286,0.6963 0.3314,0.6963 0.3343,0.6963 0.3371,0.6963 0.3400,0.6963 0.3429,0.6963 0.3457,0.6991 0.3486,0.7020 0.3514,0.7049 0.3543,0.7049 0.3571,0.7077 0.3571,0.7106 0.3600,0.7135 0.3629,0.7163 0.3657,0.7192 0.3657,0.7221 0.3686,0.7221 0.3714,0.7307 0.3743,0.7364 0.3771,0.7364 0.3829,0.7421 0.3857,0.7450 0.3886,0.7479 0.3914,0.7479 0.3914,0.7507 0.3943,0.7536 0.3971,0.7564 0.4000,0.7593 0.4029,0.7622 0.4057,0.7650 0.4057,0.7679 0.4086,0.7708 0.4114,0.7736 0.4143,0.7765 0.4200,0.7822 0.4229,0.7822 0.4257,0.7822 0.4286,0.7851 0.4314,0.7880 0.4343,0.7908 0.4371,0.7937 0.4400,0.7937 0.4429,0.7966 0.4457,0.7994 0.4486,0.7994 0.4543,0.8023 0.4600,0.8023 0.4629,0.8052 0.4686,0.8052 0.4714,0.8080 0.4771,0.8080 0.4800,0.8080 0.4829,0.8109 0.4857,0.8109 0.4914,0.8138 0.4971,0.8138 0.5000,0.8138 0.5029,0.8138 0.5057,0.8138 0.5086,0.8138 0.5114,0.8138 0.5143,0.8138 0.5171,0.8138 0.5200,0.8138 0.5229,0.8138 0.5286,0.8138 0.5314,0.8138 0.5343,0.8138 0.5371,0.8138 0.5400,0.8138 0.5400,0.8109 0.5429,0.8109 0.5457,0.8109 0.5486,0.8109 0.5514,0.8109 0.5543,0.8109 0.5571,0.8109 0.5600,0.8109 0.5629,0.8109 0.5657,0.8109 0.5686,0.8109 0.5714,0.8109 0.5743,0.8109 0.5771,0.8109 0.5800,0.8109 0.5829,0.8109 0.5857,0.8109 0.5886,0.8109 0.5886,0.8080 0.5886,0.8052 0.5857,0.8052 0.5857,0.8023 0.5829,0.8023 0.5829,0.7994 0.5829,0.7966 0.5829,0.7937 0.5800,0.7937 0.5800,0.7908 0.5771,0.7880 0.5743,0.7880 0.5743,0.7851 0.5714,0.7851 0.5714,0.7822 0.5686,0.7822 0.5686,0.7794 0.5657,0.7765 0.5629,0.7736 0.5600,0.7708 0.5600,0.7679 0.5571,0.7650 0.5543,0.7622 0.5543,0.7593 0.5514,0.7564 0.5514,0.7536 0.5486,0.7536 0.5486,0.7507 0.5486,0.7479 0.5457,0.7479 0.5457,0.7450 0.5457,0.7421 0.5457,0.7393 0.5457,0.7364 0.5429,0.7335 0.5429,0.7307 0.5429,0.7278 0.5429,0.7249 0.5429,0.7221 0.5429,0.7192 0.5429,0.7163 0.5429,0.7135 0.5429,0.7106 0.5429,0.7077 0.5429,0.7049 0.5429,0.7020 0.5429,0.6991 0.5429,0.6963 0.5429,0.6934 0.5429,0.6905 0.5457,0.6905 0.5457,0.6877 0.5457,0.6848 0.5457,0.6819 0.5486,0.6819 0.5486,0.6791 0.5486,0.6762 0.5486,0.6734 0.5514,0.6734 0.5543,0.6734 0.5543,0.6705 0.5571,0.6705 0.5600,0.6705 0.5600,0.6676 0.5629,0.6676 0.5657,0.6676 0.5686,0.6676 0.5714,0.6676 0.5743,0.6676 0.5771,0.6676 0.5800,0.6676 0.5829,0.6676 0.5829,0.6648 0.5857,0.6648 0.5886,0.6648 0.5914,0.6648 0.5943,0.6648 0.5943,0.6619 0.5971,0.6619 0.6000,0.6619 0.6029,0.6619 0.6029,0.6590 0.6057,0.6590 0.6086,0.6590 0.6086,0.6562 0.6114,0.6562 0.6143,0.6562 0.6143,0.6533 0.6171,0.6533 0.6200,0.6504 0.6229,0.6504 0.6257,0.6504 0.6257,0.6476 0.6286,0.6476 0.6314,0.6476 0.6314,0.6447 0.6343,0.6447 0.6371,0.6447 0.6400,0.6447 0.6429,0.6447 0.6457,0.6447 0.6457,0.6418 0.6486,0.6418 0.6514,0.6418 0.6543,0.6418 0.6543,0.6390 0.6571,0.6390 0.6600,0.6390 0.6629,0.6390 0.6629,0.6361 0.6657,0.6361 0.6686,0.6361 0.6686,0.6332 0.6714,0.6332 0.6714,0.6304 0.6743,0.6304 0.6771,0.6275 0.6800,0.6275 0.6829,0.6275 0.6829,0.6246 0.6857,0.6246 0.6886,0.6218 0.6914,0.6218 0.6943,0.6218 0.6943,0.6189 0.6971,0.6189 0.7000,0.6160 0.7029,0.6160 0.7057,0.6132 0.7086,0.6132 0.7086,0.6103 0.7114,0.6103 0.7114,0.6074 0.7143,0.6074 0.7171,0.6046 0.7200,0.6017 0.7229,0.5989 0.7257,0.5989 0.7286,0.5989 0.7286,0.5960 0.7286,0.5931 0.7314,0.5931 0.7314,0.5903 0.7343,0.5903 0.7371,0.5903 0.7371,0.5874 0.7400,0.5874 0.7400,0.5845 0.7429,0.5845 0.7457,0.5845 0.7486,0.5845 0.7486,0.5817 0.7514,0.5817 0.7514,0.5788 0.7543,0.5788 0.7543,0.5759 0.7571,0.5759 0.7571,0.5731 0.7600,0.5731 0.7629,0.5731 0.7657,0.5731 0.7657,0.5759 0.7686,0.5759 0.7686,0.5788 0.7714,0.5817 0.7714,0.5845 0.7743,0.5845 0.7771,0.5903 0.7800,0.5903 0.7829,0.5960 0.7857,0.5989 0.7886,0.6017 0.7886,0.6046 0.7886,0.6074 0.7914,0.6103 0.7914,0.6160 0.7914,0.6189 0.7914,0.6218 0.7914,0.6246 0.7943,0.6275 0.7943,0.6304 0.7943,0.6332 0.7943,0.6361 0.7971,0.6361 0.7971,0.6390 0.7971,0.6418 0.7971,0.6447 0.7971,0.6476 0.7971,0.6504 0.8000,0.6504 0.8000,0.6533 0.8000,0.6562 0.8000,0.6590 0.8029,0.6590 0.8057,0.6590 0.8057,0.6619 0.8086,0.6648 0.8086,0.6676 0.8114,0.6676 0.8143,0.6705 0.8143,0.6734 0.8171,0.6734 0.8171,0.6762 0.8200,0.6762 0.8200,0.6791 0.8200,0.6819 0.8229,0.6848 0.8229,0.6877 0.8257,0.6877 0.8286,0.6905 0.8314,0.6934 0.8343,0.6963 0.8371,0.6991 0.8400,0.7020 0.8429,0.7049 0.8457,0.7077 0.8486,0.7106 0.8514,0.7106 0.8514,0.7135 0.8543,0.7163 0.8571,0.7163 0.8600,0.7192 0.8629,0.7192 0.8657,0.7221 0.8686,0.7221 0.8686,0.7249 0.8714,0.7249 0.8771,0.7307 0.8829,0.7335 0.8857,0.7364 0.8886,0.7364 0.8886,0.7393 0.8914,0.7393 0.8943,0.7421 0.8971,0.7421 0.8971,0.7450 0.8971,0.7479 0.9000,0.7479 0.9000,0.7507 0.9029,0.7507 0.9029,0.7536 0.9057,0.7536 0.9086,0.7564 0.9114,0.7593 0.9143,0.7593 0.9200,0.7622 0.9229,0.7622 0.9257,0.7650 0.9286,0.7650 0.9314,0.7650 0.9314,0.7679 0.9343,0.7679 0.9371,0.7679 0.9371,0.7708 0.9400,0.7708 0.9429,0.7708 0.9457,0.7708 0.9486,0.7708 0.9486,0.7736 0.9514,0.7736 0.9543,0.7736 0.9571,0.7736 0.9571,0.7765 0.9600,0.7765 0.9629,0.7765 0.9657,0.7765 0.9686,0.7765 0.9686,0.7794 0.9714,0.7794 0.9743,0.7794 0.9771,0.7794 0.9800,0.7794 0.9829,0.7794 0.9829,0.7765 0.9800,0.7765 0.9800,0.7736 0.9771,0.7736 0.9771,0.7708 0.9743,0.7679 0.9743,0.7650 0.9714,0.7650 0.9714,0.7622 0.9686,0.7622 0.9657,0.7593 0.9657,0.7564 0.9629,0.7536 0.9629,0.7507 0.9629,0.7479 0.9629,0.7450 0.9600,0.7421 0.9600,0.7393 0.9600,0.7364 0.9571,0.7335 0.9543,0.7335 0.9543,0.7307 0.9543,0.7278 0.9543,0.7249 0.9514,0.7249 0.9514,0.7221 0.9514,0.7192 0.9486,0.7192 0.9486,0.7163 0.9486,0.7135 0.9486,0.7106 0.9457,0.7077 0.9457,0.7049 0.9457,0.7020 0.9429,0.6991 0.9429,0.6963 0.9400,0.6963 0.9400,0.6934 0.9400,0.6905 0.9400,0.6877 0.9400,0.6848 0.9400,0.6819 0.9400,0.6791 0.9371,0.6762 0.9371,0.6734 0.9371,0.6705 0.9371,0.6676 0.9343,0.6648 0.9343,0.6619 0.9343,0.6590 0.9343,0.6562 0.9314,0.6533 0.9314,0.6504 0.9314,0.6476 0.9314,0.6447 0.9314,0.6418 0.9314,0.6390 0.9314,0.6361 0.9314,0.6332 0.9314,0.6304 0.9314,0.6275 0.9314,0.6246 0.9286,0.6218 0.9286,0.6189 0.9286,0.6160 0.9286,0.6132 0.9286,0.6103 0.9286,0.6074 0.9286,0.6046 0.9286,0.5989 0.9286,0.5960 0.9286,0.5931 0.9286,0.5903 0.9286,0.5874 0.9286,0.5845 0.9286,0.5817 0.9286,0.5788 0.9286,0.5759 0.9286,0.5731 0.9286,0.5702 0.9286,0.5645 0.9286,0.5616 0.9286,0.5587 0.9286,0.5559 0.9286,0.5530 0.9286,0.5501 0.9286,0.5473 0.9286,0.5444 0.9314,0.5415 0.9314,0.5387 0.9314,0.5358 0.9314,0.5330 0.9314,0.5301 0.9314,0.5272 0.9314,0.5244 0.9314,0.5186 0.9314,0.5158 0.9314,0.5100 0.9314,0.5072 0.9343,0.5043 0.9343,0.5014 0.9343,0.4957 0.9343,0.4928 0.9343,0.4900 0.9371,0.4871 0.9371,0.4842 0.9371,0.4814 0.9371,0.4756 0.9371,0.4728 0.9371,0.4670 0.9371,0.4642 0.9371,0.4613 0.9371,0.4585 0.9400,0.4527 0.9400,0.4499 0.9400,0.4470 0.9400,0.4441 0.9400,0.4413 0.9400,0.4355 0.9400,0.4327 0.9400,0.4298 0.9400,0.4269 0.9429,0.4212 0.9429,0.4183 0.9429,0.4155 0.9457,0.4126 0.9457,0.4097 0.9457,0.4069 0.9486,0.4040 0.9486,0.4011 0.9486,0.3983 0.9486,0.3954 0.9486,0.3926 0.9486,0.3897 0.9486,0.3868 0.9514,0.3811 0.9514,0.3782 0.9514,0.3754 0.9514,0.3725 0.9543,0.3696 0.9543,0.3668 0.9543,0.3639 0.9543,0.3610 0.9543,0.3553 0.9543,0.3524 0.9543,0.3496 0.9571,0.3496 0.9571,0.3467 0.9571,0.3438 0.9571,0.3410 0.9571,0.3381 0.9600,0.3381 0.9600,0.3352 0.9600,0.3324 0.9600,0.3295 0.9600,0.3266 0.9600,0.3238 0.9629,0.3238 0.9629,0.3209 0.9629,0.3181 0.9629,0.3152 0.9629,0.3123 0.9629,0.3095 0.9657,0.3066 0.9657,0.3037 0.9657,0.3009 0.9657,0.2980 0.9657,0.2951 0.9686,0.2923 0.9686,0.2894 0.9686,0.2865 0.9686,0.2837 0.9686,0.2808 0.9714,0.2779 0.9714,0.2751 0.9714,0.2722 0.9714,0.2693 0.9714,0.2665 0.9714,0.2636 0.9714,0.2607 0.9714,0.2579 0.9714,0.2550 0.9714,0.2521 0.9714,0.2493 0.9714,0.2464 0.9743,0.2464 0.9743,0.2436 0.9743,0.2407 0.9743,0.2378 0.9771,0.2378 0.9771,0.2350 0.9800,0.2350 0.9800,0.2321 0.9829,0.2321 0.9829,0.2292 0.9857,0.2292 0.9857,0.2264 0.9886,0.2264 0.9886,0.2235 0.9914,0.2235 0.9914,0.2206 T1.0000,0.2206" />
</clipPath>
</g>
<g type="background-iconel" >
	<rect type="rectangle" x="0.000" y="0.000" width="1.000" height="1.000" fill="rgb(128,128,255)" stroke="rgb(128,128,255)" stroke-width="0.010" />
</g>
	<path type="line" fill="none" point-count="123" stroke="rgb(0,0,0)" stroke-width="0.010" d="M0.1629,0.4212 L0.1629,0.4212 0.1629,0.4183 0.1657,0.4183 0.1657,0.4155 0.1686,0.4126 0.1714,0.4097 0.1743,0.4040 0.1771,0.4011 0.1771,0.3983 0.1800,0.3954 0.1829,0.3926 0.1829,0.3897 0.1857,0.3897 0.1857,0.3868 0.1886,0.3868 0.1886,0.3840 0.1914,0.3811 0.1943,0.3782 0.1943,0.3754 0.1971,0.3754 0.1971,0.3725 0.2000,0.3725 0.2000,0.3696 0.2029,0.3668 0.2057,0.3668 0.2086,0.3639 0.2114,0.3639 0.2143,0.3610 0.2171,0.3610 0.2200,0.3610 0.2229,0.3610 0.2257,0.3610 0.2286,0.3610 0.2314,0.3610 0.2314,0.3639 0.2343,0.3639 0.2343,0.3668 0.2371,0.3668 0.2400,0.3668 0.2400,0.3696 0.2429,0.3696 0.2429,0.3725 0.2457,0.3754 0.2457,0.3782 0.2486,0.3782 0.2514,0.3782 0.2514,0.3811 0.2543,0.3811 0.2543,0.3840 0.2571,0.3840 0.2571,0.3868 0.2571,0.3897 0.2600,0.3897 0.2600,0.3926 0.2600,0.3954 0.2600,0.3983 0.2600,0.4011 0.2600,0.4040 0.2600,0.4069 0.2600,0.4097 0.2571,0.4097 0.2571,0.4126 0.2571,0.4155 0.2543,0.4155 0.2543,0.4183 0.2543,0.4212 0.2514,0.4212 0.2486,0.4241 0.2486,0.4269 0.2457,0.4269 0.2457,0.4298 0.2429,0.4298 0.2429,0.4327 0.2429,0.4355 0.2400,0.4355 0.2400,0.4384 0.2371,0.4384 0.2343,0.4384 0.2343,0.4413 0.2314,0.4413 0.2286,0.4441 0.2257,0.4441 0.2229,0.4441 0.2200,0.4441 0.2171,0.4441 0.2143,0.4441 0.2114,0.4441 0.2086,0.4441 0.2057,0.4441 0.2029,0.4441 0.2000,0.4441 0.1971,0.4441 0.1943,0.4441 0.1914,0.4441 0.1886,0.4441 0.1857,0.4441 0.1857,0.4413 0.1829,0.4413 0.1800,0.4413 0.1771,0.4413 0.1771,0.4384 0.1743,0.4384 0.1743,0.4355 0.1714,0.4355 0.1714,0.4327 0.1686,0.4327 0.1686,0.4298 0.1657,0.4298 0.1657,0.4269 0.1657,0.4241 0.1657,0.4212 0.1657,0.4183 0.1657,0.4155 0.1657,0.4126 0.1657,0.4097 0.1657,0.4069 0.1657,0.4040 0.1686,0.4011 0.1686,0.3983 0.1714,0.3954 0.1714,0.3926 0.1743,0.3926 T0.1743,0.3897" />
	<path type="line" fill="none" point-count="66" stroke="rgb(0,0,0)" stroke-width="0.010" d="M0.0543,0.5645 L0.0543,0.5645 0.0571,0.5645 0.0600,0.5645 0.0629,0.5645 0.0629,0.5673 0.0657,0.5673 0.0657,0.5702 0.0686,0.5702 0.0714,0.5702 0.0743,0.5702 0.0771,0.5731 0.0800,0.5731 0.0829,0.5731 0.0857,0.5731 0.0886,0.5731 0.0914,0.5731 0.0943,0.5731 0.0971,0.5759 0.1000,0.5759 0.1029,0.5759 0.1057,0.5759 0.1114,0.5759 0.1143,0.5759 0.1171,0.5759 0.1200,0.5759 0.1257,0.5759 0.1286,0.5759 0.1314,0.5759 0.1343,0.5759 0.1371,0.5731 0.1400,0.5731 0.1429,0.5731 0.1457,0.5731 0.1457,0.5702 0.1486,0.5702 0.1514,0.5673 0.1543,0.5673 0.1571,0.5645 0.1600,0.5645 0.1657,0.5616 0.1657,0.5587 0.1714,0.5587 0.1743,0.5587 0.1771,0.5587 0.1800,0.5559 0.1829,0.5559 0.1829,0.5530 0.1857,0.5501 0.1857,0.5473 0.1886,0.5473 0.1914,0.5444 0.1971,0.5415 0.1971,0.5387 0.2029,0.5330 0.2057,0.5301 0.2057,0.5272 0.2086,0.5272 0.2086,0.5244 0.2114,0.5215 0.2143,0.5215 0.2143,0.5186 0.2171,0.5186 0.2171,0.5158 0.2171,0.5129 0.2200,0.5129 T0.2171,0.5129" />
	<path type="line" fill="none" point-count="26" stroke="rgb(0,0,0)" stroke-width="0.010" d="M0.3200,0.4986 L0.3200,0.4986 0.3229,0.4986 0.3229,0.5014 0.3229,0.5043 0.3229,0.5072 0.3229,0.5100 0.3229,0.5129 0.3229,0.5158 0.3229,0.5186 0.3229,0.5215 0.3229,0.5244 0.3229,0.5272 0.3229,0.5301 0.3229,0.5330 0.3229,0.5358 0.3229,0.5387 0.3229,0.5415 0.3200,0.5415 0.3171,0.5444 0.3171,0.5473 0.3143,0.5501 0.3114,0.5530 0.3086,0.5559 0.3057,0.5559 0.3029,0.5559 T0.3000,0.5587" />
	<path type="line" fill="none" point-count="17" stroke="rgb(0,0,0)" stroke-width="0.010" d="M0.3600,0.5072 L0.3600,0.5072 0.3600,0.5100 0.3600,0.5129 0.3600,0.5158 0.3600,0.5186 0.3629,0.5244 0.3629,0.5272 0.3629,0.5330 0.3629,0.5358 0.3629,0.5387 0.3629,0.5415 0.3629,0.5473 0.3629,0.5501 0.3600,0.5559 0.3571,0.5616 0.3543,0.5645 T0.3514,0.5645" />
	<path type="line" fill="none" point-count="220" stroke="rgb(0,0,0)" stroke-width="0.010" d="M0.5057,0.5587 L0.5057,0.5587 0.5057,0.5616 0.5057,0.5645 0.5086,0.5645 0.5086,0.5673 0.5086,0.5702 0.5086,0.5731 0.5086,0.5759 0.5114,0.5759 0.5114,0.5788 0.5114,0.5817 0.5143,0.5817 0.5143,0.5874 0.5171,0.5903 0.5171,0.5931 0.5200,0.5931 0.5200,0.5960 0.5200,0.5989 0.5200,0.6017 0.5200,0.6046 0.5200,0.6074 0.5200,0.6103 0.5200,0.6132 0.5200,0.6189 0.5229,0.6218 0.5229,0.6246 0.5229,0.6275 0.5229,0.6304 0.5229,0.6332 0.5229,0.6361 0.5229,0.6390 0.5229,0.6418 0.5229,0.6447 0.5229,0.6476 0.5229,0.6504 0.5229,0.6533 0.5229,0.6562 0.5229,0.6590 0.5229,0.6619 0.5229,0.6648 0.5229,0.6676 0.5229,0.6705 0.5229,0.6734 0.5229,0.6762 0.5229,0.6791 0.5229,0.6819 0.5229,0.6848 0.5229,0.6877 0.5257,0.6877 0.5257,0.6905 0.5257,0.6934 0.5257,0.6963 0.5286,0.6963 0.5286,0.6991 0.5286,0.7020 0.5314,0.7020 0.5314,0.7049 0.5314,0.7077 0.5343,0.7077 0.5343,0.7106 0.5371,0.7106 0.5371,0.7135 0.5371,0.7163 0.5400,0.7192 0.5400,0.7221 0.5400,0.7249 0.5429,0.7278 0.5429,0.7307 0.5429,0.7335 0.5457,0.7335 0.5457,0.7364 0.5486,0.7393 0.5486,0.7421 0.5486,0.7450 0.5486,0.7479 0.5486,0.7507 0.5514,0.7507 0.5514,0.7536 0.5514,0.7564 0.5514,0.7593 0.5543,0.7593 0.5543,0.7622 0.5571,0.7650 0.5600,0.7650 0.5600,0.7679 0.5629,0.7679 0.5629,0.7708 0.5629,0.7736 0.5657,0.7765 0.5686,0.7765 0.5686,0.7794 0.5714,0.7794 0.5714,0.7822 0.5743,0.7822 0.5771,0.7851 0.5743,0.7851 0.5714,0.7851 0.5714,0.7822 0.5686,0.7822 0.5657,0.7822 0.5657,0.7794 0.5629,0.7794 0.5600,0.7794 0.5600,0.7765 0.5571,0.7736 0.5543,0.7679 0.5543,0.7650 0.5514,0.7622 0.5486,0.7593 0.5486,0.7564 0.5486,0.7536 0.5486,0.7507 0.5486,0.7479 0.5457,0.7450 0.5457,0.7421 0.5457,0.7393 0.5457,0.7364 0.5457,0.7335 0.5457,0.7307 0.5457,0.7278 0.5457,0.7249 0.5457,0.7221 0.5457,0.7192 0.5457,0.7163 0.5457,0.7135 0.5457,0.7106 0.5457,0.7077 0.5429,0.7077 0.5400,0.7077 0.5400,0.7106 0.5400,0.7135 0.5371,0.7192 0.5371,0.7221 0.5371,0.7249 0.5371,0.7278 0.5371,0.7307 0.5371,0.7364 0.5371,0.7393 0.5371,0.7421 0.5371,0.7450 0.5371,0.7507 0.5371,0.7536 0.5400,0.7564 0.5400,0.7593 0.5400,0.7622 0.5400,0.7650 0.5429,0.7650 0.5429,0.7679 0.5429,0.7708 0.5457,0.7708 0.5457,0.7736 0.5486,0.7765 0.5514,0.7765 0.5543,0.7765 0.5543,0.7794 0.5571,0.7794 0.5571,0.7822 0.5600,0.7822 0.5600,0.7851 0.5629,0.7851 0.5657,0.7851 0.5657,0.7880 0.5686,0.7880 0.5714,0.7880 0.5714,0.7908 0.5686,0.7908 0.5657,0.7937 0.5629,0.7937 0.5600,0.7937 0.5571,0.7937 0.5543,0.7937 0.5514,0.7937 0.5486,0.7966 0.5457,0.7966 0.5429,0.7966 0.5400,0.7966 0.5371,0.7966 0.5343,0.7966 0.5314,0.7966 0.5286,0.7966 0.5257,0.7966 0.5229,0.7966 0.5200,0.7966 0.5171,0.7966 0.5143,0.7937 0.5114,0.7937 0.5086,0.7937 0.5057,0.7937 0.5029,0.7937 0.5000,0.7937 0.4971,0.7937 0.4943,0.7937 0.4914,0.7908 0.4886,0.7908 0.4886,0.7880 0.4857,0.7880 0.4829,0.7851 0.4800,0.7851 0.4771,0.7822 0.4743,0.7822 0.4714,0.7794 0.4686,0.7794 0.4657,0.7765 0.4629,0.7765 0.4600,0.7765 0.4571,0.7736 0.4571,0.7708 0.4543,0.7708 0.4514,0.7679 0.4486,0.7679 0.4486,0.7650 0.4457,0.7650 0.4429,0.7650 0.4429,0.7622 0.4400,0.7622 0.4371,0.7593 0.4343,0.7593 0.4343,0.7564 0.4314,0.7564 T0.4314,0.7536" />
	<path type="line" fill="none" point-count="45" stroke="rgb(0,0,0)" stroke-width="0.010" d="M0.3486,0.6819 L0.3486,0.6819 0.3486,0.6848 0.3486,0.6877 0.3514,0.6877 0.3543,0.6905 0.3543,0.6934 0.3571,0.6963 0.3629,0.7049 0.3657,0.7077 0.3714,0.7135 0.3743,0.7163 0.3800,0.7249 0.3829,0.7278 0.3857,0.7335 0.3886,0.7364 0.3914,0.7421 0.3943,0.7450 0.3971,0.7479 0.4000,0.7507 0.4000,0.7536 0.4029,0.7536 0.4029,0.7593 0.4086,0.7593 0.4086,0.7622 0.4114,0.7622 0.4114,0.7650 0.4171,0.7679 0.4200,0.7708 0.4229,0.7708 0.4257,0.7736 0.4286,0.7765 0.4343,0.7794 0.4371,0.7822 0.4400,0.7851 0.4429,0.7851 0.4486,0.7880 0.4543,0.7908 0.4600,0.7966 0.4629,0.7966 0.4686,0.7994 0.4714,0.7994 0.4743,0.7994 0.4771,0.7994 0.4800,0.7994 T0.4829,0.7994" />
	<path type="line" fill="none" point-count="39" stroke="rgb(0,0,0)" stroke-width="0.010" d="M0.9571,0.2665 L0.9571,0.2665 0.9543,0.2665 0.9543,0.2693 0.9543,0.2722 0.9514,0.2751 0.9486,0.2779 0.9457,0.2779 0.9457,0.2808 0.9400,0.2865 0.9371,0.2894 0.9371,0.2923 0.9343,0.2923 0.9314,0.2980 0.9286,0.3009 0.9257,0.3066 0.9200,0.3123 0.9171,0.3152 0.9143,0.3181 0.9143,0.3238 0.9114,0.3295 0.9114,0.3324 0.9086,0.3381 0.9057,0.3438 0.9000,0.3496 0.9000,0.3524 0.8971,0.3553 0.8943,0.3610 0.8943,0.3668 0.8857,0.3725 0.8857,0.3754 0.8829,0.3840 0.8800,0.3954 0.8771,0.3983 0.8771,0.4040 0.8743,0.4097 0.8714,0.4126 0.8714,0.4155 0.8714,0.4212 T0.8686,0.4212" />
	<path type="line" fill="none" point-count="19" stroke="rgb(0,0,0)" stroke-width="0.010" d="M0.9229,0.4327 L0.9229,0.4327 0.9229,0.4355 0.9229,0.4384 0.9200,0.4413 0.9200,0.4441 0.9171,0.4470 0.9143,0.4499 0.9114,0.4556 0.9057,0.4613 0.9029,0.4699 0.9000,0.4699 0.8943,0.4814 0.8886,0.4871 0.8857,0.4900 0.8800,0.4957 0.8771,0.5043 0.8743,0.5072 0.8714,0.5072 T0.8686,0.5072" />
	<path type="line" fill="none" point-count="14" stroke="rgb(0,0,0)" stroke-width="0.010" d="M0.9029,0.5673 L0.9029,0.5673 0.9000,0.5673 0.8971,0.5673 0.8914,0.5673 0.8886,0.5702 0.8857,0.5702 0.8829,0.5702 0.8771,0.5702 0.8743,0.5731 0.8714,0.5731 0.8657,0.5731 0.8600,0.5731 0.8571,0.5759 T0.8543,0.5759" />
	<path type="line" fill="none" point-count="13" stroke="rgb(0,0,0)" stroke-width="0.010" d="M0.9143,0.6848 L0.9143,0.6848 0.9143,0.6877 0.9114,0.6877 0.9086,0.6877 0.9057,0.6877 0.9029,0.6877 0.8971,0.6848 0.8914,0.6819 0.8743,0.6648 0.8686,0.6619 0.8657,0.6590 0.8629,0.6590 T0.8629,0.6562" />
	<path type="line" fill="none" point-count="4" stroke="rgb(0,0,255)" stroke-width="0.040" d="M0.1857,0.4183 L0.1857,0.4183 0.1886,0.4183 0.1914,0.4183 T0.1886,0.4183" />
</g>
</svg>
