<svg width="12cm" height="12cm" viewBox="0 0 1 1">
<g id="Cat" type="iconel" clip-path="url(#ClipPath)" >
<g type="clip-iconel" clip-rule="nonzero" >
<clipPath id="ClipPath" >
	<path type="line" fill="none" point-count="789" stroke="rgb(255,0,0)" stroke-width="0.020" d="M0.8343,0.0000 L0.8314,0.0057 0.8286,0.0057 0.8257,0.0057 0.8229,0.0057 0.8200,0.0057 0.8171,0.0057 0.8143,0.0086 0.8114,0.0086 0.8086,0.0115 0.8029,0.0115 0.7971,0.0143 0.7971,0.0172 0.7943,0.0172 0.7943,0.0201 0.7914,0.0201 0.7886,0.0201 0.7857,0.0229 0.7829,0.0229 0.7800,0.0258 0.7314,0.0630 0.7229,0.0659 0.7229,0.0688 0.7171,0.0716 0.7143,0.0716 0.7114,0.0745 0.7114,0.0774 0.7086,0.0774 0.7057,0.0774 0.7057,0.0802 0.7057,0.0831 0.7029,0.0831 0.7000,0.0860 0.6971,0.0860 0.6943,0.0888 0.6914,0.0888 0.6886,0.0888 0.6857,0.0917 0.6829,0.0917 0.6829,0.0946 0.6800,0.0946 0.6771,0.0946 0.6771,0.0974 0.6743,0.0974 0.6714,0.0974 0.6714,0.1003 0.6686,0.1003 0.6657,0.1003 0.6629,0.1003 0.6629,0.1032 0.6600,0.1032 0.6571,0.1032 0.6571,0.1060 0.6543,0.1060 0.6514,0.1089 0.6514,0.1117 0.6486,0.1117 0.6457,0.1117 0.6457,0.1146 0.6400,0.1175 0.6400,0.1203 0.6371,0.1203 0.6371,0.1232 0.6343,0.1232 0.6314,0.1232 0.6314,0.1261 0.6286,0.1261 0.6286,0.1289 0.6257,0.1289 0.6257,0.1318 0.6229,0.1318 0.6200,0.1318 0.6200,0.1347 0.6200,0.1375 0.6171,0.1375 0.6143,0.1404 0.6114,0.1404 0.6086,0.1404 0.6086,0.1433 0.6057,0.1433 0.6057,0.1461 0.6029,0.1461 0.6000,0.1490 0.5971,0.1490 0.5971,0.1519 0.5943,0.1519 0.5943,0.1547 0.5914,0.1547 0.5886,0.1547 0.5886,0.1576 0.5886,0.1605 0.5857,0.1605 0.5829,0.1605 0.5829,0.1633 0.5800,0.1633 0.5800,0.1662 0.5771,0.1662 0.5743,0.1662 0.5686,0.1662 0.5657,0.1662 0.5600,0.1662 0.5543,0.1662 0.5514,0.1662 0.5429,0.1662 0.5371,0.1662 0.5343,0.1662 0.5314,0.1662 0.5229,0.1662 0.5200,0.1662 0.5171,0.1662 0.5114,0.1662 0.5086,0.1662 0.5057,0.1662 0.5029,0.1633 0.5000,0.1633 0.4971,0.1633 0.4943,0.1633 0.4914,0.1605 0.4886,0.1605 0.4829,0.1605 0.4771,0.1576 0.4714,0.1576 0.4686,0.1576 0.4629,0.1576 0.4600,0.1547 0.4543,0.1547 0.4514,0.1547 0.4429,0.1547 0.4400,0.1547 0.4371,0.1547 0.4343,0.1547 0.4257,0.1547 0.4229,0.1547 0.4171,0.1547 0.4143,0.1547 0.4143,0.1576 0.4114,0.1576 0.4086,0.1576 0.4057,0.1576 0.4057,0.1605 0.4029,0.1605 0.4000,0.1605 0.3971,0.1605 0.3943,0.1605 0.3914,0.1576 0.3886,0.1547 0.3857,0.1547 0.3857,0.1519 0.3829,0.1519 0.3771,0.1461 0.3771,0.1433 0.3714,0.1375 0.3686,0.1375 0.3629,0.1318 0.3600,0.1289 0.3543,0.1232 0.3514,0.1232 0.3486,0.1203 0.3486,0.1175 0.3486,0.1146 0.3457,0.1146 0.3429,0.1146 0.3429,0.1117 0.3400,0.1117 0.3371,0.1089 0.3343,0.1089 0.3314,0.1089 0.3286,0.1060 0.3257,0.1032 0.3229,0.1032 0.3143,0.0974 0.3086,0.0946 0.3057,0.0946 0.3000,0.0917 0.2943,0.0888 0.2914,0.0888 0.2829,0.0860 0.2829,0.0831 0.2800,0.0831 0.2771,0.0831 0.2743,0.0802 0.2714,0.0774 0.2686,0.0774 0.2657,0.0745 0.2629,0.0745 0.2600,0.0745 0.2571,0.0745 0.2543,0.0716 0.2514,0.0716 0.2486,0.0716 0.2486,0.0688 0.2457,0.0688 0.2429,0.0688 0.2400,0.0659 0.2371,0.0659 0.2314,0.0630 0.2286,0.0630 0.2229,0.0602 0.2200,0.0602 0.2200,0.0573 0.2171,0.0573 0.2143,0.0573 0.2086,0.0544 0.2057,0.0544 0.2029,0.0516 0.2000,0.0516 0.1914,0.0516 0.1829,0.0487 0.1800,0.0487 0.1743,0.0487 0.1714,0.0458 0.1657,0.0458 0.1629,0.0458 0.1571,0.0458 0.1543,0.0458 0.1514,0.0430 0.1486,0.0430 0.1457,0.0430 0.1429,0.0430 0.1400,0.0430 0.1371,0.0430 0.1343,0.0430 0.1314,0.0430 0.1257,0.0430 0.1229,0.0430 0.1200,0.0430 0.1171,0.0430 0.1114,0.0430 0.1114,0.0458 0.1114,0.0487 0.1114,0.0516 0.1114,0.0544 0.1086,0.0573 0.1086,0.0602 0.1086,0.0630 0.1086,0.0659 0.1114,0.0688 0.1114,0.0716 0.1114,0.0745 0.1114,0.0774 0.1143,0.0802 0.1143,0.0831 0.1171,0.0831 0.1171,0.0860 0.1171,0.0888 0.1171,0.0917 0.1200,0.0946 0.1200,0.0974 0.1200,0.1003 0.1200,0.1032 0.1229,0.1032 0.1229,0.1060 0.1229,0.1089 0.1257,0.1089 0.1257,0.1117 0.1257,0.1146 0.1257,0.1175 0.1257,0.1203 0.1286,0.1203 0.1286,0.1261 0.1286,0.1289 0.1286,0.1318 0.1286,0.1347 0.1286,0.1375 0.1286,0.1404 0.1286,0.1433 0.1286,0.1461 0.1286,0.1490 0.1286,0.1519 0.1286,0.1547 0.1286,0.1576 0.1286,0.1605 0.1286,0.1633 0.1286,0.1662 0.1257,0.1719 0.1257,0.1748 0.1257,0.1777 0.1229,0.1777 0.1229,0.1805 0.1200,0.1862 0.1200,0.1891 0.1200,0.1920 0.1171,0.1920 0.1171,0.2006 0.1171,0.2034 0.1143,0.2063 0.1114,0.2120 0.1114,0.2178 0.1114,0.2206 0.1086,0.2264 0.1086,0.2321 0.1086,0.2407 0.1086,0.2436 0.1086,0.2493 0.1086,0.2521 0.1086,0.2579 0.1114,0.2607 0.1114,0.2665 0.1114,0.2722 0.1143,0.2779 0.1171,0.2808 0.1171,0.2837 0.1171,0.2865 0.1171,0.2894 0.1200,0.2894 0.1200,0.2923 0.1229,0.2980 0.1257,0.3009 0.1286,0.3066 0.1286,0.3095 0.1314,0.3123 0.1314,0.3152 0.1343,0.3181 0.1371,0.3238 0.1371,0.3266 0.1400,0.3324 0.1400,0.3352 0.1400,0.3410 0.1400,0.3467 0.1429,0.3496 0.1429,0.3524 0.1457,0.3553 0.1457,0.3582 0.1457,0.3610 0.1457,0.3639 0.1457,0.3668 0.1457,0.3696 0.1457,0.3725 0.1457,0.3754 0.1486,0.3782 0.1486,0.3811 0.1486,0.3840 0.1486,0.3868 0.1486,0.3897 0.1486,0.3926 0.1486,0.3954 0.1486,0.3983 0.1486,0.4040 0.1486,0.4069 0.1486,0.4097 0.1486,0.4126 0.1457,0.4155 0.1457,0.4183 0.1457,0.4212 0.1429,0.4212 0.1429,0.4241 0.1429,0.4269 0.1400,0.4298 0.1400,0.4327 0.1371,0.4355 0.1343,0.4355 0.1286,0.4413 0.1257,0.4413 0.1257,0.4441 0.1200,0.4441 0.1200,0.4470 0.1200,0.4499 0.1171,0.4499 0.1143,0.4527 0.1114,0.4527 0.1029,0.4556 0.1029,0.4585 0.0971,0.4585 0.0943,0.4613 0.0914,0.4613 0.0886,0.4613 0.0857,0.4642 0.0829,0.4642 0.0800,0.4670 0.0800,0.4699 0.0771,0.4699 0.0743,0.4728 0.0686,0.4756 0.0657,0.4756 0.0629,0.4814 0.0600,0.4842 0.0571,0.4871 0.0514,0.4900 0.0486,0.4900 0.0486,0.4928 0.0457,0.4928 0.0457,0.4957 0.0457,0.4986 0.0457,0.5014 0.0457,0.5043 0.0457,0.5072 0.0457,0.5100 0.0486,0.5158 0.0486,0.5186 0.0514,0.5215 0.0543,0.5244 0.0543,0.5272 0.0571,0.5301 0.0571,0.5330 0.0571,0.5358 0.0600,0.5387 0.0600,0.5415 0.0600,0.5473 0.0600,0.5501 0.0629,0.5530 0.0629,0.5559 0.0657,0.5587 0.0657,0.5616 0.0686,0.5616 0.0686,0.5645 0.0686,0.5702 0.0714,0.5702 0.0714,0.5759 0.0714,0.5788 0.0743,0.5817 0.0743,0.5845 0.0743,0.5931 0.0743,0.5960 0.0743,0.6017 0.0743,0.6046 0.0743,0.6074 0.0743,0.6103 0.0743,0.6160 0.0743,0.6189 0.0743,0.6246 0.0743,0.6304 0.0743,0.6361 0.0743,0.6390 0.0743,0.6476 0.0743,0.6504 0.0743,0.6562 0.0743,0.6619 0.0743,0.6705 0.0743,0.6762 0.0771,0.6819 0.0771,0.6848 0.0800,0.6905 0.0800,0.6963 0.0829,0.7049 0.0857,0.7077 0.0914,0.7163 0.0914,0.7192 0.0971,0.7278 0.1000,0.7307 0.1029,0.7335 0.1029,0.7364 0.1086,0.7393 0.1114,0.7450 0.1143,0.7450 0.1200,0.7479 0.1257,0.7507 0.1371,0.7564 0.1429,0.7593 0.1543,0.7622 0.1600,0.7622 0.1686,0.7622 0.1743,0.7622 0.1800,0.7593 0.1857,0.7564 0.1943,0.7536 0.2000,0.7507 0.2029,0.7479 0.2143,0.7450 0.2143,0.7421 0.2200,0.7393 0.2229,0.7393 0.2286,0.7364 0.2314,0.7307 0.2371,0.7278 0.2429,0.7221 0.2429,0.7192 0.2457,0.7163 0.2486,0.7163 0.2514,0.7163 0.2543,0.7192 0.2629,0.7221 0.2657,0.7249 0.2714,0.7278 0.2714,0.7307 0.2743,0.7335 0.2771,0.7364 0.2800,0.7393 0.2800,0.7421 0.2829,0.7479 0.2829,0.7507 0.2857,0.7536 0.2886,0.7564 0.2914,0.7593 0.2943,0.7650 0.2971,0.7650 0.3000,0.7679 0.3029,0.7708 0.3086,0.7765 0.3143,0.7822 0.3229,0.7908 0.3286,0.7937 0.3314,0.7966 0.3371,0.7994 0.3429,0.8052 0.3457,0.8052 0.3486,0.8109 0.3514,0.8138 0.3543,0.8166 0.3600,0.8195 0.3657,0.8223 0.3686,0.8252 0.3714,0.8252 0.3771,0.8252 0.3829,0.8252 0.3857,0.8252 0.3886,0.8281 0.3943,0.8281 0.3971,0.8281 0.4057,0.8338 0.4143,0.8338 0.4257,0.8367 0.4286,0.8367 0.4400,0.8367 0.4429,0.8367 0.4486,0.8367 0.4514,0.8367 0.4600,0.8367 0.4657,0.8367 0.4800,0.8367 0.4857,0.8367 0.4943,0.8338 0.5000,0.8338 0.5000,0.8309 0.5086,0.8281 0.5114,0.8281 0.5171,0.8281 0.5229,0.8252 0.5257,0.8223 0.5314,0.8195 0.5343,0.8195 0.5371,0.8166 0.5371,0.8138 0.5457,0.8080 0.5486,0.8052 0.5543,0.8023 0.5571,0.7994 0.5600,0.7966 0.5600,0.7937 0.5629,0.7880 0.5629,0.7851 0.5686,0.7822 0.5714,0.7794 0.5714,0.7765 0.5771,0.7679 0.5800,0.7679 0.5857,0.7650 0.5886,0.7622 0.5914,0.7593 0.5943,0.7593 0.5971,0.7564 0.6000,0.7536 0.6029,0.7507 0.6057,0.7507 0.6143,0.7479 0.6229,0.7479 0.6257,0.7479 0.6286,0.7479 0.6371,0.7450 0.6400,0.7450 0.6429,0.7450 0.6457,0.7450 0.6514,0.7450 0.6543,0.7450 0.6571,0.7450 0.6600,0.7450 0.6657,0.7479 0.6686,0.7479 0.6771,0.7536 0.6800,0.7536 0.6829,0.7536 0.6943,0.7564 0.7000,0.7564 0.7086,0.7622 0.7114,0.7622 0.7171,0.7650 0.7200,0.7650 0.7257,0.7679 0.7314,0.7679 0.7343,0.7679 0.7429,0.7679 0.7457,0.7679 0.7543,0.7679 0.7571,0.7679 0.7629,0.7708 0.7686,0.7708 0.7743,0.7708 0.7829,0.7708 0.7886,0.7708 0.8029,0.7679 0.8143,0.7679 0.8171,0.7679 0.8200,0.7679 0.8257,0.7679 0.8257,0.7650 0.8286,0.7622 0.8314,0.7622 0.8343,0.7564 0.8371,0.7564 0.8457,0.7507 0.8486,0.7479 0.8486,0.7450 0.8514,0.7421 0.8571,0.7393 0.8600,0.7364 0.8600,0.7335 0.8629,0.7249 0.8657,0.7192 0.8657,0.7135 0.8686,0.7135 0.8686,0.7106 0.8686,0.7077 0.8686,0.7020 0.8686,0.6991 0.8686,0.6934 0.8714,0.6877 0.8714,0.6819 0.8714,0.6762 0.8714,0.6734 0.8743,0.6705 0.8743,0.6648 0.8771,0.6619 0.8771,0.6562 0.8771,0.6533 0.8771,0.6504 0.8771,0.6447 0.8800,0.6418 0.8800,0.6390 0.8800,0.6361 0.8800,0.6304 0.8800,0.6218 0.8800,0.6189 0.8829,0.6103 0.8829,0.6074 0.8829,0.6017 0.8857,0.5960 0.8857,0.5903 0.8857,0.5788 0.8857,0.5759 0.8857,0.5645 0.8857,0.5587 0.8857,0.5559 0.8857,0.5501 0.8857,0.5444 0.8857,0.5415 0.8857,0.5301 0.8857,0.5272 0.8886,0.5244 0.8886,0.5186 0.8886,0.5158 0.8886,0.5100 0.8886,0.5072 0.8886,0.5043 0.8886,0.5014 0.8886,0.4957 0.8886,0.4928 0.8886,0.4900 0.8886,0.4871 0.8886,0.4842 0.8886,0.4785 0.8857,0.4785 0.8857,0.4756 0.8857,0.4728 0.8829,0.4670 0.8829,0.4642 0.8800,0.4613 0.8771,0.4556 0.8771,0.4527 0.8714,0.4470 0.8686,0.4441 0.8657,0.4355 0.8600,0.4327 0.8600,0.4298 0.8543,0.4269 0.8543,0.4241 0.8543,0.4212 0.8514,0.4212 0.8514,0.4183 0.8486,0.4155 0.8457,0.4126 0.8457,0.4097 0.8429,0.4069 0.8400,0.4040 0.8371,0.4011 0.8314,0.3954 0.8286,0.3926 0.8286,0.3897 0.8286,0.3868 0.8257,0.3840 0.8257,0.3811 0.8257,0.3754 0.8257,0.3725 0.8257,0.3696 0.8257,0.3668 0.8286,0.3668 0.8314,0.3610 0.8314,0.3582 0.8371,0.3524 0.8400,0.3524 0.8429,0.3467 0.8457,0.3438 0.8486,0.3410 0.8514,0.3381 0.8514,0.3352 0.8543,0.3352 0.8543,0.3324 0.8571,0.3295 0.8571,0.3266 0.8571,0.3209 0.8571,0.3181 0.8571,0.3152 0.8600,0.3152 0.8600,0.3123 0.8629,0.3066 0.8629,0.3037 0.8657,0.2951 0.8686,0.2923 0.8686,0.2865 0.8686,0.2751 0.8714,0.2751 0.8714,0.2665 0.8714,0.2607 0.8743,0.2550 0.8743,0.2521 0.8743,0.2378 0.8771,0.2292 0.8771,0.2264 0.8771,0.2206 0.8771,0.2178 0.8771,0.2149 0.8771,0.2092 0.8771,0.2063 0.8771,0.2006 0.8771,0.1977 0.8771,0.1920 0.8771,0.1862 0.8771,0.1834 0.8743,0.1805 0.8743,0.1777 0.8743,0.1719 0.8714,0.1691 0.8714,0.1633 0.8686,0.1605 0.8657,0.1490 0.8629,0.1461 0.8600,0.1433 0.8600,0.1375 0.8600,0.1347 0.8571,0.1289 0.8571,0.1232 0.8571,0.1203 0.8571,0.1146 0.8543,0.1117 0.8543,0.1089 0.8543,0.1032 0.8543,0.1003 0.8543,0.0974 0.8543,0.0946 0.8543,0.0917 0.8543,0.0888 0.8543,0.0860 0.8543,0.0831 0.8543,0.0802 0.8543,0.0774 0.8514,0.0745 0.8514,0.0716 0.8514,0.0688 0.8514,0.0659 0.8486,0.0630 0.8486,0.0602 0.8486,0.0573 0.8486,0.0544 0.8486,0.0516 0.8486,0.0487 0.8457,0.0487 0.8457,0.0458 0.8457,0.0430 0.8457,0.0401 0.8457,0.0372 0.8457,0.0344 0.8457,0.0315 0.8429,0.0287 0.8429,0.0258 0.8429,0.0229 0.8429,0.0201 0.8400,0.0172 0.8400,0.0143 0.8400,0.0115 0.8400,0.0086 0.8400,0.0057 T0.8400,0.0000" />
</clipPath>
</g>
<g type="background-iconel" >
	<rect type="rectangle" x="0.000" y="0.000" width="1.000" height="1.000" fill="rgb(120,152,237)" stroke="rgb(120,152,237)" stroke-width="0.010" />
</g>
	<path type="line" fill="none" point-count="147" stroke="rgb(0,0,0)" stroke-width="0.010" d="M0.3714,0.2206 L0.3714,0.2206 0.3714,0.2178 0.3714,0.2149 0.3714,0.2120 0.3686,0.2120 0.3686,0.2092 0.3629,0.2063 0.3600,0.2034 0.3571,0.2034 0.3514,0.2006 0.3486,0.1977 0.3457,0.1948 0.3400,0.1948 0.3400,0.1920 0.3371,0.1891 0.3343,0.1891 0.3286,0.1862 0.3286,0.1834 0.3257,0.1834 0.3229,0.1805 0.3200,0.1777 0.3200,0.1748 0.3171,0.1748 0.3143,0.1748 0.3114,0.1748 0.3114,0.1719 0.3086,0.1719 0.3057,0.1691 0.3029,0.1662 0.3000,0.1662 0.2971,0.1633 0.2943,0.1633 0.2914,0.1605 0.2886,0.1576 0.2857,0.1576 0.2829,0.1547 0.2771,0.1547 0.2743,0.1519 0.2714,0.1519 0.2686,0.1490 0.2657,0.1490 0.2629,0.1461 0.2571,0.1433 0.2543,0.1433 0.2486,0.1375 0.2457,0.1375 0.2400,0.1347 0.2371,0.1318 0.2343,0.1318 0.2314,0.1318 0.2286,0.1289 0.2257,0.1261 0.2229,0.1232 0.2171,0.1203 0.2143,0.1175 0.2086,0.1146 0.2086,0.1117 0.2057,0.1089 0.2029,0.1060 0.2000,0.1032 0.1971,0.1003 0.1943,0.1003 0.1914,0.0974 0.1886,0.0974 0.1857,0.0974 0.1857,0.0946 0.1829,0.0946 0.1800,0.0917 0.1800,0.0946 0.1800,0.0974 0.1800,0.1003 0.1800,0.1032 0.1800,0.1060 0.1800,0.1089 0.1800,0.1117 0.1829,0.1146 0.1829,0.1175 0.1857,0.1203 0.1857,0.1232 0.1857,0.1261 0.1886,0.1261 0.1886,0.1289 0.1886,0.1318 0.1886,0.1347 0.1886,0.1375 0.1886,0.1404 0.1886,0.1433 0.1886,0.1461 0.1886,0.1490 0.1886,0.1519 0.1886,0.1547 0.1886,0.1576 0.1886,0.1605 0.1857,0.1605 0.1857,0.1633 0.1857,0.1662 0.1857,0.1719 0.1857,0.1748 0.1857,0.1777 0.1857,0.1805 0.1829,0.1834 0.1829,0.1862 0.1829,0.1891 0.1829,0.1920 0.1829,0.1948 0.1829,0.2006 0.1829,0.2034 0.1829,0.2092 0.1829,0.2120 0.1829,0.2178 0.1800,0.2178 0.1800,0.2206 0.1800,0.2264 0.1800,0.2292 0.1800,0.2321 0.1800,0.2350 0.1800,0.2436 0.1800,0.2464 0.1800,0.2521 0.1800,0.2607 0.1800,0.2636 0.1800,0.2693 0.1800,0.2722 0.1800,0.2779 0.1829,0.2808 0.1829,0.2837 0.1829,0.2865 0.1829,0.2923 0.1857,0.2951 0.1857,0.2980 0.1857,0.3009 0.1886,0.3037 0.1886,0.3066 0.1914,0.3095 0.1943,0.3152 0.1943,0.3209 0.1971,0.3209 0.2000,0.3266 0.2000,0.3295 0.2057,0.3381 0.2057,0.3410 0.2114,0.3553 0.2171,0.3610 0.2200,0.3668 0.2286,0.3725 0.2286,0.3754 T0.2286,0.3782" />
	<path type="line" fill="none" point-count="21" stroke="rgb(0,0,0)" stroke-width="0.010" d="M0.2229,0.2120 L0.2229,0.2120 0.2229,0.2149 0.2229,0.2178 0.2257,0.2206 0.2286,0.2264 0.2371,0.2292 0.2457,0.2350 0.2514,0.2436 0.2629,0.2493 0.2686,0.2550 0.2800,0.2636 0.2857,0.2693 0.3000,0.2779 0.3114,0.2865 0.3143,0.2923 0.3229,0.2980 0.3229,0.3009 0.3286,0.3066 0.3286,0.3095 0.3314,0.3095 T0.3314,0.3123" />
	<path type="line" fill="none" point-count="172" stroke="rgb(0,0,0)" stroke-width="0.010" d="M0.6086,0.2235 L0.6086,0.2235 0.6086,0.2206 0.6114,0.2206 0.6114,0.2178 0.6143,0.2178 0.6171,0.2149 0.6171,0.2120 0.6200,0.2063 0.6229,0.2063 0.6257,0.2006 0.6257,0.1948 0.6286,0.1920 0.6314,0.1891 0.6343,0.1862 0.6400,0.1862 0.6429,0.1834 0.6429,0.1805 0.6486,0.1777 0.6514,0.1748 0.6543,0.1748 0.6600,0.1719 0.6657,0.1719 0.6686,0.1719 0.6714,0.1719 0.6771,0.1691 0.6829,0.1662 0.6914,0.1662 0.6914,0.1633 0.6971,0.1605 0.7000,0.1605 0.7086,0.1605 0.7114,0.1605 0.7171,0.1576 0.7200,0.1576 0.7257,0.1576 0.7286,0.1547 0.7314,0.1547 0.7371,0.1519 0.7400,0.1490 0.7400,0.1461 0.7429,0.1461 0.7486,0.1433 0.7514,0.1433 0.7571,0.1404 0.7629,0.1375 0.7657,0.1375 0.7686,0.1347 0.7686,0.1318 0.7743,0.1289 0.7771,0.1261 0.7800,0.1232 0.7829,0.1232 0.7886,0.1175 0.7914,0.1146 0.7943,0.1146 0.8000,0.1117 0.8000,0.1089 0.8029,0.1089 0.8057,0.1089 0.8114,0.1060 0.8114,0.1032 0.8114,0.1003 0.8114,0.0974 0.8114,0.0946 0.8143,0.0917 0.8171,0.0917 0.8171,0.0888 0.8171,0.0860 0.8171,0.0831 0.8171,0.0802 0.8200,0.0802 0.8200,0.0774 0.8200,0.0802 0.8171,0.0802 0.8171,0.0831 0.8171,0.0860 0.8171,0.0888 0.8143,0.0888 0.8143,0.0917 0.8143,0.0946 0.8143,0.1003 0.8143,0.1032 0.8143,0.1060 0.8143,0.1089 0.8143,0.1117 0.8143,0.1146 0.8143,0.1175 0.8143,0.1203 0.8143,0.1232 0.8143,0.1261 0.8143,0.1289 0.8171,0.1318 0.8171,0.1347 0.8171,0.1375 0.8171,0.1404 0.8171,0.1433 0.8200,0.1433 0.8200,0.1461 0.8200,0.1490 0.8200,0.1519 0.8200,0.1547 0.8229,0.1576 0.8229,0.1605 0.8229,0.1633 0.8229,0.1662 0.8229,0.1691 0.8257,0.1719 0.8257,0.1748 0.8257,0.1777 0.8257,0.1805 0.8257,0.1834 0.8257,0.1862 0.8286,0.1891 0.8286,0.1948 0.8286,0.1977 0.8314,0.2034 0.8314,0.2063 0.8314,0.2092 0.8314,0.2120 0.8314,0.2149 0.8314,0.2178 0.8314,0.2206 0.8314,0.2235 0.8314,0.2292 0.8314,0.2321 0.8286,0.2350 0.8286,0.2378 0.8286,0.2407 0.8286,0.2464 0.8286,0.2493 0.8257,0.2521 0.8257,0.2550 0.8257,0.2579 0.8257,0.2607 0.8257,0.2636 0.8229,0.2693 0.8229,0.2722 0.8200,0.2779 0.8200,0.2837 0.8171,0.2837 0.8171,0.2865 0.8171,0.2894 0.8143,0.2923 0.8143,0.2951 0.8114,0.2951 0.8114,0.2980 0.8114,0.3009 0.8086,0.3037 0.8057,0.3066 0.8057,0.3095 0.8029,0.3123 0.8029,0.3152 0.8000,0.3181 0.7971,0.3181 0.7943,0.3209 0.7886,0.3209 0.7857,0.3238 0.7829,0.3266 0.7800,0.3266 0.7771,0.3295 0.7771,0.3324 0.7743,0.3352 0.7743,0.3381 0.7714,0.3410 0.7686,0.3410 0.7657,0.3438 0.7657,0.3467 0.7600,0.3467 0.7571,0.3467 0.7571,0.3496 0.7571,0.3524 T0.7543,0.3524" />
	<path type="line" fill="none" point-count="36" stroke="rgb(0,0,0)" stroke-width="0.010" d="M0.7600,0.2006 L0.7600,0.2006 0.7600,0.2034 0.7600,0.2063 0.7600,0.2092 0.7600,0.2120 0.7600,0.2149 0.7600,0.2178 0.7600,0.2206 0.7600,0.2235 0.7571,0.2264 0.7571,0.2292 0.7543,0.2350 0.7514,0.2350 0.7514,0.2407 0.7486,0.2436 0.7457,0.2493 0.7457,0.2521 0.7429,0.2550 0.7429,0.2579 0.7400,0.2579 0.7371,0.2607 0.7343,0.2636 0.7343,0.2665 0.7314,0.2665 0.7286,0.2722 0.7286,0.2751 0.7257,0.2751 0.7229,0.2779 0.7229,0.2808 0.7200,0.2808 0.7171,0.2837 0.7171,0.2865 0.7143,0.2894 0.7143,0.2923 0.7114,0.2923 T0.7114,0.2951" />
	<path type="line" fill="none" point-count="38" stroke="rgb(0,0,0)" stroke-width="0.010" d="M0.3971,0.2206 L0.3971,0.2206 0.4000,0.2206 0.4029,0.2178 0.4057,0.2178 0.4086,0.2178 0.4143,0.2149 0.4171,0.2120 0.4200,0.2120 0.4257,0.2120 0.4286,0.2120 0.4343,0.2092 0.4400,0.2092 0.4429,0.2092 0.4514,0.2092 0.4543,0.2092 0.4629,0.2063 0.4657,0.2063 0.4743,0.2063 0.4771,0.2063 0.4857,0.2063 0.4914,0.2063 0.4943,0.2063 0.5029,0.2063 0.5057,0.2063 0.5086,0.2063 0.5143,0.2063 0.5171,0.2063 0.5257,0.2063 0.5371,0.2092 0.5429,0.2120 0.5514,0.2178 0.5543,0.2178 0.5686,0.2235 0.5714,0.2235 0.5857,0.2321 0.5943,0.2321 0.6000,0.2350 T0.6029,0.2350" />
	<path type="line" fill="none" point-count="23" stroke="rgb(0,0,0)" stroke-width="0.010" d="M0.4400,0.4814 L0.4400,0.4814 0.4429,0.4814 0.4457,0.4814 0.4486,0.4814 0.4486,0.4785 0.4514,0.4785 0.4543,0.4785 0.4600,0.4785 0.4629,0.4785 0.4657,0.4785 0.4686,0.4785 0.4714,0.4785 0.4743,0.4785 0.4800,0.4785 0.4857,0.4785 0.4886,0.4785 0.4914,0.4785 0.4943,0.4785 0.4943,0.4756 0.5000,0.4756 0.5029,0.4756 0.5029,0.4728 T0.5057,0.4728" />
	<path type="line" fill="none" point-count="92" stroke="rgb(0,0,0)" stroke-width="0.010" d="M0.4429,0.4871 L0.4429,0.4871 0.4429,0.4900 0.4429,0.4928 0.4429,0.4957 0.4429,0.4986 0.4457,0.5014 0.4486,0.5043 0.4514,0.5072 0.4543,0.5100 0.4571,0.5100 0.4600,0.5129 0.4629,0.5129 0.4657,0.5158 0.4686,0.5158 0.4714,0.5186 0.4743,0.5186 0.4743,0.5215 0.4743,0.5244 0.4743,0.5272 0.4743,0.5301 0.4743,0.5330 0.4771,0.5358 0.4771,0.5387 0.4771,0.5415 0.4771,0.5444 0.4771,0.5473 0.4743,0.5473 0.4743,0.5501 0.4743,0.5530 0.4743,0.5559 0.4743,0.5587 0.4743,0.5616 0.4743,0.5645 0.4743,0.5673 0.4714,0.5673 0.4714,0.5702 0.4714,0.5731 0.4686,0.5731 0.4686,0.5759 0.4657,0.5788 0.4657,0.5817 0.4657,0.5845 0.4629,0.5874 0.4629,0.5903 0.4629,0.5931 0.4600,0.5960 0.4600,0.5989 0.4600,0.6017 0.4571,0.6017 0.4571,0.6046 0.4571,0.6074 0.4543,0.6074 0.4543,0.6132 0.4514,0.6132 0.4514,0.6160 0.4486,0.6160 0.4486,0.6189 0.4457,0.6218 0.4429,0.6218 0.4429,0.6246 0.4400,0.6246 0.4371,0.6246 0.4371,0.6275 0.4343,0.6275 0.4314,0.6275 0.4257,0.6275 0.4229,0.6275 0.4200,0.6275 0.4171,0.6275 0.4114,0.6275 0.4086,0.6275 0.4029,0.6275 0.4000,0.6246 0.3971,0.6246 0.3943,0.6218 0.3914,0.6189 0.3886,0.6189 0.3886,0.6160 0.3857,0.6160 0.3857,0.6132 0.3857,0.6103 0.3829,0.6074 0.3800,0.6046 0.3771,0.6046 0.3771,0.6017 0.3743,0.6017 0.3743,0.5989 0.3743,0.5960 0.3714,0.5931 0.3714,0.5903 0.3714,0.5874 T0.3714,0.5845" />
	<path type="line" fill="none" point-count="105" stroke="rgb(0,0,0)" stroke-width="0.010" d="M0.5057,0.4814 L0.5057,0.4814 0.5057,0.4842 0.5057,0.4871 0.5057,0.4900 0.5029,0.4900 0.5029,0.4928 0.5029,0.4957 0.5000,0.4957 0.5000,0.4986 0.4971,0.4986 0.4971,0.5014 0.4971,0.5043 0.4943,0.5043 0.4943,0.5072 0.4914,0.5072 0.4914,0.5100 0.4886,0.5100 0.4857,0.5100 0.4857,0.5129 0.4829,0.5158 0.4829,0.5186 0.4829,0.5215 0.4829,0.5244 0.4829,0.5272 0.4829,0.5301 0.4829,0.5330 0.4829,0.5358 0.4829,0.5387 0.4829,0.5415 0.4829,0.5444 0.4829,0.5473 0.4829,0.5501 0.4829,0.5530 0.4829,0.5559 0.4829,0.5587 0.4829,0.5616 0.4829,0.5645 0.4857,0.5673 0.4857,0.5702 0.4857,0.5731 0.4857,0.5759 0.4886,0.5788 0.4886,0.5817 0.4914,0.5845 0.4914,0.5874 0.4914,0.5903 0.4943,0.5931 0.4943,0.5960 0.4971,0.5960 0.4971,0.5989 0.4971,0.6017 0.5000,0.6046 0.5000,0.6074 0.5029,0.6103 0.5057,0.6132 0.5086,0.6160 0.5086,0.6189 0.5114,0.6189 0.5143,0.6218 0.5143,0.6246 0.5171,0.6246 0.5200,0.6246 0.5200,0.6275 0.5229,0.6275 0.5257,0.6275 0.5286,0.6275 0.5314,0.6275 0.5343,0.6275 0.5371,0.6275 0.5400,0.6275 0.5457,0.6275 0.5486,0.6275 0.5571,0.6275 0.5600,0.6275 0.5686,0.6275 0.5743,0.6275 0.5886,0.6332 0.5971,0.6332 0.6029,0.6361 0.6114,0.6361 0.6171,0.6361 0.6286,0.6361 0.6343,0.6361 0.6371,0.6361 0.6371,0.6332 0.6400,0.6304 0.6400,0.6275 0.6429,0.6275 0.6429,0.6246 0.6429,0.6160 0.6429,0.6132 0.6429,0.6046 0.6457,0.5989 0.6457,0.5960 0.6457,0.5903 0.6457,0.5874 0.6457,0.5845 0.6429,0.5845 0.6429,0.5817 0.6400,0.5788 0.6371,0.5788 0.6343,0.5759 0.6343,0.5731 0.6314,0.5731 T0.6286,0.5731" />
	<path type="line" fill="none" point-count="93" stroke="rgb(0,0,0)" stroke-width="0.010" d="M0.4257,0.4069 L0.4257,0.4069 0.4286,0.4069 0.4286,0.4040 0.4286,0.4011 0.4286,0.3983 0.4286,0.3954 0.4314,0.3954 0.4314,0.3926 0.4314,0.3897 0.4314,0.3868 0.4314,0.3840 0.4314,0.3811 0.4314,0.3782 0.4314,0.3754 0.4314,0.3725 0.4314,0.3696 0.4314,0.3668 0.4314,0.3639 0.4314,0.3610 0.4314,0.3582 0.4286,0.3553 0.4286,0.3524 0.4286,0.3496 0.4257,0.3496 0.4257,0.3467 0.4229,0.3467 0.4229,0.3438 0.4200,0.3410 0.4171,0.3410 0.4171,0.3381 0.4143,0.3381 0.4114,0.3381 0.4114,0.3352 0.4086,0.3352 0.4057,0.3352 0.4057,0.3324 0.4029,0.3324 0.4000,0.3324 0.3971,0.3324 0.3943,0.3324 0.3914,0.3324 0.3886,0.3324 0.3886,0.3352 0.3857,0.3352 0.3857,0.3381 0.3829,0.3410 0.3800,0.3438 0.3771,0.3467 0.3743,0.3496 0.3714,0.3496 0.3714,0.3524 0.3686,0.3582 0.3686,0.3610 0.3657,0.3639 0.3657,0.3668 0.3657,0.3696 0.3657,0.3725 0.3657,0.3754 0.3657,0.3782 0.3657,0.3811 0.3657,0.3840 0.3657,0.3868 0.3657,0.3897 0.3657,0.3926 0.3686,0.3954 0.3686,0.3983 0.3686,0.4011 0.3714,0.4011 0.3743,0.4040 0.3771,0.4069 0.3800,0.4097 0.3829,0.4097 0.3857,0.4126 0.3886,0.4126 0.3914,0.4155 0.3943,0.4155 0.3971,0.4155 0.4000,0.4155 0.4029,0.4155 0.4057,0.4155 0.4086,0.4155 0.4114,0.4155 0.4143,0.4155 0.4171,0.4155 0.4200,0.4155 0.4229,0.4155 0.4257,0.4126 0.4257,0.4097 0.4286,0.4097 0.4286,0.4069 0.4286,0.4040 0.4286,0.4011 T0.4286,0.3983" />
	<path type="line" fill="none" point-count="63" stroke="rgb(0,0,0)" stroke-width="0.010" d="M0.5314,0.3324 L0.5314,0.3324 0.5286,0.3324 0.5286,0.3352 0.5257,0.3352 0.5229,0.3410 0.5229,0.3438 0.5200,0.3467 0.5171,0.3496 0.5171,0.3553 0.5143,0.3553 0.5143,0.3610 0.5143,0.3668 0.5143,0.3696 0.5143,0.3725 0.5143,0.3782 0.5143,0.3811 0.5143,0.3840 0.5171,0.3868 0.5171,0.3897 0.5171,0.3926 0.5200,0.3954 0.5229,0.3983 0.5229,0.4011 0.5257,0.4040 0.5286,0.4040 0.5286,0.4069 0.5314,0.4069 0.5343,0.4069 0.5371,0.4069 0.5400,0.4069 0.5429,0.4069 0.5457,0.4069 0.5486,0.4069 0.5514,0.4069 0.5543,0.4069 0.5571,0.4040 0.5600,0.4040 0.5657,0.4011 0.5657,0.3983 0.5686,0.3983 0.5714,0.3926 0.5714,0.3897 0.5714,0.3868 0.5743,0.3840 0.5743,0.3782 0.5743,0.3754 0.5743,0.3725 0.5743,0.3696 0.5743,0.3639 0.5714,0.3610 0.5714,0.3582 0.5686,0.3553 0.5657,0.3524 0.5657,0.3496 0.5629,0.3467 0.5600,0.3438 0.5571,0.3410 0.5543,0.3410 0.5514,0.3410 0.5457,0.3324 0.5429,0.3324 0.5400,0.3324 T0.5371,0.3324" />
	<path type="line" fill="none" point-count="23" stroke="rgb(0,0,0)" stroke-width="0.010" d="M0.2400,0.4097 L0.2400,0.4097 0.2400,0.4126 0.2429,0.4155 0.2429,0.4183 0.2429,0.4241 0.2429,0.4269 0.2429,0.4298 0.2429,0.4355 0.2429,0.4413 0.2400,0.4441 0.2400,0.4470 0.2371,0.4499 0.2314,0.4556 0.2314,0.4585 0.2257,0.4642 0.2229,0.4642 0.2171,0.4699 0.2114,0.4728 0.2029,0.4756 0.2000,0.4756 0.2000,0.4785 0.1971,0.4785 T0.1943,0.4785" />
	<path type="line" fill="none" point-count="16" stroke="rgb(0,0,0)" stroke-width="0.010" d="M0.2314,0.4814 L0.2314,0.4814 0.2314,0.4842 0.2257,0.4900 0.2229,0.4928 0.2143,0.4986 0.2114,0.5014 0.2029,0.5129 0.1914,0.5215 0.1857,0.5244 0.1743,0.5330 0.1714,0.5358 0.1543,0.5473 0.1514,0.5473 0.1371,0.5559 0.1314,0.5587 T0.1257,0.5587" />
	<path type="line" fill="none" point-count="15" stroke="rgb(0,0,0)" stroke-width="0.010" d="M0.2114,0.5473 L0.2114,0.5473 0.2086,0.5530 0.2057,0.5559 0.2000,0.5616 0.1943,0.5673 0.1886,0.5731 0.1829,0.5759 0.1714,0.5788 0.1686,0.5817 0.1629,0.5845 0.1571,0.5874 0.1543,0.5874 0.1486,0.5874 0.1486,0.5903 T0.1457,0.5903" />
	<path type="line" fill="none" point-count="12" stroke="rgb(0,0,0)" stroke-width="0.010" d="M0.2229,0.5903 L0.2229,0.5903 0.2200,0.5931 0.2143,0.5960 0.2143,0.5989 0.2029,0.6046 0.1943,0.6103 0.1886,0.6132 0.1771,0.6218 0.1743,0.6275 0.1686,0.6304 0.1657,0.6304 T0.1629,0.6304" />
	<path type="line" fill="none" point-count="12" stroke="rgb(0,0,0)" stroke-width="0.010" d="M0.2486,0.6246 L0.2486,0.6246 0.2457,0.6275 0.2371,0.6304 0.2343,0.6332 0.2257,0.6418 0.2171,0.6447 0.2114,0.6504 0.1971,0.6533 0.1914,0.6562 0.1829,0.6590 0.1743,0.6648 T0.1657,0.6648" />
	<path type="line" fill="none" point-count="22" stroke="rgb(0,0,0)" stroke-width="0.010" d="M0.7514,0.3725 L0.7514,0.3725 0.7514,0.3782 0.7514,0.3840 0.7514,0.3868 0.7514,0.3954 0.7514,0.3983 0.7514,0.4069 0.7543,0.4183 0.7571,0.4241 0.7571,0.4327 0.7600,0.4355 0.7629,0.4441 0.7657,0.4470 0.7686,0.4527 0.7743,0.4556 0.7771,0.4585 0.7800,0.4642 0.7829,0.4670 0.7886,0.4670 0.7914,0.4699 0.7971,0.4699 T0.8000,0.4699" />
	<path type="line" fill="none" point-count="13" stroke="rgb(0,0,0)" stroke-width="0.010" d="M0.7429,0.5158 L0.7429,0.5158 0.7429,0.5186 0.7486,0.5244 0.7486,0.5272 0.7571,0.5358 0.7686,0.5501 0.7829,0.5673 0.7886,0.5702 0.8029,0.5788 0.8086,0.5817 0.8200,0.5903 0.8257,0.5931 T0.8314,0.5931" />
	<path type="line" fill="none" point-count="15" stroke="rgb(0,0,0)" stroke-width="0.010" d="M0.7800,0.5702 L0.7800,0.5702 0.7800,0.5759 0.7829,0.5788 0.7886,0.5845 0.7914,0.5874 0.8000,0.5960 0.8029,0.5989 0.8114,0.6074 0.8143,0.6103 0.8171,0.6132 0.8229,0.6189 0.8314,0.6218 0.8400,0.6275 0.8429,0.6304 T0.8457,0.6304" />
	<path type="line" fill="none" point-count="9" stroke="rgb(0,0,0)" stroke-width="0.010" d="M0.7886,0.6361 L0.7886,0.6361 0.7886,0.6390 0.7943,0.6447 0.8057,0.6533 0.8057,0.6562 0.8114,0.6590 0.8143,0.6590 0.8200,0.6619 T0.8229,0.6648" />
	<path type="line" fill="none" point-count="6" stroke="rgb(0,0,0)" stroke-width="0.010" d="M0.7686,0.6590 L0.7686,0.6590 0.7771,0.6648 0.7857,0.6676 0.7914,0.6762 0.7943,0.6762 T0.7971,0.6791" />
	<path type="line" fill="none" point-count="29" stroke="rgb(0,0,0)" stroke-width="0.010" d="M0.5714,0.7249 L0.5714,0.7249 0.5714,0.7278 0.5686,0.7278 0.5686,0.7307 0.5657,0.7335 0.5629,0.7364 0.5600,0.7364 0.5571,0.7393 0.5543,0.7421 0.5486,0.7450 0.5457,0.7450 0.5371,0.7479 0.5200,0.7479 0.5171,0.7479 0.4971,0.7507 0.4943,0.7507 0.4771,0.7507 0.4714,0.7507 0.4629,0.7507 0.4571,0.7507 0.4457,0.7479 0.4400,0.7421 0.4371,0.7421 0.4314,0.7364 0.4314,0.7335 0.4314,0.7307 0.4286,0.7307 0.4286,0.7278 T0.4257,0.7221" />
	<path type="line" fill="none" point-count="48" stroke="rgb(0,0,0)" stroke-width="0.010" d="M0.4171,0.5215 L0.4171,0.5215 0.4171,0.5186 0.4143,0.5186 0.4114,0.5158 0.4086,0.5158 0.4057,0.5158 0.4029,0.5158 0.4000,0.5158 0.3971,0.5129 0.3886,0.5129 0.3857,0.5129 0.3771,0.5100 0.3714,0.5100 0.3571,0.5072 0.3600,0.5072 0.3429,0.5043 0.3286,0.5014 0.3171,0.5014 0.3114,0.4986 0.2971,0.4986 0.2943,0.4986 0.2857,0.4957 0.2800,0.4957 0.2657,0.4957 0.2543,0.4957 0.2457,0.4957 0.2286,0.4957 0.2257,0.4957 0.2057,0.4957 0.2086,0.4957 0.1971,0.4957 0.1857,0.4957 0.1800,0.4957 0.1714,0.4986 0.1657,0.4986 0.1571,0.5043 0.1514,0.5043 0.1429,0.5072 0.1400,0.5100 0.1343,0.5129 0.1229,0.5158 0.1200,0.5186 0.1143,0.5215 0.1143,0.5244 0.1114,0.5301 0.1086,0.5301 0.1057,0.5358 T0.1057,0.5387" />
	<path type="line" fill="none" point-count="40" stroke="rgb(0,0,0)" stroke-width="0.010" d="M0.4114,0.5587 L0.4114,0.5587 0.4086,0.5587 0.4029,0.5559 0.4000,0.5530 0.3971,0.5530 0.3886,0.5501 0.3829,0.5444 0.3657,0.5444 0.3543,0.5415 0.3457,0.5415 0.3371,0.5415 0.3257,0.5387 0.3086,0.5387 0.3029,0.5387 0.2914,0.5387 0.2771,0.5387 0.2743,0.5387 0.2571,0.5387 0.2600,0.5387 0.2486,0.5415 0.2429,0.5415 0.2371,0.5444 0.2314,0.5444 0.2229,0.5501 0.2086,0.5530 0.2000,0.5559 0.1971,0.5587 0.1914,0.5616 0.1914,0.5673 0.1857,0.5731 0.1829,0.5759 0.1800,0.5845 0.1743,0.5874 0.1714,0.5903 0.1686,0.5931 0.1686,0.5960 0.1657,0.5989 0.1657,0.6017 0.1629,0.6017 T0.1629,0.6046" />
	<path type="line" fill="none" point-count="31" stroke="rgb(0,0,0)" stroke-width="0.010" d="M0.3943,0.5673 L0.3943,0.5673 0.3886,0.5673 0.3829,0.5673 0.3771,0.5673 0.3629,0.5673 0.3571,0.5673 0.3429,0.5673 0.3400,0.5673 0.3286,0.5702 0.3143,0.5731 0.3114,0.5759 0.3000,0.5788 0.2943,0.5817 0.2829,0.5903 0.2800,0.5960 0.2714,0.6017 0.2657,0.6017 0.2543,0.6103 0.2429,0.6160 0.2371,0.6189 0.2257,0.6304 0.2229,0.6304 0.2171,0.6418 0.2143,0.6447 0.2057,0.6504 0.2000,0.6533 0.1914,0.6590 0.1886,0.6648 0.1886,0.6705 0.1886,0.6762 T0.1886,0.6791" />
	<path type="line" fill="none" point-count="36" stroke="rgb(0,0,0)" stroke-width="0.010" d="M0.5629,0.5244 L0.5629,0.5244 0.5657,0.5244 0.5657,0.5215 0.5714,0.5186 0.5743,0.5186 0.5857,0.5158 0.5971,0.5129 0.6143,0.5043 0.6314,0.4986 0.6400,0.4957 0.6514,0.4900 0.6571,0.4871 0.6657,0.4842 0.6800,0.4842 0.6857,0.4814 0.6971,0.4814 0.7086,0.4814 0.7143,0.4814 0.7171,0.4814 0.7229,0.4814 0.7286,0.4814 0.7343,0.4814 0.7400,0.4814 0.7429,0.4814 0.7514,0.4814 0.7543,0.4842 0.7600,0.4842 0.7743,0.4900 0.7886,0.4986 0.7943,0.5014 0.8143,0.5129 0.8229,0.5158 0.8429,0.5272 0.8486,0.5301 0.8571,0.5330 T0.8600,0.5330" />
	<path type="line" fill="none" point-count="34" stroke="rgb(0,0,0)" stroke-width="0.010" d="M0.5714,0.5473 L0.5714,0.5473 0.5743,0.5473 0.5771,0.5444 0.5800,0.5444 0.5857,0.5415 0.5886,0.5387 0.5914,0.5387 0.6029,0.5358 0.6200,0.5330 0.6229,0.5330 0.6400,0.5330 0.6429,0.5330 0.6657,0.5330 0.6857,0.5330 0.6886,0.5330 0.7029,0.5330 0.7114,0.5330 0.7229,0.5330 0.7286,0.5358 0.7371,0.5358 0.7486,0.5415 0.7514,0.5415 0.7600,0.5473 0.7657,0.5473 0.7857,0.5559 0.7886,0.5587 0.8057,0.5645 0.8086,0.5673 0.8229,0.5759 0.8343,0.5874 0.8400,0.5903 0.8429,0.5903 0.8429,0.5931 T0.8457,0.5960" />
	<path type="line" fill="none" point-count="38" stroke="rgb(0,0,0)" stroke-width="0.010" d="M0.5800,0.5731 L0.5800,0.5731 0.5829,0.5731 0.5857,0.5731 0.5886,0.5731 0.5914,0.5702 0.5943,0.5673 0.6029,0.5645 0.6057,0.5616 0.6200,0.5587 0.6286,0.5559 0.6343,0.5559 0.6486,0.5559 0.6514,0.5530 0.6629,0.5501 0.6657,0.5501 0.6829,0.5501 0.6886,0.5501 0.7057,0.5587 0.7143,0.5587 0.7171,0.5616 0.7257,0.5673 0.7343,0.5702 0.7400,0.5759 0.7457,0.5788 0.7600,0.5903 0.7829,0.6074 0.7886,0.6132 0.8086,0.6275 0.8143,0.6304 0.8257,0.6418 0.8343,0.6533 0.8371,0.6562 0.8400,0.6590 0.8400,0.6619 0.8457,0.6676 0.8486,0.6705 0.8514,0.6734 T0.8514,0.6762" />
	<path type="line" fill="none" point-count="276" stroke="rgb(255,0,0)" stroke-width="0.010" d="M0.4714,0.5845 L0.4714,0.5845 0.4714,0.5874 0.4714,0.5903 0.4714,0.5931 0.4714,0.5960 0.4714,0.5989 0.4714,0.6017 0.4714,0.6046 0.4686,0.6046 0.4657,0.6046 0.4629,0.6046 0.4629,0.6074 0.4629,0.6103 0.4600,0.6103 0.4600,0.6132 0.4571,0.6132 0.4571,0.6160 0.4571,0.6189 0.4543,0.6189 0.4543,0.6218 0.4543,0.6246 0.4543,0.6275 0.4543,0.6304 0.4514,0.6304 0.4514,0.6332 0.4514,0.6361 0.4514,0.6390 0.4514,0.6418 0.4514,0.6447 0.4514,0.6476 0.4514,0.6504 0.4514,0.6533 0.4514,0.6562 0.4514,0.6590 0.4543,0.6590 0.4571,0.6590 0.4600,0.6590 0.4629,0.6590 0.4657,0.6619 0.4686,0.6619 0.4714,0.6619 0.4743,0.6619 0.4771,0.6619 0.4800,0.6619 0.4829,0.6619 0.4829,0.6590 0.4857,0.6590 0.4886,0.6590 0.4914,0.6590 0.4943,0.6590 0.4971,0.6590 0.4971,0.6562 0.5000,0.6562 0.5000,0.6533 0.5029,0.6533 0.5029,0.6504 0.5057,0.6504 0.5086,0.6504 0.5086,0.6476 0.5086,0.6447 0.5086,0.6418 0.5086,0.6390 0.5086,0.6361 0.5086,0.6332 0.5086,0.6304 0.5086,0.6275 0.5057,0.6275 0.5029,0.6246 0.5000,0.6218 0.4971,0.6218 0.4971,0.6189 0.4943,0.6189 0.4914,0.6160 0.4914,0.6132 0.4886,0.6132 0.4857,0.6132 0.4857,0.6103 0.4829,0.6074 0.4800,0.6046 0.4800,0.6017 0.4800,0.5989 0.4800,0.5960 0.4800,0.5931 0.4800,0.5903 0.4800,0.5874 0.4771,0.5874 0.4771,0.5845 0.4771,0.5817 0.4771,0.5788 0.4771,0.5759 0.4771,0.5788 0.4771,0.5817 0.4771,0.5845 0.4771,0.5874 0.4771,0.5903 0.4771,0.5931 0.4771,0.5960 0.4771,0.5989 0.4771,0.6017 0.4771,0.6046 0.4771,0.6074 0.4771,0.6103 0.4771,0.6132 0.4800,0.6160 0.4800,0.6189 0.4800,0.6218 0.4800,0.6246 0.4800,0.6275 0.4800,0.6304 0.4800,0.6332 0.4771,0.6332 0.4743,0.6332 0.4743,0.6304 0.4714,0.6304 0.4714,0.6275 0.4743,0.6246 0.4771,0.6246 0.4771,0.6275 0.4771,0.6304 0.4743,0.6304 0.4714,0.6304 0.4714,0.6332 0.4686,0.6332 0.4657,0.6332 0.4629,0.6361 0.4600,0.6361 0.4600,0.6332 0.4600,0.6304 0.4600,0.6275 0.4629,0.6246 0.4629,0.6218 0.4657,0.6218 0.4657,0.6189 0.4686,0.6189 0.4686,0.6218 0.4686,0.6246 0.4686,0.6275 0.4686,0.6304 0.4657,0.6304 0.4657,0.6332 0.4657,0.6304 0.4629,0.6304 0.4629,0.6275 0.4629,0.6246 0.4657,0.6218 0.4686,0.6218 0.4686,0.6189 0.4714,0.6189 0.4743,0.6160 0.4771,0.6160 0.4800,0.6160 0.4800,0.6189 0.4800,0.6218 0.4800,0.6246 0.4800,0.6304 0.4800,0.6332 0.4800,0.6361 0.4743,0.6390 0.4714,0.6390 0.4714,0.6418 0.4686,0.6418 0.4686,0.6390 0.4686,0.6361 0.4714,0.6361 0.4743,0.6332 0.4771,0.6332 0.4829,0.6304 0.4886,0.6275 0.4914,0.6275 0.4943,0.6275 0.4943,0.6304 0.4914,0.6304 0.4886,0.6332 0.4857,0.6332 0.4829,0.6361 0.4800,0.6361 0.4743,0.6361 0.4743,0.6390 0.4714,0.6390 0.4743,0.6390 0.4771,0.6390 0.4771,0.6361 0.4800,0.6361 0.4829,0.6332 0.4857,0.6332 0.4886,0.6332 0.4943,0.6332 0.4971,0.6332 0.4971,0.6304 0.5000,0.6304 0.4971,0.6304 0.4943,0.6304 0.4943,0.6332 0.4914,0.6332 0.4886,0.6361 0.4857,0.6361 0.4800,0.6390 0.4771,0.6418 0.4743,0.6418 0.4714,0.6418 0.4714,0.6447 0.4686,0.6447 0.4657,0.6447 0.4629,0.6447 0.4600,0.6447 0.4571,0.6447 0.4543,0.6418 0.4514,0.6418 0.4514,0.6390 0.4514,0.6418 0.4543,0.6447 0.4571,0.6476 0.4600,0.6476 0.4600,0.6504 0.4629,0.6533 0.4657,0.6533 0.4686,0.6533 0.4714,0.6533 0.4743,0.6533 0.4771,0.6533 0.4800,0.6533 0.4800,0.6504 0.4829,0.6504 0.4857,0.6504 0.4857,0.6476 0.4886,0.6476 0.4914,0.6476 0.4943,0.6476 0.4943,0.6447 0.4971,0.6447 0.4971,0.6418 0.5000,0.6418 0.5000,0.6390 0.5000,0.6361 0.5000,0.6332 0.5000,0.6304 0.5000,0.6275 0.5000,0.6304 0.5000,0.6332 0.4971,0.6361 0.4971,0.6390 0.4943,0.6418 0.4914,0.6447 0.4914,0.6476 0.4914,0.6504 0.4886,0.6504 0.4886,0.6533 0.4857,0.6533 0.4829,0.6533 0.4800,0.6533 0.4771,0.6533 0.4743,0.6533 0.4714,0.6533 0.4743,0.6533 0.4743,0.6504 0.4771,0.6504 0.4771,0.6476 0.4800,0.6476 0.4800,0.6418 0.4829,0.6390 0.4829,0.6361 0.4829,0.6332 0.4829,0.6304 0.4857,0.6275 0.4857,0.6246 0.4857,0.6218 0.4857,0.6189 0.4857,0.6160 0.4829,0.6132 0.4829,0.6103 0.4800,0.6074 0.4771,0.6046 0.4771,0.6017 0.4743,0.5989 0.4743,0.5960 T0.4714,0.5931" />
	<path type="line" fill="none" point-count="113" stroke="rgb(0,0,255)" stroke-width="0.010" d="M0.4114,0.3954 L0.4114,0.3954 0.4086,0.3954 0.4057,0.3954 0.4029,0.3983 0.4000,0.3983 0.3971,0.3983 0.3943,0.3983 0.3914,0.3983 0.3886,0.3983 0.3857,0.3983 0.3857,0.3954 0.3829,0.3926 0.3829,0.3897 0.3829,0.3868 0.3857,0.3868 0.3886,0.3868 0.3886,0.3840 0.3943,0.3811 0.3971,0.3811 0.4000,0.3811 0.4029,0.3811 0.4029,0.3782 0.4057,0.3782 0.4086,0.3754 0.4114,0.3754 0.4114,0.3782 0.4143,0.3782 0.4143,0.3811 0.4171,0.3811 0.4171,0.3840 0.4171,0.3868 0.4171,0.3897 0.4143,0.3897 0.4114,0.3926 0.4086,0.3926 0.4057,0.3954 0.4029,0.3954 0.4000,0.3954 0.3971,0.3954 0.3914,0.3983 0.3886,0.3983 0.3857,0.3983 0.3857,0.3954 0.3886,0.3954 0.3886,0.3926 0.3914,0.3926 0.3943,0.3926 0.4000,0.3897 0.4029,0.3897 0.4086,0.3868 0.4086,0.3840 0.4114,0.3840 0.4143,0.3840 0.4171,0.3840 0.4200,0.3840 0.4200,0.3868 0.4200,0.3897 0.4200,0.3926 0.4171,0.3954 0.4143,0.3954 0.4143,0.3983 0.4114,0.3983 0.4086,0.3983 0.4086,0.4011 0.4057,0.4011 0.4029,0.4011 0.4000,0.4011 0.3971,0.4011 0.3943,0.3954 0.3914,0.3926 0.3914,0.3897 0.3886,0.3868 0.3886,0.3840 0.3886,0.3811 0.3914,0.3811 0.3943,0.3811 0.3971,0.3811 0.4000,0.3811 0.4029,0.3811 0.4057,0.3811 0.4086,0.3811 0.4143,0.3811 0.4143,0.3840 0.4171,0.3840 0.4200,0.3840 0.4200,0.3868 0.4200,0.3897 0.4200,0.3926 0.4171,0.3926 0.4171,0.3954 0.4143,0.3954 0.4114,0.3983 0.4086,0.3983 0.4029,0.4011 0.4000,0.4011 0.3971,0.4011 0.3943,0.4011 0.3914,0.4011 0.3886,0.4011 0.3857,0.3983 0.3829,0.3954 0.3829,0.3926 0.3829,0.3897 0.3857,0.3897 0.3857,0.3868 0.3914,0.3868 0.3943,0.3840 0.3971,0.3840 0.4000,0.3840 0.3971,0.3840 0.3971,0.3868 0.3943,0.3868 T0.3914,0.3868" />
	<path type="line" fill="none" point-count="52" stroke="rgb(0,0,255)" stroke-width="0.010" d="M0.5343,0.4011 L0.5343,0.4011 0.5314,0.4011 0.5314,0.3983 0.5343,0.3954 0.5343,0.3926 0.5371,0.3926 0.5400,0.3897 0.5429,0.3868 0.5457,0.3868 0.5486,0.3868 0.5514,0.3868 0.5543,0.3868 0.5543,0.3897 0.5543,0.3926 0.5514,0.3926 0.5514,0.3954 0.5486,0.3954 0.5457,0.3954 0.5429,0.3954 0.5400,0.3983 0.5371,0.3983 0.5314,0.3983 0.5286,0.3983 0.5286,0.3954 0.5314,0.3954 0.5343,0.3954 0.5343,0.3926 0.5371,0.3926 0.5457,0.3926 0.5514,0.3926 0.5543,0.3926 0.5571,0.3926 0.5600,0.3897 0.5600,0.3926 0.5600,0.3954 0.5571,0.3954 0.5571,0.3983 0.5543,0.3983 0.5514,0.3983 0.5457,0.3983 0.5400,0.3983 0.5371,0.3983 0.5343,0.3983 0.5286,0.3983 0.5257,0.3954 0.5257,0.3926 0.5286,0.3926 0.5286,0.3897 0.5314,0.3897 0.5343,0.3897 0.5343,0.3868 T0.5371,0.3868" />
</g>
</svg>
