<svg width="12cm" height="12cm" viewBox="0 0 1 1">
<g id="RedFlower" type="iconel" clip-path="url(#ClipPath)" >
<g type="clip-iconel" clip-rule="nonzero" >
<clipPath id="ClipPath" >
	<path type="line" fill="none" point-count="492" stroke="rgb(255,0,0)" stroke-width="0.020" d="M0.8714,1.0000 L0.8714,0.9799 0.8714,0.9742 0.8714,0.9713 0.8771,0.9628 0.8857,0.9312 0.8914,0.9226 0.8914,0.9054 0.8914,0.8968 0.8971,0.8825 0.9000,0.8653 0.9000,0.8539 0.9000,0.8367 0.9000,0.8166 0.8971,0.7994 0.8943,0.7880 0.8857,0.7622 0.8800,0.7393 0.8743,0.7278 0.8657,0.7049 0.8600,0.6963 0.8543,0.6819 0.8514,0.6705 0.8429,0.6533 0.8371,0.6418 0.8314,0.6332 0.8229,0.6189 0.8114,0.6103 0.8086,0.6046 0.8000,0.5960 0.7914,0.5874 0.7829,0.5817 0.7714,0.5731 0.7657,0.5673 0.7600,0.5616 0.7486,0.5530 0.7343,0.5473 0.7257,0.5415 0.7114,0.5387 0.7057,0.5358 0.7000,0.5358 0.6943,0.5330 0.6886,0.5301 0.6771,0.5301 0.6743,0.5272 0.6629,0.5272 0.6571,0.5272 0.6543,0.5272 0.6543,0.5244 0.6600,0.5215 0.6657,0.5186 0.6743,0.5186 0.6771,0.5129 0.6857,0.5129 0.6914,0.5100 0.7000,0.5100 0.7086,0.5043 0.7114,0.4986 0.7143,0.4928 0.7171,0.4871 0.7200,0.4814 0.7229,0.4785 0.7286,0.4699 0.7286,0.4642 0.7314,0.4556 0.7343,0.4527 0.7371,0.4499 0.7400,0.4499 0.7400,0.4441 0.7429,0.4327 0.7457,0.4269 0.7457,0.4212 0.7457,0.4155 0.7457,0.4069 0.7457,0.3983 0.7457,0.3954 0.7457,0.3868 0.7457,0.3754 0.7457,0.3668 0.7429,0.3639 0.7429,0.3524 0.7400,0.3410 0.7400,0.3324 0.7371,0.3266 0.7343,0.3209 0.7286,0.3095 0.7229,0.3009 0.7200,0.2951 0.7143,0.2923 0.7086,0.2837 0.7057,0.2808 0.6943,0.2751 0.6886,0.2722 0.6829,0.2693 0.6771,0.2636 0.6743,0.2636 0.6686,0.2607 0.6629,0.2607 0.6600,0.2607 0.6543,0.2607 0.6486,0.2607 0.6486,0.2579 0.6429,0.2579 0.6371,0.2579 0.6343,0.2579 0.6343,0.2550 0.6343,0.2521 0.6343,0.2493 0.6371,0.2464 0.6371,0.2378 0.6400,0.2321 0.6429,0.2292 0.6429,0.2178 0.6429,0.2120 0.6429,0.2092 0.6429,0.2034 0.6429,0.1977 0.6429,0.1920 0.6400,0.1862 0.6400,0.1805 0.6371,0.1719 0.6314,0.1691 0.6286,0.1605 0.6229,0.1547 0.6200,0.1461 0.6171,0.1433 0.6114,0.1404 0.6029,0.1375 0.6000,0.1347 0.5943,0.1289 0.5857,0.1232 0.5771,0.1203 0.5743,0.1203 0.5657,0.1146 0.5543,0.1117 0.5486,0.1089 0.5343,0.1032 0.5229,0.1003 0.5143,0.0974 0.4943,0.0946 0.4886,0.0946 0.4857,0.0946 0.4771,0.0917 0.4657,0.0917 0.4600,0.0917 0.4514,0.0917 0.4486,0.0917 0.4400,0.0917 0.4343,0.0917 0.4286,0.0917 0.4229,0.0917 0.4200,0.0917 0.4229,0.0917 0.4229,0.0860 0.4257,0.0802 0.4257,0.0745 0.4257,0.0688 0.4200,0.0630 0.4114,0.0544 0.4029,0.0458 0.3829,0.0344 0.3686,0.0258 0.3657,0.0258 0.3600,0.0229 0.3514,0.0201 0.3314,0.0172 0.3171,0.0172 0.2943,0.0172 0.2686,0.0172 0.2543,0.0172 0.2343,0.0172 0.2143,0.0172 0.2086,0.0201 0.1943,0.0229 0.1857,0.0287 0.1771,0.0315 0.1686,0.0372 0.1629,0.0401 0.1600,0.0458 0.1514,0.0516 0.1486,0.0573 0.1457,0.0630 0.1429,0.0688 0.1400,0.0745 0.1371,0.0774 0.1343,0.0831 0.1314,0.0888 0.1286,0.0946 0.1257,0.0974 0.1257,0.1060 0.1257,0.1117 0.1257,0.1175 0.1257,0.1203 0.1257,0.1261 0.1286,0.1318 0.1314,0.1347 0.1314,0.1375 0.1343,0.1404 0.1371,0.1433 0.1343,0.1433 0.1314,0.1433 0.1257,0.1433 0.1229,0.1433 0.1143,0.1433 0.1086,0.1461 0.1000,0.1461 0.0914,0.1490 0.0829,0.1490 0.0800,0.1490 0.0771,0.1519 0.0686,0.1576 0.0657,0.1605 0.0629,0.1633 0.0543,0.1662 0.0514,0.1719 0.0514,0.1748 0.0457,0.1777 0.0400,0.1777 0.0371,0.1805 0.0343,0.1834 0.0314,0.1862 0.0286,0.1891 0.0286,0.1948 0.0257,0.2006 0.0229,0.2034 0.0200,0.2063 0.0171,0.2092 0.0143,0.2120 0.0143,0.2178 0.0143,0.2235 0.0114,0.2264 0.0114,0.2321 0.0086,0.2350 0.0086,0.2378 0.0057,0.2378 0.0057,0.2436 0.0029,0.2493 0.0000,0.2521 0.0000,0.2607 -0.0029,0.2665 -0.0029,0.3754 0.0000,0.3811 0.0000,0.3868 0.0029,0.3926 0.0057,0.3954 0.0086,0.4011 0.0143,0.4097 0.0171,0.4097 0.0200,0.4126 0.0229,0.4155 0.0257,0.4212 0.0286,0.4212 0.0314,0.4241 0.0343,0.4269 0.0400,0.4298 0.0429,0.4298 0.0457,0.4327 0.0514,0.4327 0.0543,0.4327 0.0543,0.4355 0.0571,0.4355 0.0600,0.4355 0.0600,0.4384 0.0600,0.4413 0.0571,0.4499 0.0543,0.4585 0.0543,0.4670 0.0543,0.4756 0.0543,0.4842 0.0543,0.4928 0.0600,0.4986 0.0629,0.5043 0.0714,0.5158 0.0771,0.5272 0.0800,0.5330 0.0829,0.5330 0.0857,0.5415 0.0943,0.5473 0.1057,0.5587 0.1086,0.5645 0.1143,0.5731 0.1200,0.5788 0.1286,0.5845 0.1343,0.5874 0.1429,0.5903 0.1457,0.5931 0.1486,0.5960 0.1514,0.5989 0.1571,0.6017 0.1657,0.6046 0.1686,0.6074 0.1714,0.6074 0.1800,0.6103 0.1886,0.6160 0.1971,0.6160 0.2029,0.6160 0.2086,0.6189 0.2200,0.6189 0.2257,0.6189 0.2314,0.6189 0.2371,0.6189 0.2400,0.6189 0.2486,0.6189 0.2543,0.6189 0.2571,0.6189 0.2600,0.6189 0.2629,0.6189 0.2686,0.6189 0.2714,0.6189 0.2686,0.6189 0.2657,0.6218 0.2600,0.6275 0.2600,0.6304 0.2543,0.6361 0.2543,0.6447 0.2514,0.6504 0.2514,0.6590 0.2514,0.6648 0.2486,0.6762 0.2457,0.6791 0.2457,0.6848 0.2429,0.6905 0.2371,0.6934 0.2343,0.6991 0.2286,0.7049 0.2229,0.7135 0.2143,0.7249 0.2086,0.7335 0.2029,0.7364 0.1971,0.7421 0.1886,0.7479 0.1771,0.7564 0.1714,0.7622 0.1629,0.7679 0.1571,0.7679 0.1514,0.7708 0.1429,0.7765 0.1314,0.7822 0.1200,0.7851 0.1057,0.7908 0.1000,0.7908 0.0943,0.7966 0.0771,0.7966 0.0714,0.7994 0.0600,0.8023 0.0543,0.8023 0.0457,0.8023 0.0457,0.8052 0.0400,0.8052 0.0371,0.8052 0.0314,0.8080 0.0286,0.8080 0.0286,0.8109 0.0286,0.8138 0.0286,0.8166 0.0286,0.8195 0.0257,0.8195 0.0257,0.8252 0.0257,0.8281 0.0257,0.8309 0.0257,0.8338 0.0257,0.8367 0.0257,0.8424 0.0257,0.8453 0.0257,0.8481 0.0257,0.8567 0.0257,0.8625 0.0257,0.8682 0.0257,0.8711 0.0286,0.8768 0.0286,0.8825 0.0314,0.8883 0.0314,0.8911 0.0343,0.8968 0.0371,0.8997 0.0400,0.8997 0.0429,0.9026 0.0486,0.9054 0.0571,0.9112 0.0657,0.9169 0.0800,0.9226 0.0914,0.9226 0.1000,0.9226 0.1086,0.9255 0.1200,0.9284 0.1314,0.9284 0.1400,0.9284 0.1514,0.9284 0.1571,0.9284 0.1629,0.9284 0.1714,0.9284 0.1771,0.9312 0.1886,0.9341 0.1971,0.9370 0.2086,0.9370 0.2200,0.9398 0.2343,0.9427 0.2429,0.9427 0.2514,0.9456 0.2600,0.9456 0.2771,0.9484 0.2857,0.9513 0.2943,0.9513 0.3057,0.9513 0.3200,0.9513 0.3257,0.9513 0.3314,0.9513 0.3400,0.9513 0.3486,0.9513 0.3543,0.9484 0.3629,0.9484 0.3743,0.9456 0.3857,0.9456 0.3914,0.9427 0.3971,0.9427 0.4029,0.9398 0.4086,0.9398 0.4171,0.9370 0.4286,0.9370 0.4343,0.9341 0.4371,0.9312 0.4400,0.9312 0.4457,0.9284 0.4543,0.9284 0.4657,0.9255 0.4686,0.9198 0.4743,0.9198 0.4857,0.9198 0.4943,0.9169 0.5029,0.9169 0.5114,0.9140 0.5200,0.9112 0.5257,0.9112 0.5257,0.9054 0.5286,0.9026 0.5343,0.8997 0.5400,0.8968 0.5429,0.8911 0.5514,0.8854 0.5571,0.8854 0.5629,0.8797 0.5714,0.8711 0.5771,0.8682 0.5800,0.8596 0.5857,0.8539 0.5857,0.8453 0.5857,0.8367 0.5886,0.8281 0.5914,0.8223 0.5914,0.8138 0.5914,0.8052 0.5914,0.7994 0.5914,0.7966 0.5914,0.7937 0.5914,0.7908 0.5943,0.7908 0.5971,0.7937 0.6029,0.7994 0.6057,0.8052 0.6057,0.8109 0.6086,0.8195 0.6114,0.8252 0.6143,0.8338 0.6171,0.8424 0.6200,0.8510 0.6200,0.8567 0.6200,0.8653 0.6229,0.8711 0.6229,0.8825 0.6229,0.8854 0.6229,0.8940 0.6229,0.8997 0.6229,0.9054 0.6229,0.9112 0.6229,0.9140 0.6229,0.9198 0.6229,0.9255 0.6229,0.9312 0.6229,0.9370 0.6229,0.9427 0.6229,0.9484 0.6229,0.9513 0.6229,0.9570 0.6200,0.9599 0.6200,0.9656 0.6200,0.9685 0.6171,0.9685 0.6171,0.9713 0.6143,0.9713 0.6143,0.9742 0.6143,0.9771 0.6114,0.9771 T0.6114,1.0000" />
</clipPath>
</g>
<g type="background-iconel" >
	<rect type="rectangle" x="0.000" y="0.000" width="1.000" height="1.000" fill="rgb(255,255,255)" stroke="rgb(255,255,255)" stroke-width="0.010" />
</g>
	<path type="line" fill="none" point-count="586" stroke="rgb(255,0,0)" stroke-width="0.010" d="M0.3686,0.3496 L0.3686,0.3496 0.3657,0.3496 0.3629,0.3496 0.3600,0.3524 0.3571,0.3524 0.3543,0.3524 0.3514,0.3553 0.3486,0.3553 0.3457,0.3582 0.3429,0.3582 0.3400,0.3582 0.3371,0.3582 0.3343,0.3582 0.3343,0.3610 0.3314,0.3610 0.3286,0.3610 0.3257,0.3639 0.3229,0.3639 0.3200,0.3668 0.3171,0.3668 0.3143,0.3668 0.3086,0.3668 0.3057,0.3668 0.3029,0.3668 0.3000,0.3668 0.2971,0.3668 0.2943,0.3668 0.2914,0.3668 0.2886,0.3668 0.2857,0.3668 0.2829,0.3668 0.2800,0.3668 0.2771,0.3668 0.2771,0.3639 0.2743,0.3639 0.2743,0.3610 0.2743,0.3582 0.2714,0.3553 0.2714,0.3524 0.2714,0.3496 0.2714,0.3467 0.2686,0.3467 0.2686,0.3438 0.2686,0.3410 0.2686,0.3381 0.2686,0.3352 0.2686,0.3324 0.2714,0.3295 0.2714,0.3266 0.2743,0.3266 0.2743,0.3238 0.2771,0.3238 0.2800,0.3238 0.2800,0.3209 0.2829,0.3209 0.2857,0.3209 0.2886,0.3209 0.2914,0.3209 0.2943,0.3209 0.2971,0.3209 0.2971,0.3238 0.3000,0.3238 0.3029,0.3238 0.3029,0.3266 0.3057,0.3266 0.3057,0.3295 0.3086,0.3295 0.3086,0.3324 0.3086,0.3352 0.3114,0.3352 0.3143,0.3352 0.3171,0.3352 0.3200,0.3352 0.3229,0.3352 0.3257,0.3352 0.3257,0.3381 0.3286,0.3381 0.3314,0.3381 0.3343,0.3381 0.3371,0.3381 0.3371,0.3410 0.3400,0.3410 0.3429,0.3410 0.3429,0.3438 0.3457,0.3438 0.3486,0.3438 0.3486,0.3467 0.3514,0.3467 0.3543,0.3467 0.3571,0.3496 0.3600,0.3524 0.3629,0.3524 0.3629,0.3553 0.3657,0.3553 0.3686,0.3553 0.3714,0.3553 0.3743,0.3553 0.3743,0.3524 0.3714,0.3524 0.3686,0.3524 0.3686,0.3496 0.3657,0.3496 0.3629,0.3496 0.3600,0.3496 0.3600,0.3467 0.3571,0.3467 0.3543,0.3467 0.3514,0.3467 0.3486,0.3467 0.3457,0.3467 0.3457,0.3438 0.3429,0.3438 0.3400,0.3438 0.3371,0.3410 0.3314,0.3381 0.3286,0.3381 0.3286,0.3352 0.3229,0.3352 0.3200,0.3352 0.3200,0.3324 0.3171,0.3324 0.3171,0.3295 0.3143,0.3295 0.3143,0.3266 0.3114,0.3266 0.3114,0.3238 0.3086,0.3238 0.3086,0.3209 0.3086,0.3181 0.3057,0.3181 0.3057,0.3152 0.3057,0.3123 0.3057,0.3095 0.3057,0.3066 0.3057,0.3037 0.3057,0.2980 0.3057,0.2951 0.3057,0.2923 0.3057,0.2894 0.3057,0.2865 0.3086,0.2865 0.3114,0.2865 0.3143,0.2837 0.3171,0.2837 0.3200,0.2808 0.3229,0.2808 0.3257,0.2808 0.3286,0.2808 0.3314,0.2808 0.3343,0.2808 0.3371,0.2808 0.3400,0.2808 0.3429,0.2808 0.3457,0.2808 0.3486,0.2808 0.3514,0.2808 0.3543,0.2808 0.3543,0.2837 0.3571,0.2837 0.3600,0.2837 0.3600,0.2865 0.3657,0.2865 0.3714,0.2865 0.3743,0.2894 0.3771,0.2894 0.3771,0.2923 0.3800,0.2923 0.3800,0.2951 0.3800,0.2980 0.3829,0.2980 0.3829,0.3009 0.3829,0.3037 0.3857,0.3037 0.3857,0.3066 0.3857,0.3095 0.3857,0.3123 0.3857,0.3152 0.3857,0.3181 0.3857,0.3209 0.3857,0.3238 0.3857,0.3266 0.3857,0.3295 0.3829,0.3324 0.3829,0.3352 0.3829,0.3381 0.3829,0.3410 0.3829,0.3438 0.3800,0.3438 0.3800,0.3467 0.3800,0.3496 0.3800,0.3524 0.3771,0.3524 0.3771,0.3553 0.3771,0.3524 0.3771,0.3496 0.3771,0.3467 0.3771,0.3438 0.3771,0.3410 0.3800,0.3410 0.3800,0.3381 0.3800,0.3352 0.3829,0.3352 0.3829,0.3324 0.3829,0.3295 0.3829,0.3266 0.3857,0.3266 0.3857,0.3238 0.3857,0.3209 0.3886,0.3209 0.3886,0.3181 0.3886,0.3152 0.3914,0.3123 0.3943,0.3123 0.3943,0.3095 0.3971,0.3095 0.3971,0.3066 0.3971,0.3037 0.4000,0.3009 0.4000,0.2980 0.4029,0.2980 0.4029,0.2951 0.4029,0.2923 0.4057,0.2923 0.4086,0.2894 0.4114,0.2894 0.4143,0.2894 0.4171,0.2894 0.4200,0.2894 0.4229,0.2894 0.4257,0.2894 0.4257,0.2923 0.4286,0.2923 0.4314,0.2951 0.4343,0.2980 0.4343,0.3009 0.4371,0.3009 0.4400,0.3037 0.4400,0.3066 0.4429,0.3095 0.4429,0.3123 0.4429,0.3152 0.4429,0.3181 0.4400,0.3181 0.4400,0.3209 0.4371,0.3209 0.4371,0.3238 0.4343,0.3238 0.4343,0.3266 0.4314,0.3266 0.4314,0.3295 0.4286,0.3324 0.4257,0.3324 0.4257,0.3352 0.4229,0.3352 0.4229,0.3381 0.4200,0.3381 0.4200,0.3410 0.4171,0.3410 0.4143,0.3410 0.4114,0.3410 0.4086,0.3410 0.4057,0.3410 0.4029,0.3410 0.4000,0.3410 0.3971,0.3410 0.3943,0.3410 0.3914,0.3410 0.3886,0.3410 0.3857,0.3410 0.3857,0.3438 0.3829,0.3438 0.3829,0.3467 0.3800,0.3467 0.3800,0.3496 0.3771,0.3496 0.3771,0.3524 0.3743,0.3524 0.3771,0.3524 0.3800,0.3524 0.3829,0.3524 0.3829,0.3496 0.3857,0.3496 0.3914,0.3496 0.3943,0.3496 0.3971,0.3496 0.4000,0.3496 0.4000,0.3467 0.4029,0.3467 0.4057,0.3467 0.4086,0.3467 0.4086,0.3438 0.4114,0.3438 0.4143,0.3438 0.4171,0.3438 0.4171,0.3410 0.4200,0.3410 0.4229,0.3410 0.4257,0.3410 0.4286,0.3410 0.4314,0.3410 0.4343,0.3410 0.4343,0.3438 0.4371,0.3438 0.4400,0.3467 0.4429,0.3496 0.4457,0.3524 0.4486,0.3553 0.4486,0.3582 0.4514,0.3582 0.4514,0.3610 0.4514,0.3639 0.4543,0.3639 0.4543,0.3668 0.4543,0.3696 0.4543,0.3725 0.4543,0.3754 0.4543,0.3782 0.4514,0.3782 0.4486,0.3782 0.4457,0.3782 0.4429,0.3782 0.4400,0.3782 0.4371,0.3782 0.4343,0.3782 0.4314,0.3782 0.4257,0.3782 0.4229,0.3754 0.4200,0.3754 0.4171,0.3754 0.4143,0.3754 0.4114,0.3754 0.4086,0.3754 0.4086,0.3725 0.4057,0.3725 0.4029,0.3696 0.4000,0.3696 0.3971,0.3696 0.3943,0.3696 0.3914,0.3696 0.3886,0.3668 0.3857,0.3668 0.3829,0.3639 0.3829,0.3610 0.3800,0.3582 0.3771,0.3553 0.3771,0.3524 0.3743,0.3524 0.3743,0.3496 0.3743,0.3467 0.3714,0.3467 0.3743,0.3467 0.3743,0.3496 0.3771,0.3496 0.3771,0.3524 0.3800,0.3524 0.3800,0.3553 0.3829,0.3553 0.3857,0.3582 0.3857,0.3610 0.3886,0.3610 0.3914,0.3639 0.3914,0.3668 0.3914,0.3696 0.3943,0.3696 0.3971,0.3696 0.3971,0.3725 0.4000,0.3754 0.4029,0.3754 0.4029,0.3782 0.4029,0.3811 0.4029,0.3840 0.4057,0.3840 0.4057,0.3868 0.4057,0.3897 0.4057,0.3926 0.4057,0.3954 0.4057,0.3983 0.4057,0.4011 0.4057,0.4040 0.4029,0.4069 0.4029,0.4097 0.4000,0.4097 0.4000,0.4126 0.3971,0.4126 0.3943,0.4126 0.3943,0.4155 0.3914,0.4155 0.3886,0.4155 0.3857,0.4155 0.3829,0.4155 0.3829,0.4126 0.3800,0.4126 0.3800,0.4097 0.3771,0.4097 0.3743,0.4069 0.3714,0.4069 0.3714,0.4040 0.3714,0.4011 0.3686,0.4011 0.3657,0.3983 0.3629,0.3983 0.3629,0.3954 0.3629,0.3926 0.3600,0.3926 0.3600,0.3897 0.3571,0.3868 0.3543,0.3868 0.3543,0.3840 0.3543,0.3811 0.3514,0.3811 0.3514,0.3782 0.3514,0.3754 0.3486,0.3754 0.3486,0.3725 0.3457,0.3725 0.3457,0.3696 0.3457,0.3668 0.3457,0.3639 0.3457,0.3610 0.3486,0.3582 0.3514,0.3553 0.3514,0.3582 0.3514,0.3610 0.3514,0.3639 0.3514,0.3668 0.3543,0.3696 0.3543,0.3725 0.3543,0.3754 0.3543,0.3782 0.3543,0.3811 0.3543,0.3840 0.3543,0.3868 0.3543,0.3897 0.3543,0.3926 0.3543,0.3954 0.3543,0.3983 0.3543,0.4011 0.3514,0.4011 0.3514,0.4040 0.3514,0.4069 0.3457,0.4097 0.3429,0.4097 0.3429,0.4126 0.3400,0.4126 0.3371,0.4126 0.3343,0.4126 0.3343,0.4155 0.3314,0.4155 0.3286,0.4155 0.3257,0.4155 0.3229,0.4155 0.3200,0.4155 0.3171,0.4155 0.3143,0.4155 0.3114,0.4155 0.3114,0.4126 0.3086,0.4126 0.3086,0.4097 0.3086,0.4069 0.3057,0.4069 0.3057,0.4040 0.3057,0.4011 0.3057,0.3983 0.3057,0.3954 0.3057,0.3926 0.3057,0.3897 0.3057,0.3868 0.3057,0.3840 0.3057,0.3811 0.3057,0.3782 0.3086,0.3782 0.3086,0.3754 0.3114,0.3725 0.3143,0.3725 0.3143,0.3696 0.3171,0.3696 0.3200,0.3696 0.3200,0.3668 0.3229,0.3668 0.3257,0.3668 0.3286,0.3668 0.3314,0.3668 0.3343,0.3639 0.3400,0.3610 0.3400,0.3582 0.3429,0.3582 0.3457,0.3582 0.3486,0.3582 0.3514,0.3582 0.3514,0.3553 0.3600,0.3496 0.3629,0.3496 0.3629,0.3467 0.3629,0.3438 0.3657,0.3438 0.3657,0.3410 0.3629,0.3410 0.3629,0.3438 0.3600,0.3467 0.3600,0.3496 0.3600,0.3524 0.3600,0.3553 0.3600,0.3582 0.3600,0.3610 0.3600,0.3639 0.3600,0.3668 0.3629,0.3668 0.3657,0.3668 0.3657,0.3696 0.3686,0.3696 0.3714,0.3696 0.3743,0.3696 0.3771,0.3696 0.3800,0.3696 0.3829,0.3696 0.3857,0.3696 0.3857,0.3668 0.3857,0.3639 0.3857,0.3610 0.3829,0.3553 0.3829,0.3524 0.3800,0.3524 0.3771,0.3496 0.3743,0.3496 0.3743,0.3467 0.3714,0.3467 0.3686,0.3467 0.3686,0.3438 0.3657,0.3438 0.3629,0.3438 0.3629,0.3467 0.3629,0.3496 0.3629,0.3524 0.3629,0.3553 0.3629,0.3582 0.3629,0.3610 0.3629,0.3639 0.3629,0.3668 0.3629,0.3696 0.3657,0.3696 0.3686,0.3696 0.3686,0.3668 0.3686,0.3639 0.3714,0.3610 0.3714,0.3582 0.3743,0.3582 0.3743,0.3553 0.3743,0.3524 0.3771,0.3524 0.3771,0.3496 0.3771,0.3467 0.3771,0.3438 0.3771,0.3410 0.3743,0.3410 0.3714,0.3410 0.3686,0.3410 0.3657,0.3410 0.3629,0.3410 0.3600,0.3410 0.3571,0.3410 0.3543,0.3410 0.3514,0.3438 0.3457,0.3496 0.3457,0.3524 0.3457,0.3553 0.3457,0.3582 0.3486,0.3582 0.3514,0.3610 0.3543,0.3610 0.3571,0.3610 0.3600,0.3610 0.3629,0.3610 0.3629,0.3582 0.3629,0.3553 0.3629,0.3524 0.3629,0.3496 0.3629,0.3467 0.3629,0.3438 0.3629,0.3467 0.3629,0.3496 0.3629,0.3524 0.3629,0.3553 0.3657,0.3553 0.3686,0.3553 0.3686,0.3524 T0.3714,0.3524" />
	<path type="line" fill="none" point-count="507" stroke="rgb(255,0,0)" stroke-width="0.050" d="M0.2886,0.3009 L0.2886,0.3009 0.2857,0.3009 0.2829,0.3009 0.2800,0.3009 0.2800,0.2980 0.2771,0.2980 0.2743,0.2951 0.2714,0.2951 0.2714,0.2923 0.2686,0.2894 0.2657,0.2865 0.2657,0.2837 0.2629,0.2837 0.2600,0.2808 0.2600,0.2779 0.2571,0.2751 0.2543,0.2722 0.2543,0.2693 0.2543,0.2665 0.2543,0.2636 0.2514,0.2579 0.2486,0.2550 0.2486,0.2521 0.2486,0.2493 0.2486,0.2464 0.2486,0.2407 0.2486,0.2378 0.2457,0.2321 0.2457,0.2292 0.2457,0.2235 0.2457,0.2206 0.2457,0.2149 0.2457,0.2120 0.2457,0.2063 0.2457,0.2034 0.2457,0.1977 0.2457,0.1948 0.2457,0.1891 0.2457,0.1834 0.2486,0.1805 0.2486,0.1777 0.2486,0.1748 0.2486,0.1719 0.2486,0.1691 0.2486,0.1662 0.2514,0.1633 0.2514,0.1576 0.2514,0.1547 0.2543,0.1547 0.2543,0.1519 0.2571,0.1490 0.2571,0.1461 0.2600,0.1433 0.2629,0.1404 0.2629,0.1375 0.2657,0.1347 0.2686,0.1318 0.2686,0.1289 0.2714,0.1289 0.2743,0.1261 0.2800,0.1261 0.2829,0.1261 0.2829,0.1232 0.2857,0.1232 0.2914,0.1232 0.2943,0.1232 0.2971,0.1203 0.3029,0.1203 0.3057,0.1203 0.3086,0.1203 0.3114,0.1203 0.3143,0.1203 0.3171,0.1203 0.3200,0.1203 0.3229,0.1203 0.3257,0.1203 0.3286,0.1232 0.3314,0.1232 0.3343,0.1232 0.3371,0.1261 0.3400,0.1289 0.3429,0.1289 0.3457,0.1318 0.3486,0.1347 0.3514,0.1375 0.3543,0.1404 0.3571,0.1433 0.3600,0.1461 0.3600,0.1490 0.3657,0.1547 0.3743,0.1662 0.3743,0.1691 0.3771,0.1719 0.3771,0.1748 0.3800,0.1777 0.3800,0.1805 0.3829,0.1834 0.3829,0.1891 0.3857,0.1920 0.3886,0.1977 0.3886,0.2006 0.3886,0.2034 0.3886,0.2063 0.3886,0.2092 0.3886,0.2120 0.3886,0.2149 0.3886,0.2206 0.3886,0.2235 0.3886,0.2264 0.3886,0.2292 0.3857,0.2292 0.3857,0.2321 0.3857,0.2350 0.3857,0.2378 0.3857,0.2407 0.3857,0.2436 0.3857,0.2464 0.3857,0.2493 0.3857,0.2521 0.3857,0.2550 0.3857,0.2579 0.3857,0.2607 0.3857,0.2636 0.3857,0.2665 0.3857,0.2693 0.3857,0.2722 0.3829,0.2722 0.3829,0.2693 0.3829,0.2665 0.3829,0.2636 0.3829,0.2607 0.3829,0.2579 0.3829,0.2550 0.3829,0.2521 0.3857,0.2493 0.3857,0.2464 0.3886,0.2407 0.3914,0.2378 0.3914,0.2350 0.3943,0.2321 0.3971,0.2321 0.3971,0.2264 0.3971,0.2235 0.4029,0.2149 0.4057,0.2120 0.4057,0.2063 0.4114,0.2034 0.4114,0.2006 0.4114,0.1977 0.4143,0.1948 0.4200,0.1920 0.4286,0.1862 0.4314,0.1834 0.4343,0.1834 0.4400,0.1805 0.4429,0.1805 0.4457,0.1805 0.4486,0.1777 0.4543,0.1777 0.4571,0.1748 0.4657,0.1748 0.4743,0.1748 0.4771,0.1748 0.4857,0.1748 0.4914,0.1748 0.4971,0.1748 0.5029,0.1748 0.5086,0.1748 0.5114,0.1748 0.5143,0.1748 0.5200,0.1748 0.5229,0.1748 0.5257,0.1748 0.5286,0.1777 0.5314,0.1805 0.5343,0.1834 0.5343,0.1862 0.5343,0.1891 0.5371,0.1891 0.5400,0.1920 0.5457,0.1977 0.5457,0.2006 0.5486,0.2034 0.5514,0.2092 0.5543,0.2120 0.5543,0.2149 0.5571,0.2178 0.5571,0.2206 0.5600,0.2235 0.5600,0.2264 0.5600,0.2292 0.5600,0.2321 0.5600,0.2350 0.5600,0.2378 0.5600,0.2407 0.5600,0.2436 0.5600,0.2464 0.5600,0.2493 0.5571,0.2579 0.5571,0.2607 0.5543,0.2636 0.5514,0.2665 0.5514,0.2693 0.5486,0.2722 0.5457,0.2751 0.5457,0.2779 0.5429,0.2808 0.5371,0.2837 0.5314,0.2837 0.5257,0.2837 0.5257,0.2865 0.5229,0.2865 0.5200,0.2894 0.5143,0.2894 0.5114,0.2894 0.5086,0.2923 0.5057,0.2923 0.5029,0.2951 0.5000,0.2951 0.4971,0.2951 0.4971,0.2980 0.4943,0.2980 0.4914,0.2980 0.4914,0.3009 0.4886,0.3009 0.4857,0.3037 0.4829,0.3037 0.4800,0.3037 0.4800,0.3066 0.4771,0.3066 0.4771,0.3095 0.4743,0.3095 0.4714,0.3095 0.4686,0.3123 0.4686,0.3152 0.4657,0.3152 0.4629,0.3152 0.4629,0.3181 0.4600,0.3181 0.4600,0.3209 0.4629,0.3209 0.4657,0.3209 0.4686,0.3209 0.4686,0.3181 0.4800,0.3181 0.4857,0.3152 0.4971,0.3152 0.5000,0.3152 0.5029,0.3152 0.5057,0.3152 0.5086,0.3152 0.5143,0.3152 0.5171,0.3152 0.5200,0.3152 0.5229,0.3152 0.5314,0.3152 0.5400,0.3181 0.5514,0.3238 0.5543,0.3266 0.5600,0.3295 0.5629,0.3295 0.5686,0.3324 0.5714,0.3352 0.5886,0.3438 0.5943,0.3496 0.6086,0.3610 0.6286,0.3668 0.6343,0.3725 0.6429,0.3754 0.6543,0.3811 0.6629,0.3897 0.6629,0.3926 0.6629,0.3954 0.6629,0.3983 0.6629,0.4011 0.6629,0.4040 0.6629,0.4069 0.6600,0.4097 0.6571,0.4126 0.6543,0.4155 0.6457,0.4212 0.6429,0.4212 0.6371,0.4241 0.6286,0.4327 0.6229,0.4355 0.6200,0.4384 0.6143,0.4441 0.6057,0.4470 0.5971,0.4556 0.5914,0.4585 0.5886,0.4585 0.5771,0.4613 0.5686,0.4613 0.5571,0.4613 0.5543,0.4642 0.5429,0.4642 0.5257,0.4642 0.5171,0.4642 0.5143,0.4642 0.5029,0.4613 0.4943,0.4585 0.4914,0.4556 0.4886,0.4527 0.4857,0.4499 0.4829,0.4499 0.4771,0.4441 0.4743,0.4413 0.4714,0.4413 0.4629,0.4355 0.4629,0.4327 0.4543,0.4269 0.4486,0.4241 0.4457,0.4212 0.4429,0.4212 0.4429,0.4183 0.4371,0.4155 0.4343,0.4126 0.4314,0.4097 0.4286,0.4097 0.4286,0.4069 0.4257,0.4069 0.4229,0.4040 0.4200,0.4011 0.4171,0.3983 0.4171,0.3954 0.4143,0.3954 0.4143,0.3983 0.4171,0.3983 0.4200,0.4040 0.4229,0.4097 0.4257,0.4126 0.4343,0.4212 0.4429,0.4327 0.4429,0.4355 0.4514,0.4441 0.4543,0.4499 0.4543,0.4585 0.4600,0.4642 0.4600,0.4670 0.4629,0.4728 0.4629,0.4814 0.4629,0.4871 0.4629,0.4957 0.4657,0.5014 0.4657,0.5072 0.4657,0.5158 0.4657,0.5215 0.4657,0.5301 0.4571,0.5387 0.4514,0.5444 0.4457,0.5530 0.4429,0.5559 0.4343,0.5673 0.4229,0.5731 0.4200,0.5759 0.4114,0.5759 0.3971,0.5759 0.3829,0.5759 0.3743,0.5759 0.3629,0.5731 0.3514,0.5673 0.3400,0.5645 0.3371,0.5616 0.3286,0.5587 0.3257,0.5501 0.3229,0.5473 0.3171,0.5387 0.3114,0.5301 0.3086,0.5186 0.3086,0.5158 0.3086,0.5100 0.3086,0.4986 0.3086,0.4957 0.3086,0.4900 0.3143,0.4814 0.3171,0.4785 0.3200,0.4699 0.3229,0.4699 0.3257,0.4642 0.3257,0.4585 0.3286,0.4527 0.3314,0.4499 0.3343,0.4499 0.3371,0.4441 0.3400,0.4441 0.3400,0.4413 0.3429,0.4413 0.3429,0.4355 0.3457,0.4327 0.3457,0.4298 0.3457,0.4241 0.3486,0.4212 0.3486,0.4183 0.3486,0.4155 0.3486,0.4126 0.3486,0.4155 0.3486,0.4183 0.3457,0.4183 0.3457,0.4212 0.3429,0.4212 0.3429,0.4241 0.3371,0.4269 0.3343,0.4298 0.3314,0.4298 0.3257,0.4327 0.3200,0.4413 0.3171,0.4413 0.3114,0.4441 0.3057,0.4499 0.2971,0.4556 0.2914,0.4613 0.2771,0.4642 0.2743,0.4642 0.2629,0.4670 0.2429,0.4699 0.2371,0.4728 0.2229,0.4728 0.2229,0.4756 0.2086,0.4756 0.1943,0.4756 0.1829,0.4756 0.1771,0.4756 0.1686,0.4728 0.1629,0.4728 0.1600,0.4699 0.1600,0.4670 0.1600,0.4642 0.1571,0.4585 0.1571,0.4499 0.1571,0.4470 0.1571,0.4413 0.1629,0.4269 0.1686,0.4212 0.1743,0.4126 0.1800,0.4097 0.1857,0.4040 0.1943,0.4040 0.2000,0.4011 0.2086,0.3983 0.2143,0.3954 0.2200,0.3926 0.2286,0.3926 0.2314,0.3897 0.2400,0.3897 0.2457,0.3897 0.2514,0.3897 0.2571,0.3897 0.2600,0.3897 0.2629,0.3897 0.2657,0.3897 0.2686,0.3897 0.2714,0.3897 0.2743,0.3897 0.2771,0.3897 0.2743,0.3868 0.2714,0.3868 0.2686,0.3868 0.2629,0.3868 0.2571,0.3868 0.2486,0.3868 0.2371,0.3868 0.2286,0.3868 0.2229,0.3868 0.2171,0.3897 0.2029,0.3897 0.1914,0.3926 0.1657,0.3926 0.1514,0.3926 0.1400,0.3897 0.1229,0.3811 0.1114,0.3782 0.1029,0.3725 0.0943,0.3668 0.0857,0.3582 0.0800,0.3524 0.0743,0.3438 0.0714,0.3381 0.0686,0.3295 0.0686,0.3181 0.0686,0.3095 0.0743,0.3009 0.0829,0.2894 0.0914,0.2808 0.1086,0.2693 0.1171,0.2607 0.1343,0.2550 0.1400,0.2521 0.1486,0.2521 0.1543,0.2521 0.1571,0.2521 0.1657,0.2550 0.1771,0.2550 0.1857,0.2579 0.1943,0.2636 0.2000,0.2665 0.2086,0.2722 0.2114,0.2751 0.2143,0.2779 0.2229,0.2837 0.2286,0.2894 0.2343,0.2951 0.2400,0.2980 0.2429,0.3009 0.2429,0.3066 0.2457,0.3095 0.2486,0.3123 T0.2514,0.3152" />
	<path type="line" fill="none" point-count="69" stroke="rgb(255,255,0)" stroke-width="0.010" d="M0.3229,0.3009 L0.3229,0.3009 0.3257,0.3009 0.3286,0.3009 0.3314,0.3009 0.3314,0.3037 0.3314,0.3066 0.3314,0.3095 0.3314,0.3123 0.3314,0.3152 0.3286,0.3152 0.3286,0.3123 0.3286,0.3066 0.3314,0.3037 0.3343,0.3009 0.3400,0.3009 0.3429,0.2980 0.3486,0.2980 0.3486,0.3009 0.3486,0.3037 0.3457,0.3123 0.3400,0.3181 0.3371,0.3209 0.3343,0.3209 0.3314,0.3209 0.3314,0.3152 0.3314,0.3095 0.3314,0.3009 0.3371,0.2923 0.3400,0.2894 0.3486,0.2865 0.3486,0.2894 0.3486,0.2923 0.3486,0.3037 0.3486,0.3123 0.3400,0.3181 0.3343,0.3181 0.3314,0.3181 0.3286,0.3181 0.3257,0.3095 0.3257,0.3066 0.3286,0.2980 0.3371,0.2923 0.3400,0.2923 0.3486,0.2951 0.3543,0.3037 0.3571,0.3095 0.3571,0.3181 0.3571,0.3238 0.3543,0.3295 0.3457,0.3324 0.3371,0.3324 0.3314,0.3295 0.3286,0.3238 0.3257,0.3066 0.3286,0.2980 0.3343,0.2923 0.3429,0.2923 0.3457,0.2923 0.3457,0.2951 0.3486,0.3066 0.3486,0.3123 0.3457,0.3152 0.3429,0.3181 0.3343,0.3181 0.3257,0.3095 0.3257,0.3037 0.3257,0.2980 0.3257,0.2894 T0.3286,0.2865" />
	<path type="line" fill="none" point-count="44" stroke="rgb(255,255,0)" stroke-width="0.010" d="M0.3000,0.3381 L0.3000,0.3381 0.3057,0.3381 0.3086,0.3381 0.3114,0.3381 0.3114,0.3410 0.3114,0.3438 0.3086,0.3438 0.3057,0.3467 0.3000,0.3467 0.2943,0.3467 0.2914,0.3438 0.2886,0.3410 0.2886,0.3381 0.2914,0.3352 0.2971,0.3324 0.3029,0.3295 0.3086,0.3295 0.3086,0.3324 0.3114,0.3381 0.3114,0.3438 0.3057,0.3438 0.3029,0.3467 0.2971,0.3467 0.2914,0.3467 0.2829,0.3467 0.2771,0.3410 0.2714,0.3381 0.2714,0.3324 0.2800,0.3266 0.2886,0.3266 0.2971,0.3266 0.3057,0.3324 0.3086,0.3381 0.3086,0.3410 0.3086,0.3438 0.3000,0.3496 0.2914,0.3496 0.2857,0.3496 0.2800,0.3438 0.2800,0.3410 0.2829,0.3410 0.2857,0.3410 0.2886,0.3410 T0.2914,0.3410" />
	<path type="line" fill="none" point-count="34" stroke="rgb(255,255,0)" stroke-width="0.010" d="M0.3314,0.3725 L0.3314,0.3725 0.3314,0.3754 0.3286,0.3782 0.3257,0.3811 0.3200,0.3840 0.3171,0.3840 0.3143,0.3840 0.3143,0.3811 0.3143,0.3754 0.3171,0.3754 0.3229,0.3725 0.3286,0.3725 0.3314,0.3725 0.3343,0.3754 0.3343,0.3782 0.3343,0.3840 0.3314,0.3868 0.3200,0.3926 0.3086,0.3926 0.3057,0.3926 0.3057,0.3897 0.3057,0.3868 0.3143,0.3811 0.3229,0.3811 0.3286,0.3782 0.3314,0.3811 0.3314,0.3868 0.3314,0.3926 0.3286,0.3983 0.3286,0.4011 0.3229,0.4011 0.3200,0.3983 0.3200,0.3954 T0.3200,0.3926" />
	<path type="line" fill="none" point-count="46" stroke="rgb(255,255,0)" stroke-width="0.010" d="M0.4029,0.3954 L0.4029,0.3954 0.4000,0.3954 0.3971,0.3954 0.3914,0.3954 0.3886,0.3954 0.3829,0.3926 0.3800,0.3897 0.3800,0.3840 0.3800,0.3811 0.3829,0.3782 0.3886,0.3754 0.3886,0.3782 0.3886,0.3840 0.3857,0.3897 0.3771,0.3926 0.3714,0.3926 0.3686,0.3926 0.3686,0.3897 0.3686,0.3840 0.3714,0.3782 0.3857,0.3696 0.3886,0.3696 0.3886,0.3725 0.3914,0.3782 0.3914,0.3868 0.3886,0.3954 0.3829,0.3983 0.3800,0.3983 0.3771,0.3983 0.3714,0.3954 0.3686,0.3897 0.3686,0.3782 0.3771,0.3725 0.3829,0.3725 0.3857,0.3754 0.3886,0.3782 0.3914,0.3840 0.3914,0.3897 0.3886,0.3954 0.3857,0.3954 0.3829,0.3954 0.3771,0.3983 0.3743,0.3983 0.3714,0.3983 0.3714,0.3926 T0.3714,0.3868" />
	<path type="line" fill="none" point-count="36" stroke="rgb(255,255,0)" stroke-width="0.010" d="M0.4171,0.3553 L0.4171,0.3553 0.4171,0.3524 0.4143,0.3496 0.4086,0.3410 0.4086,0.3381 0.4114,0.3381 0.4143,0.3381 0.4171,0.3410 0.4200,0.3438 0.4229,0.3496 0.4257,0.3553 0.4229,0.3553 0.4200,0.3553 0.4171,0.3553 0.4114,0.3524 0.4086,0.3496 0.4114,0.3467 0.4171,0.3438 0.4200,0.3438 0.4257,0.3467 0.4286,0.3467 0.4314,0.3524 0.4286,0.3553 0.4257,0.3582 0.4200,0.3582 0.4114,0.3582 0.4057,0.3582 0.4000,0.3496 0.4029,0.3496 0.4057,0.3467 0.4143,0.3467 0.4171,0.3467 0.4171,0.3496 0.4171,0.3524 0.4143,0.3524 T0.4114,0.3524" />
	<path type="line" fill="none" point-count="32" stroke="rgb(255,255,0)" stroke-width="0.010" d="M0.4143,0.3123 L0.4143,0.3123 0.4143,0.3152 0.4143,0.3181 0.4143,0.3209 0.4143,0.3238 0.4114,0.3238 0.4057,0.3266 0.4000,0.3266 0.4000,0.3181 0.3971,0.3066 0.4000,0.3037 0.4086,0.3009 0.4114,0.3037 0.4114,0.3095 0.4114,0.3123 0.4114,0.3181 0.4114,0.3238 0.4086,0.3295 0.4000,0.3295 0.3971,0.3266 0.3943,0.3238 0.3943,0.3181 0.4000,0.3095 0.4086,0.3095 0.4114,0.3095 0.4114,0.3123 0.4114,0.3181 0.4086,0.3209 0.4029,0.3209 0.4000,0.3238 0.4000,0.3209 T0.4000,0.3181" />
	<path type="line" fill="none" point-count="67" stroke="rgb(255,128,0)" stroke-width="0.050" d="M0.2400,0.3438 L0.2400,0.3438 0.2371,0.3438 0.2343,0.3438 0.2286,0.3438 0.2257,0.3438 0.2229,0.3438 0.2200,0.3438 0.2200,0.3410 0.2171,0.3381 0.2171,0.3352 0.2143,0.3324 0.2143,0.3295 0.2114,0.3266 0.2114,0.3238 0.2114,0.3209 0.2086,0.3181 0.2057,0.3152 0.2029,0.3152 0.2000,0.3152 0.1971,0.3123 0.1943,0.3123 0.1914,0.3123 0.1886,0.3123 0.1886,0.3095 0.1829,0.3095 0.1800,0.3066 0.1743,0.3066 0.1686,0.3037 0.1629,0.3037 0.1543,0.3037 0.1514,0.3009 0.1457,0.3009 0.1400,0.2980 0.1371,0.2980 0.1343,0.3009 0.1343,0.3037 0.1314,0.3066 0.1257,0.3095 0.1257,0.3123 0.1257,0.3152 0.1229,0.3152 0.1200,0.3152 0.1200,0.3181 0.1200,0.3209 0.1200,0.3238 0.1200,0.3266 0.1229,0.3324 0.1257,0.3352 0.1314,0.3381 0.1343,0.3410 0.1400,0.3410 0.1486,0.3438 0.1514,0.3438 0.1571,0.3438 0.1600,0.3438 0.1629,0.3438 0.1714,0.3438 0.1771,0.3438 0.1829,0.3438 0.1857,0.3438 0.1886,0.3438 0.1914,0.3438 0.1971,0.3438 0.2000,0.3438 0.2057,0.3438 0.2086,0.3438 T0.2114,0.3438" />
	<path type="line" fill="none" point-count="53" stroke="rgb(255,128,0)" stroke-width="0.050" d="M0.3057,0.2636 L0.3057,0.2636 0.3029,0.2607 0.3000,0.2579 0.2971,0.2550 0.2943,0.2493 0.2943,0.2436 0.2886,0.2321 0.2857,0.2292 0.2857,0.2235 0.2829,0.2206 0.2829,0.2178 0.2829,0.2149 0.2829,0.2092 0.2829,0.2063 0.2829,0.2034 0.2829,0.2006 0.2829,0.1948 0.2857,0.1920 0.2857,0.1891 0.2886,0.1862 0.2914,0.1834 0.2943,0.1805 0.2971,0.1748 0.3000,0.1719 0.3029,0.1691 0.3057,0.1691 0.3057,0.1662 0.3114,0.1662 0.3171,0.1662 0.3229,0.1662 0.3286,0.1691 0.3343,0.1748 0.3400,0.1777 0.3429,0.1834 0.3486,0.1891 0.3514,0.1920 0.3571,0.1977 0.3571,0.2006 0.3571,0.2034 0.3571,0.2063 0.3571,0.2120 0.3514,0.2178 0.3486,0.2206 0.3429,0.2235 0.3400,0.2264 0.3371,0.2321 0.3343,0.2378 0.3343,0.2436 0.3343,0.2493 0.3314,0.2493 0.3314,0.2521 0.3314,0.2550 T0.3314,0.2579" />
	<path type="line" fill="none" point-count="54" stroke="rgb(255,128,0)" stroke-width="0.050" d="M0.4143,0.2722 L0.4143,0.2722 0.4143,0.2693 0.4171,0.2665 0.4229,0.2607 0.4257,0.2550 0.4314,0.2464 0.4314,0.2436 0.4371,0.2378 0.4429,0.2378 0.4457,0.2350 0.4486,0.2321 0.4543,0.2264 0.4571,0.2206 0.4629,0.2178 0.4657,0.2149 0.4686,0.2149 0.4714,0.2120 0.4743,0.2120 0.4771,0.2120 0.4829,0.2149 0.4886,0.2149 0.4914,0.2206 0.4971,0.2206 0.5057,0.2235 0.5086,0.2264 0.5114,0.2264 0.5143,0.2292 0.5171,0.2292 0.5200,0.2321 0.5200,0.2350 0.5200,0.2378 0.5200,0.2407 0.5200,0.2436 0.5200,0.2464 0.5171,0.2521 0.5114,0.2550 0.5057,0.2607 0.4971,0.2607 0.4914,0.2636 0.4800,0.2636 0.4771,0.2665 0.4743,0.2665 0.4686,0.2665 0.4629,0.2693 0.4600,0.2693 0.4571,0.2693 0.4543,0.2751 0.4543,0.2779 0.4543,0.2808 0.4543,0.2837 0.4543,0.2865 0.4543,0.2923 0.4514,0.2923 T0.4514,0.2951" />
	<path type="line" fill="none" point-count="65" stroke="rgb(255,128,0)" stroke-width="0.050" d="M0.4657,0.3496 L0.4657,0.3496 0.4686,0.3496 0.4743,0.3524 0.4829,0.3524 0.4857,0.3524 0.4914,0.3524 0.5000,0.3524 0.5057,0.3524 0.5143,0.3524 0.5200,0.3524 0.5286,0.3524 0.5343,0.3524 0.5429,0.3524 0.5457,0.3524 0.5486,0.3524 0.5514,0.3524 0.5571,0.3553 0.5600,0.3582 0.5629,0.3582 0.5657,0.3610 0.5686,0.3610 0.5714,0.3639 0.5743,0.3696 0.5771,0.3725 0.5800,0.3754 0.5829,0.3782 0.5914,0.3840 0.5943,0.3868 0.5943,0.3897 0.5971,0.3897 0.6000,0.3926 0.6000,0.3954 0.6000,0.3983 0.6000,0.4011 0.6000,0.4040 0.5971,0.4069 0.5914,0.4097 0.5857,0.4126 0.5800,0.4155 0.5743,0.4183 0.5686,0.4241 0.5629,0.4241 0.5543,0.4241 0.5486,0.4241 0.5400,0.4241 0.5343,0.4241 0.5286,0.4212 0.5257,0.4212 0.5171,0.4155 0.5143,0.4126 0.5086,0.4097 0.5057,0.4069 0.5000,0.4011 0.4971,0.3983 0.4914,0.3926 0.4914,0.3897 0.4886,0.3868 0.4857,0.3840 0.4857,0.3811 0.4829,0.3811 0.4800,0.3782 0.4771,0.3782 0.4714,0.3782 0.4686,0.3782 T0.4657,0.3782" />
	<path type="line" fill="none" point-count="49" stroke="rgb(255,128,0)" stroke-width="0.050" d="M0.3971,0.4212 L0.3971,0.4212 0.3971,0.4241 0.4000,0.4298 0.4000,0.4327 0.4029,0.4413 0.4057,0.4470 0.4086,0.4556 0.4114,0.4613 0.4143,0.4699 0.4171,0.4756 0.4171,0.4785 0.4171,0.4814 0.4171,0.4871 0.4171,0.4900 0.4171,0.4928 0.4200,0.4986 0.4200,0.5043 0.4200,0.5072 0.4200,0.5100 0.4171,0.5129 0.4143,0.5158 0.4086,0.5186 0.4057,0.5215 0.4000,0.5244 0.3914,0.5272 0.3886,0.5272 0.3800,0.5272 0.3743,0.5272 0.3657,0.5301 0.3600,0.5301 0.3571,0.5272 0.3543,0.5244 0.3543,0.5186 0.3543,0.5129 0.3543,0.5043 0.3571,0.4986 0.3600,0.4928 0.3657,0.4814 0.3686,0.4756 0.3714,0.4670 0.3743,0.4642 0.3771,0.4585 0.3771,0.4527 0.3771,0.4441 0.3771,0.4413 0.3743,0.4384 0.3714,0.4384 0.3686,0.4355 T0.3686,0.4327" />
	<path type="line" fill="none" point-count="23" stroke="rgb(255,128,0)" stroke-width="0.050" d="M0.2800,0.4097 L0.2800,0.4097 0.2800,0.4126 0.2771,0.4155 0.2714,0.4183 0.2686,0.4212 0.2629,0.4241 0.2600,0.4269 0.2514,0.4327 0.2486,0.4355 0.2457,0.4355 0.2371,0.4384 0.2343,0.4384 0.2257,0.4384 0.2200,0.4413 0.2143,0.4413 0.2086,0.4441 0.2057,0.4441 0.1971,0.4441 0.1914,0.4441 0.1886,0.4470 0.1829,0.4470 0.1771,0.4470 T0.1771,0.4441" />
	<path type="line" fill="none" point-count="22" stroke="rgb(255,128,0)" stroke-width="0.050" d="M0.2486,0.4155 L0.2486,0.4155 0.2486,0.4126 0.2457,0.4126 0.2429,0.4126 0.2400,0.4126 0.2314,0.4126 0.2286,0.4126 0.2257,0.4126 0.2200,0.4126 0.2171,0.4126 0.2171,0.4155 0.2114,0.4155 0.2086,0.4183 0.2029,0.4183 0.2000,0.4212 0.1971,0.4241 0.1914,0.4241 0.1886,0.4241 0.1886,0.4269 0.1857,0.4298 0.1857,0.4327 T0.1829,0.4327" />
	<path type="line" fill="none" point-count="7" stroke="rgb(255,0,0)" stroke-width="0.030" d="M0.5086,0.3782 L0.5086,0.3782 0.5086,0.3811 0.5143,0.3811 0.5200,0.3840 0.5257,0.3868 0.5371,0.3897 T0.5429,0.3926" />
	<path type="line" fill="none" point-count="5" stroke="rgb(255,0,0)" stroke-width="0.030" d="M0.5029,0.3696 L0.5029,0.3696 0.5057,0.3696 0.5114,0.3725 0.5200,0.3782 T0.5286,0.3840" />
	<path type="line" fill="none" point-count="4" stroke="rgb(255,0,0)" stroke-width="0.030" d="M0.5086,0.3811 L0.5086,0.3811 0.5286,0.3868 0.5371,0.3868 T0.5400,0.3868" />
	<path type="line" fill="none" point-count="5" stroke="rgb(255,0,0)" stroke-width="0.030" d="M0.4371,0.2636 L0.4371,0.2636 0.4400,0.2636 0.4429,0.2607 0.4543,0.2493 T0.4571,0.2464" />
	<path type="line" fill="none" point-count="5" stroke="rgb(255,0,0)" stroke-width="0.030" d="M0.4457,0.2636 L0.4457,0.2636 0.4543,0.2636 0.4686,0.2579 0.4829,0.2407 T0.4829,0.2378" />
	<path type="line" fill="none" point-count="5" stroke="rgb(255,0,0)" stroke-width="0.030" d="M0.3257,0.2264 L0.3257,0.2264 0.3257,0.2206 0.3257,0.2034 0.3257,0.1805 T0.3257,0.1777" />
	<path type="line" fill="none" point-count="4" stroke="rgb(255,0,0)" stroke-width="0.030" d="M0.3000,0.2206 L0.3000,0.2206 0.3000,0.2178 0.3000,0.2120 T0.3000,0.2034" />
	<path type="line" fill="none" point-count="5" stroke="rgb(255,0,0)" stroke-width="0.030" d="M0.1914,0.3324 L0.1914,0.3324 0.1657,0.3181 0.1343,0.3123 0.1314,0.3123 T0.1343,0.3123" />
	<path type="line" fill="none" point-count="3" stroke="rgb(255,0,0)" stroke-width="0.030" d="M0.2257,0.4155 L0.2257,0.4155 0.2229,0.4183 T0.2171,0.4212" />
	<path type="line" fill="none" point-count="4" stroke="rgb(255,0,0)" stroke-width="0.030" d="M0.3800,0.4756 L0.3800,0.4756 0.3857,0.4814 0.3886,0.4986 T0.3914,0.5043" />
	<path type="line" fill="none" point-count="6" stroke="rgb(255,0,0)" stroke-width="0.030" d="M0.4314,0.5244 L0.4314,0.5244 0.4286,0.5272 0.4229,0.5330 0.4086,0.5387 0.3971,0.5387 T0.3886,0.5415" />
	<path type="line" fill="none" point-count="85" stroke="rgb(193,0,0)" stroke-width="0.030" d="M0.2143,0.2407 L0.2143,0.2407 0.2114,0.2407 0.2086,0.2407 0.2057,0.2407 0.2029,0.2378 0.1943,0.2350 0.1857,0.2292 0.1771,0.2292 0.1686,0.2235 0.1629,0.2235 0.1600,0.2235 0.1543,0.2235 0.1457,0.2235 0.1371,0.2235 0.1314,0.2264 0.1229,0.2264 0.1171,0.2292 0.1143,0.2321 0.1086,0.2321 0.1029,0.2378 0.1000,0.2378 0.0943,0.2436 0.0914,0.2464 0.0886,0.2493 0.0857,0.2521 0.0829,0.2550 0.0800,0.2579 0.0743,0.2607 0.0714,0.2636 0.0714,0.2665 0.0686,0.2665 0.0657,0.2693 0.0657,0.2722 0.0629,0.2722 0.0600,0.2779 0.0600,0.2808 0.0571,0.2837 0.0571,0.2865 0.0571,0.2923 0.0543,0.2951 0.0543,0.2980 0.0543,0.3009 0.0514,0.3037 0.0514,0.3095 0.0486,0.3095 0.0486,0.3152 0.0486,0.3238 0.0486,0.3266 0.0486,0.3295 0.0486,0.3324 0.0486,0.3381 0.0486,0.3438 0.0486,0.3467 0.0486,0.3524 0.0486,0.3553 0.0486,0.3582 0.0486,0.3610 0.0514,0.3639 0.0514,0.3668 0.0543,0.3696 0.0571,0.3725 0.0600,0.3754 0.0629,0.3782 0.0657,0.3782 0.0686,0.3811 0.0714,0.3840 0.0743,0.3840 0.0771,0.3840 0.0829,0.3868 0.0857,0.3868 0.0886,0.3868 0.0886,0.3897 0.0914,0.3897 0.0971,0.3954 0.1029,0.3954 0.1057,0.3983 0.1114,0.3983 0.1143,0.4011 0.1171,0.4011 0.1171,0.4040 0.1171,0.4069 0.1200,0.4097 0.1229,0.4097 0.1257,0.4126 T0.1286,0.4126" />
	<path type="line" fill="none" point-count="42" stroke="rgb(193,0,0)" stroke-width="0.030" d="M0.1371,0.4269 L0.1371,0.4269 0.1343,0.4269 0.1343,0.4298 0.1343,0.4327 0.1314,0.4384 0.1314,0.4413 0.1286,0.4499 0.1286,0.4556 0.1286,0.4613 0.1286,0.4670 0.1286,0.4699 0.1343,0.4756 0.1343,0.4814 0.1371,0.4842 0.1429,0.4928 0.1457,0.4957 0.1514,0.4986 0.1543,0.5043 0.1629,0.5072 0.1657,0.5072 0.1771,0.5129 0.1886,0.5186 0.2000,0.5215 0.2114,0.5244 0.2200,0.5244 0.2229,0.5244 0.2314,0.5244 0.2371,0.5244 0.2429,0.5215 0.2486,0.5186 0.2543,0.5186 0.2600,0.5158 0.2686,0.5158 0.2714,0.5100 0.2771,0.5100 0.2829,0.5072 0.2829,0.5043 0.2857,0.5043 0.2857,0.5014 0.2886,0.4986 0.2886,0.4957 T0.2886,0.4928" />
	<path type="line" fill="none" point-count="65" stroke="rgb(193,0,0)" stroke-width="0.030" d="M0.2743,0.4986 L0.2743,0.4986 0.2743,0.5014 0.2743,0.5072 0.2743,0.5129 0.2771,0.5186 0.2771,0.5272 0.2800,0.5358 0.2829,0.5387 0.2829,0.5415 0.2857,0.5473 0.2886,0.5501 0.2914,0.5530 0.2971,0.5587 0.2971,0.5616 0.3029,0.5673 0.3057,0.5673 0.3086,0.5702 0.3114,0.5731 0.3171,0.5759 0.3229,0.5759 0.3343,0.5817 0.3400,0.5845 0.3429,0.5874 0.3486,0.5874 0.3543,0.5903 0.3629,0.5931 0.3686,0.5960 0.3714,0.5960 0.3743,0.5960 0.3829,0.5960 0.3914,0.5989 0.3971,0.5989 0.4029,0.5989 0.4057,0.5989 0.4143,0.5989 0.4171,0.5989 0.4200,0.5989 0.4286,0.5989 0.4286,0.5960 0.4314,0.5960 0.4343,0.5931 0.4371,0.5931 0.4429,0.5903 0.4457,0.5874 0.4543,0.5845 0.4600,0.5817 0.4657,0.5817 0.4686,0.5759 0.4771,0.5731 0.4829,0.5702 0.4886,0.5645 0.4914,0.5530 0.4914,0.5473 0.4914,0.5415 0.4914,0.5387 0.4914,0.5301 0.4914,0.5244 0.4914,0.5215 0.4943,0.5158 0.4971,0.5129 0.4971,0.5072 0.4971,0.4986 0.4943,0.4957 0.4943,0.4928 T0.4914,0.4928" />
	<path type="line" fill="none" point-count="80" stroke="rgb(193,0,0)" stroke-width="0.030" d="M0.5000,0.4957 L0.5000,0.4957 0.5029,0.4957 0.5086,0.4986 0.5171,0.4986 0.5257,0.4986 0.5314,0.4986 0.5400,0.5014 0.5486,0.5014 0.5571,0.5014 0.5600,0.5014 0.5629,0.5014 0.5686,0.5014 0.5771,0.5014 0.5829,0.4986 0.5857,0.4986 0.5886,0.4957 0.5971,0.4928 0.6029,0.4928 0.6086,0.4900 0.6143,0.4900 0.6171,0.4871 0.6257,0.4842 0.6314,0.4814 0.6343,0.4785 0.6400,0.4785 0.6429,0.4756 0.6457,0.4699 0.6543,0.4670 0.6571,0.4642 0.6600,0.4613 0.6629,0.4585 0.6657,0.4556 0.6657,0.4527 0.6686,0.4470 0.6714,0.4413 0.6714,0.4384 0.6771,0.4355 0.6771,0.4327 0.6800,0.4298 0.6800,0.4212 0.6829,0.4183 0.6829,0.4126 0.6829,0.4069 0.6829,0.4040 0.6829,0.4011 0.6829,0.3983 0.6829,0.3897 0.6829,0.3840 0.6829,0.3811 0.6800,0.3754 0.6771,0.3725 0.6743,0.3696 0.6714,0.3639 0.6714,0.3610 0.6714,0.3582 0.6714,0.3553 0.6657,0.3496 0.6629,0.3467 0.6600,0.3438 0.6571,0.3410 0.6514,0.3381 0.6457,0.3324 0.6429,0.3295 0.6400,0.3295 0.6314,0.3238 0.6257,0.3209 0.6200,0.3181 0.6143,0.3181 0.6057,0.3123 0.6000,0.3123 0.5943,0.3095 0.5914,0.3095 0.5857,0.3095 0.5829,0.3095 0.5771,0.3095 0.5743,0.3095 0.5714,0.3095 0.5657,0.3066 0.5600,0.3066 T0.5600,0.3037" />
	<path type="line" fill="none" point-count="63" stroke="rgb(193,0,0)" stroke-width="0.030" d="M0.5686,0.3037 L0.5686,0.3037 0.5714,0.3037 0.5714,0.3009 0.5743,0.3009 0.5771,0.2951 0.5800,0.2923 0.5829,0.2894 0.5829,0.2837 0.5857,0.2808 0.5857,0.2779 0.5886,0.2751 0.5914,0.2693 0.5914,0.2665 0.5914,0.2607 0.5943,0.2579 0.5943,0.2550 0.5971,0.2550 0.5971,0.2521 0.5971,0.2436 0.5971,0.2407 0.5971,0.2350 0.5971,0.2321 0.5971,0.2264 0.5971,0.2235 0.5943,0.2149 0.5914,0.2034 0.5886,0.2006 0.5886,0.1977 0.5857,0.1948 0.5829,0.1920 0.5800,0.1891 0.5771,0.1891 0.5743,0.1862 0.5657,0.1805 0.5600,0.1748 0.5571,0.1719 0.5543,0.1719 0.5514,0.1691 0.5486,0.1691 0.5371,0.1633 0.5257,0.1605 0.5114,0.1576 0.5057,0.1547 0.5029,0.1547 0.4971,0.1547 0.4914,0.1519 0.4829,0.1519 0.4800,0.1547 0.4743,0.1547 0.4657,0.1547 0.4543,0.1547 0.4457,0.1576 0.4400,0.1576 0.4343,0.1605 0.4286,0.1605 0.4257,0.1605 0.4200,0.1605 0.4171,0.1633 0.4143,0.1633 0.4114,0.1633 0.4086,0.1633 0.4057,0.1633 T0.4057,0.1662" />
	<path type="line" fill="none" point-count="49" stroke="rgb(193,0,0)" stroke-width="0.030" d="M0.4086,0.1633 L0.4086,0.1633 0.4086,0.1605 0.4086,0.1576 0.4086,0.1490 0.4057,0.1404 0.4000,0.1318 0.3914,0.1203 0.3857,0.1117 0.3800,0.1089 0.3714,0.1060 0.3686,0.1032 0.3600,0.1032 0.3543,0.1003 0.3429,0.1003 0.3286,0.0974 0.3229,0.0974 0.3171,0.0974 0.3143,0.0974 0.3057,0.0974 0.2943,0.0974 0.2771,0.1003 0.2686,0.1032 0.2600,0.1032 0.2514,0.1060 0.2457,0.1089 0.2371,0.1117 0.2343,0.1175 0.2314,0.1203 0.2257,0.1232 0.2257,0.1289 0.2171,0.1375 0.2143,0.1404 0.2114,0.1490 0.2086,0.1547 0.2057,0.1633 0.2057,0.1691 0.2057,0.1719 0.2057,0.1748 0.2057,0.1805 0.2057,0.1891 0.2057,0.1977 0.2086,0.2006 0.2086,0.2063 0.2143,0.2120 0.2143,0.2149 0.2143,0.2178 0.2200,0.2235 0.2200,0.2264 T0.2200,0.2292" />
	<path type="line" fill="none" point-count="85" stroke="rgb(0,128,0)" stroke-width="0.030" d="M0.5171,0.5158 L0.5171,0.5158 0.5171,0.5186 0.5200,0.5215 0.5229,0.5244 0.5257,0.5301 0.5286,0.5330 0.5314,0.5330 0.5371,0.5358 0.5400,0.5415 0.5486,0.5444 0.5600,0.5530 0.5714,0.5559 0.5771,0.5616 0.5857,0.5673 0.6000,0.5759 0.6114,0.5845 0.6314,0.5931 0.6371,0.5989 0.6486,0.6074 0.6543,0.6160 0.6657,0.6218 0.6743,0.6246 0.6800,0.6304 0.6886,0.6361 0.6943,0.6418 0.7057,0.6504 0.7143,0.6562 0.7257,0.6619 0.7286,0.6676 0.7371,0.6762 0.7457,0.6848 0.7514,0.6905 0.7571,0.7020 0.7629,0.7135 0.7714,0.7249 0.7800,0.7364 0.7857,0.7450 0.7914,0.7536 0.7943,0.7650 0.8000,0.7736 0.8057,0.7851 0.8086,0.7966 0.8114,0.8023 0.8143,0.8109 0.8143,0.8195 0.8200,0.8281 0.8200,0.8395 0.8229,0.8453 0.8229,0.8539 0.8257,0.8625 0.8257,0.8682 0.8257,0.8711 0.8257,0.8768 0.8286,0.8883 0.8286,0.8940 0.8314,0.9026 0.8314,0.9083 0.8314,0.9169 0.8314,0.9255 0.8314,0.9312 0.8314,0.9398 0.8314,0.9456 0.8314,0.9484 0.8314,0.9513 0.8314,0.9570 0.8314,0.9599 0.8314,0.9628 0.8314,0.9656 0.8314,0.9685 0.8286,0.9685 0.8257,0.9685 0.8171,0.9685 0.8086,0.9685 0.7943,0.9685 0.7829,0.9685 0.7771,0.9685 0.7686,0.9713 0.7600,0.9713 0.7543,0.9742 0.7457,0.9742 0.7371,0.9771 0.7314,0.9771 0.7257,0.9799 0.7200,0.9828 T0.7200,0.9799" />
	<path type="line" fill="none" point-count="67" stroke="rgb(0,128,0)" stroke-width="0.030" d="M0.5829,0.5845 L0.5829,0.5845 0.5857,0.5874 0.5914,0.5903 0.5971,0.5931 0.6000,0.5960 0.6029,0.5989 0.6086,0.6046 0.6143,0.6132 0.6200,0.6160 0.6314,0.6189 0.6400,0.6275 0.6457,0.6304 0.6486,0.6332 0.6514,0.6390 0.6543,0.6418 0.6571,0.6447 0.6629,0.6476 0.6629,0.6504 0.6657,0.6533 0.6714,0.6590 0.6743,0.6648 0.6771,0.6705 0.6771,0.6762 0.6829,0.6819 0.6857,0.6934 0.6886,0.6991 0.6943,0.7106 0.7000,0.7163 0.7029,0.7278 0.7029,0.7364 0.7029,0.7450 0.7057,0.7536 0.7057,0.7650 0.7114,0.7794 0.7114,0.7880 0.7143,0.7994 0.7171,0.8109 0.7200,0.8166 0.7200,0.8195 0.7200,0.8223 0.7229,0.8281 0.7229,0.8338 0.7257,0.8424 0.7257,0.8481 0.7286,0.8567 0.7286,0.8653 0.7286,0.8739 0.7286,0.8768 0.7286,0.8825 0.7257,0.8883 0.7257,0.8968 0.7257,0.9054 0.7229,0.9083 0.7229,0.9169 0.7200,0.9226 0.7171,0.9255 0.7143,0.9312 0.7114,0.9341 0.7114,0.9398 0.7086,0.9456 0.7086,0.9484 0.7086,0.9542 0.7057,0.9599 0.7057,0.9656 0.7029,0.9656 0.7029,0.9685 T0.7029,0.9656" />
	<path type="line" fill="none" point-count="207" stroke="rgb(0,128,0)" stroke-width="0.030" d="M0.5114,0.5301 L0.5114,0.5301 0.5114,0.5330 0.5143,0.5330 0.5143,0.5358 0.5171,0.5358 0.5257,0.5387 0.5314,0.5415 0.5371,0.5473 0.5429,0.5501 0.5457,0.5559 0.5514,0.5587 0.5571,0.5645 0.5629,0.5673 0.5657,0.5702 0.5686,0.5702 0.5743,0.5731 0.5771,0.5788 0.5829,0.5817 0.5886,0.5874 0.5914,0.5903 0.5943,0.5931 0.6000,0.5960 0.6029,0.5989 0.6114,0.6017 0.6114,0.6046 0.6143,0.6046 0.6200,0.6103 0.6229,0.6132 0.6257,0.6160 0.6286,0.6189 0.6314,0.6218 0.6371,0.6246 0.6429,0.6275 0.6486,0.6304 0.6543,0.6332 0.6571,0.6361 0.6571,0.6390 0.6600,0.6418 0.6657,0.6476 0.6714,0.6504 0.6743,0.6533 0.6800,0.6562 0.6829,0.6590 0.6857,0.6648 0.6857,0.6676 0.6914,0.6734 0.6971,0.6819 0.7029,0.6877 0.7057,0.6934 0.7086,0.6934 0.7114,0.6991 0.7143,0.7077 0.7171,0.7135 0.7229,0.7249 0.7257,0.7364 0.7286,0.7450 0.7314,0.7507 0.7343,0.7536 0.7371,0.7593 0.7371,0.7650 0.7371,0.7708 0.7371,0.7765 0.7343,0.7822 0.7343,0.7908 0.7314,0.7966 0.7314,0.8052 0.7314,0.8109 0.7286,0.8166 0.7286,0.8252 0.7286,0.8338 0.7286,0.8424 0.7286,0.8481 0.7314,0.8539 0.7314,0.8596 0.7314,0.8653 0.7314,0.8711 0.7314,0.8739 0.7314,0.8825 0.7314,0.8883 0.7314,0.8968 0.7314,0.9026 0.7314,0.9083 0.7314,0.9140 0.7314,0.9169 0.7314,0.9198 0.7286,0.9255 0.7257,0.9284 0.7257,0.9312 0.7257,0.9370 0.7257,0.9398 0.7229,0.9427 0.7200,0.9456 0.7200,0.9484 0.7200,0.9513 0.7200,0.9542 0.7200,0.9570 0.7229,0.9570 0.7257,0.9542 0.7314,0.9513 0.7400,0.9484 0.7457,0.9456 0.7543,0.9427 0.7571,0.9398 0.7629,0.9370 0.7686,0.9370 0.7714,0.9370 0.7771,0.9370 0.7800,0.9370 0.7829,0.9370 0.7857,0.9370 0.7886,0.9370 0.7914,0.9370 0.7943,0.9370 0.7943,0.9398 0.7971,0.9398 0.7971,0.9427 0.8000,0.9427 0.8000,0.9456 0.8029,0.9484 0.8029,0.9456 0.8029,0.9398 0.8057,0.9312 0.8057,0.9255 0.8057,0.9140 0.8029,0.9026 0.8029,0.8940 0.8000,0.8883 0.8000,0.8768 0.7971,0.8682 0.7943,0.8539 0.7943,0.8481 0.7914,0.8424 0.7914,0.8338 0.7886,0.8252 0.7886,0.8195 0.7857,0.8109 0.7829,0.8023 0.7800,0.7994 0.7800,0.7966 0.7800,0.7908 0.7743,0.7822 0.7686,0.7708 0.7629,0.7622 0.7629,0.7593 0.7571,0.7564 0.7514,0.7450 0.7400,0.7278 0.7371,0.7221 0.7314,0.7163 0.7257,0.7106 0.7229,0.7020 0.7171,0.6934 0.7143,0.6877 0.7114,0.6791 0.7057,0.6676 0.7000,0.6648 0.7000,0.6705 0.7086,0.6848 0.7143,0.6991 0.7257,0.7192 0.7371,0.7393 0.7429,0.7536 0.7486,0.7679 0.7543,0.7822 0.7571,0.7908 0.7600,0.8023 0.7657,0.8109 0.7657,0.8195 0.7686,0.8252 0.7686,0.8338 0.7686,0.8395 0.7714,0.8481 0.7743,0.8567 0.7771,0.8653 0.7800,0.8739 0.7800,0.8797 0.7800,0.8883 0.7800,0.8940 0.7800,0.9026 0.7800,0.9140 0.7800,0.9169 0.7800,0.9198 0.7771,0.9198 0.7771,0.9226 0.7714,0.9255 0.7686,0.9255 0.7657,0.9226 0.7600,0.9169 0.7543,0.8968 0.7514,0.8911 0.7514,0.8825 0.7514,0.8711 0.7514,0.8653 0.7514,0.8567 0.7514,0.8481 0.7514,0.8424 0.7514,0.8367 0.7514,0.8281 0.7514,0.8166 0.7514,0.8080 0.7514,0.8023 0.7514,0.7908 0.7486,0.7822 0.7486,0.7794 0.7429,0.7650 0.7400,0.7593 T0.7400,0.7622" />
	<path type="line" fill="none" point-count="20" stroke="rgb(0,128,0)" stroke-width="0.030" d="M0.6857,0.7393 L0.6857,0.7393 0.6800,0.7364 0.6771,0.7307 0.6686,0.7307 0.6571,0.7249 0.6486,0.7249 0.6314,0.7221 0.6229,0.7221 0.6086,0.7221 0.5886,0.7221 0.5657,0.7221 0.5486,0.7221 0.5400,0.7221 0.5200,0.7221 0.5057,0.7278 0.4800,0.7364 0.4657,0.7479 0.4543,0.7593 0.4457,0.7708 T0.4457,0.7736" />
	<path type="line" fill="none" point-count="31" stroke="rgb(0,128,0)" stroke-width="0.030" d="M0.4914,0.6934 L0.4914,0.6934 0.4829,0.6934 0.4771,0.6877 0.4657,0.6877 0.4486,0.6848 0.4286,0.6819 0.4000,0.6734 0.3771,0.6734 0.3629,0.6734 0.3514,0.6762 0.3457,0.6791 0.3371,0.6848 0.3257,0.6934 0.3200,0.6991 0.3171,0.7049 0.3143,0.7192 0.3086,0.7307 0.3057,0.7479 0.3057,0.7593 0.3000,0.7765 0.2943,0.7851 0.2857,0.7937 0.2771,0.8052 0.2686,0.8138 0.2514,0.8252 0.2429,0.8252 0.2200,0.8367 0.1971,0.8395 0.1743,0.8424 0.1486,0.8481 T0.1343,0.8481" />
	<path type="line" fill="none" point-count="34" stroke="rgb(0,128,0)" stroke-width="0.030" d="M0.5371,0.7421 L0.5371,0.7421 0.5343,0.7479 0.5343,0.7564 0.5343,0.7650 0.5343,0.7708 0.5343,0.7794 0.5314,0.7822 0.5314,0.7937 0.5257,0.8080 0.5200,0.8195 0.5114,0.8281 0.5029,0.8395 0.4943,0.8481 0.4857,0.8539 0.4686,0.8653 0.4571,0.8711 0.4400,0.8768 0.4286,0.8797 0.4114,0.8825 0.3800,0.8825 0.3514,0.8825 0.3314,0.8825 0.3171,0.8825 0.2971,0.8825 0.2714,0.8768 0.2514,0.8739 0.2229,0.8653 0.1943,0.8625 0.1800,0.8596 0.1514,0.8596 0.1371,0.8596 0.1200,0.8596 0.1086,0.8625 T0.0914,0.8653" />
	<path type="line" fill="none" point-count="8" stroke="rgb(0,128,0)" stroke-width="0.030" d="M0.4057,0.7794 L0.4057,0.7794 0.3971,0.7851 0.3857,0.7937 0.3686,0.8023 0.3400,0.8138 0.2943,0.8281 0.2714,0.8309 T0.2657,0.8309" />
	<path type="line" fill="none" point-count="4" stroke="rgb(0,128,0)" stroke-width="0.030" d="M0.3686,0.7192 L0.3686,0.7192 0.3714,0.7221 0.3800,0.7307 T0.3829,0.7335" />
	<path type="line" fill="none" point-count="5" stroke="rgb(0,128,0)" stroke-width="0.030" d="M0.4086,0.8052 L0.4086,0.8052 0.4029,0.8166 0.4000,0.8223 0.3914,0.8281 T0.3914,0.8309" />
	<path type="line" fill="none" point-count="4" stroke="rgb(0,128,0)" stroke-width="0.030" d="M0.4571,0.7994 L0.4571,0.7994 0.4571,0.8023 0.4571,0.8080 T0.4571,0.8109" />
	<path type="line" fill="none" point-count="3" stroke="rgb(0,128,0)" stroke-width="0.030" d="M0.4029,0.7135 L0.4029,0.7135 0.4029,0.7163 T0.4057,0.7192" />
	<path type="line" fill="none" point-count="3" stroke="rgb(0,128,0)" stroke-width="0.030" d="M0.3371,0.7679 L0.3371,0.7679 0.3371,0.7765 T0.3400,0.7822" />
	<path type="line" fill="none" point-count="3" stroke="rgb(0,128,0)" stroke-width="0.030" d="M0.3314,0.8395 L0.3314,0.8395 0.3286,0.8395 T0.3257,0.8395" />
</g>
</svg>
