<svg width="4in" height="4in" viewBox="0 0 1 1">
<g id="Smile" type="iconel" clip-path="url(#ClipPath)" >
<g type="clip-iconel" clip-rule="nonzero" >
<clipPath id="ClipPath" >
	<path type="line" fill="none" point-count="174" stroke="rgb(255,0,0)" stroke-width="0.010" d="M0.5314,0.0917 L0.5143,0.0917 0.4800,0.0917 0.4571,0.0917 0.4343,0.0946 0.4171,0.1003 0.3943,0.1032 0.3914,0.1032 0.3771,0.1060 0.3600,0.1117 0.3343,0.1146 0.3114,0.1203 0.2971,0.1232 0.2829,0.1232 0.2600,0.1347 0.2457,0.1375 0.2343,0.1461 0.2200,0.1605 0.2086,0.1691 0.2029,0.1777 0.1943,0.1805 0.1886,0.1862 0.1829,0.1920 0.1686,0.2006 0.1600,0.2063 0.1543,0.2149 0.1429,0.2264 0.1343,0.2436 0.1286,0.2493 0.1171,0.2722 0.1114,0.2837 0.1057,0.3009 0.1000,0.3238 0.1000,0.3238 0.0943,0.3352 0.0914,0.3496 0.0886,0.3725 0.0886,0.3897 0.0857,0.4069 0.0857,0.4327 0.0800,0.4470 0.0800,0.4613 0.0800,0.4986 0.0800,0.5129 0.0800,0.5415 0.0800,0.5788 0.0800,0.5989 0.0857,0.6246 0.0886,0.6390 0.0886,0.6504 0.0971,0.6762 0.1000,0.6905 0.1086,0.7135 0.1171,0.7335 0.1257,0.7479 0.1314,0.7622 0.1343,0.7708 0.1429,0.7851 0.1486,0.7937 0.1571,0.8109 0.1629,0.8138 0.1800,0.8309 0.1971,0.8453 0.2200,0.8596 0.2343,0.8682 0.2600,0.8825 0.2857,0.8911 0.3200,0.8997 0.3429,0.9026 0.3657,0.9083 0.3886,0.9112 0.4200,0.9169 0.4400,0.9198 0.4714,0.9198 0.4886,0.9198 0.5029,0.9198 0.5143,0.9198 0.5229,0.9198 0.5371,0.9169 0.5429,0.9140 0.5571,0.9112 0.5686,0.9112 0.5714,0.9083 0.5857,0.9083 0.6000,0.9026 0.6200,0.8997 0.6314,0.8968 0.6571,0.8968 0.6743,0.8911 0.6829,0.8883 0.7029,0.8854 0.7200,0.8768 0.7343,0.8739 0.7514,0.8682 0.7714,0.8596 0.7829,0.8510 0.8000,0.8453 0.8143,0.8367 0.8229,0.8309 0.8286,0.8281 0.8343,0.8223 0.8400,0.8109 0.8486,0.8052 0.8514,0.7966 0.8543,0.7908 0.8571,0.7908 0.8657,0.7822 0.8686,0.7794 0.8743,0.7650 0.8771,0.7622 0.8857,0.7507 0.8914,0.7450 0.8971,0.7335 0.9000,0.7307 0.9086,0.7221 0.9143,0.7163 0.9171,0.7077 0.9257,0.6991 0.9343,0.6848 0.9371,0.6705 0.9400,0.6619 0.9429,0.6562 0.9486,0.6476 0.9543,0.6332 0.9543,0.6246 0.9543,0.6132 0.9571,0.6132 0.9571,0.6046 0.9571,0.5931 0.9571,0.5817 0.9600,0.5702 0.9600,0.5645 0.9600,0.5587 0.9600,0.5473 0.9600,0.5358 0.9600,0.5215 0.9600,0.5129 0.9600,0.5014 0.9600,0.4986 0.9600,0.4814 0.9600,0.4728 0.9600,0.4556 0.9571,0.4441 0.9543,0.4327 0.9543,0.4212 0.9457,0.4011 0.9371,0.3811 0.9314,0.3725 0.9229,0.3524 0.9143,0.3438 0.8943,0.3181 0.8629,0.2894 0.8457,0.2722 0.8343,0.2607 0.8200,0.2493 0.8114,0.2378 0.7971,0.2292 0.7857,0.2206 0.7686,0.2120 0.7600,0.2034 0.7486,0.1948 0.7371,0.1891 0.7286,0.1805 0.7171,0.1748 0.6914,0.1605 0.6800,0.1519 0.6743,0.1490 0.6571,0.1433 0.6457,0.1375 0.6314,0.1318 0.6171,0.1232 0.6086,0.1232 0.5971,0.1203 0.5800,0.1146 T0.5629,0.1060" />
</clipPath>
</g>
<g type="background-iconel" >
	<rect type="rectangle" x="0.000" y="0.000" width="1.000" height="1.000" fill="rgb(0,36,196)" stroke="rgb(0,36,196)" stroke-width="0.010" />
</g>
	<path type="line" fill="none" point-count="99" stroke="rgb(0,0,0)" stroke-width="0.010" d="M0.5657,0.1633 L0.5486,0.1633 0.5371,0.1633 0.5200,0.1633 0.5086,0.1633 0.4857,0.1633 0.4600,0.1691 0.4486,0.1691 0.4314,0.1748 0.4257,0.1777 0.4086,0.1862 0.4029,0.1891 0.3771,0.1948 0.3571,0.2092 0.3514,0.2120 0.3286,0.2264 0.3200,0.2321 0.2971,0.2521 0.2886,0.2607 0.2629,0.2808 0.2514,0.2894 0.2257,0.3095 0.2114,0.3352 0.2029,0.3438 0.1943,0.3668 0.1914,0.3725 0.1800,0.3954 0.1771,0.4097 0.1714,0.4384 0.1714,0.4699 0.1686,0.4756 0.1686,0.5043 0.1686,0.5158 0.1686,0.5444 0.1686,0.5530 0.1686,0.5759 0.1714,0.5817 0.1829,0.6132 0.2057,0.6418 0.2086,0.6476 0.2286,0.6705 0.2343,0.6848 0.2543,0.7049 0.2686,0.7163 0.2943,0.7335 0.3086,0.7421 0.3257,0.7564 0.3600,0.7650 0.3771,0.7765 0.4171,0.7880 0.4343,0.7880 0.4714,0.7966 0.4886,0.7966 0.5343,0.8023 0.5886,0.8023 0.6114,0.8023 0.6657,0.8023 0.6914,0.7994 0.7371,0.7851 0.7543,0.7851 0.7914,0.7765 0.7971,0.7679 0.8200,0.7593 0.8400,0.7450 0.8457,0.7421 0.8571,0.7163 0.8600,0.7049 0.8714,0.6762 0.8714,0.6648 0.8743,0.6361 0.8771,0.6304 0.8829,0.5989 0.8829,0.5759 0.8829,0.5702 0.8829,0.5415 0.8829,0.5330 0.8829,0.4957 0.8800,0.4842 0.8629,0.4413 0.8429,0.4155 0.8343,0.4040 0.8200,0.3840 0.8114,0.3754 0.7914,0.3524 0.7857,0.3438 0.7600,0.3238 0.7543,0.3181 0.7286,0.2980 0.7086,0.2837 0.7029,0.2808 0.6829,0.2665 0.6829,0.2636 0.6714,0.2579 0.6686,0.2579 0.6571,0.2493 0.6543,0.2493 0.6514,0.2493 0.6429,0.2464 0.6400,0.2464 T0.6343,0.2436" />
	<path type="line" fill="none" point-count="54" stroke="rgb(0,0,0)" stroke-width="0.010" d="M0.3629,0.2894 L0.3600,0.2894 0.3571,0.2894 0.3543,0.2894 0.3457,0.2951 0.3371,0.2980 0.3343,0.3009 0.3229,0.3095 0.3200,0.3123 0.3086,0.3181 0.3057,0.3266 0.2971,0.3410 0.2886,0.3438 0.2800,0.3582 0.2771,0.3754 0.2771,0.3782 0.2714,0.3868 0.2714,0.3983 0.2714,0.4097 0.2714,0.4126 0.2771,0.4298 0.2829,0.4413 0.2886,0.4441 0.2943,0.4556 0.2971,0.4585 0.3086,0.4699 0.3143,0.4728 0.3286,0.4785 0.3371,0.4814 0.3486,0.4814 0.3600,0.4814 0.3686,0.4814 0.3857,0.4785 0.3914,0.4756 0.4086,0.4670 0.4171,0.4585 0.4371,0.4327 0.4429,0.4269 0.4543,0.3954 0.4543,0.3668 0.4543,0.3610 0.4543,0.3438 0.4486,0.3352 0.4400,0.3238 0.4371,0.3152 0.4229,0.3009 0.4114,0.2894 0.4057,0.2865 0.3971,0.2808 0.3943,0.2808 0.3829,0.2779 0.3800,0.2779 0.3771,0.2779 0.3743,0.2779 T0.3714,0.2779" />
	<path type="line" fill="none" point-count="46" stroke="rgb(0,0,0)" stroke-width="0.010" d="M0.5486,0.3181 L0.5429,0.3209 0.5429,0.3266 0.5400,0.3324 0.5343,0.3381 0.5286,0.3467 0.5257,0.3582 0.5229,0.3668 0.5171,0.3840 0.5114,0.4011 0.5114,0.4069 0.5114,0.4241 0.5114,0.4355 0.5114,0.4527 0.5200,0.4642 0.5486,0.5043 0.5571,0.5215 0.6057,0.5587 0.6486,0.5817 0.6657,0.5874 0.7057,0.5989 0.7171,0.5989 0.7514,0.5989 0.7629,0.5989 0.7857,0.5845 0.8029,0.5645 0.8057,0.5587 0.8086,0.5358 0.8086,0.5186 0.8086,0.4814 0.8057,0.4699 0.7829,0.4269 0.7800,0.4212 0.7600,0.3897 0.7371,0.3553 0.7314,0.3524 0.7114,0.3295 0.7057,0.3266 0.6857,0.3123 0.6800,0.3037 0.6571,0.3009 0.6314,0.2894 0.6257,0.2865 0.6029,0.2865 0.5971,0.2865 0.5800,0.2808 T0.5771,0.2808" />
	<path type="line" fill="none" point-count="30" stroke="rgb(0,0,0)" stroke-width="0.010" d="M0.4686,0.6562 L0.4657,0.6562 0.4629,0.6562 0.4600,0.6590 0.4600,0.6619 0.4571,0.6676 0.4571,0.6734 0.4571,0.6762 0.4571,0.6819 0.4571,0.6848 0.4571,0.6905 0.4600,0.6905 0.4600,0.6934 0.4629,0.6963 0.4657,0.6963 0.4771,0.6991 0.4800,0.6991 0.4914,0.7020 0.5000,0.7020 0.5114,0.7020 0.5143,0.7020 0.5171,0.6963 0.5200,0.6934 0.5229,0.6848 0.5229,0.6734 0.5229,0.6705 0.5229,0.6648 0.5229,0.6562 0.5200,0.6533 0.5171,0.6504 T0.5143,0.6476" />
	<path type="line" fill="none" point-count="58" stroke="rgb(255,250,14)" stroke-width="0.010" d="M0.5429,0.2264 L0.5400,0.2264 0.5371,0.2264 0.5343,0.2264 0.5314,0.2264 0.5286,0.2264 0.5257,0.2264 0.5200,0.2264 0.5171,0.2264 0.5143,0.2264 0.5143,0.2292 0.5114,0.2292 0.5086,0.2292 0.5057,0.2292 0.4971,0.2292 0.4943,0.2292 0.4914,0.2321 0.4886,0.2321 0.4857,0.2321 0.4771,0.2321 0.4743,0.2350 0.4714,0.2350 0.4686,0.2350 0.4657,0.2350 0.4657,0.2378 0.4629,0.2378 0.4600,0.2407 0.4543,0.2407 0.4543,0.2436 0.4514,0.2436 0.4486,0.2436 0.4457,0.2436 0.4457,0.2464 0.4429,0.2464 0.4429,0.2521 0.4400,0.2521 0.4400,0.2550 0.4371,0.2550 0.4343,0.2550 0.4343,0.2579 0.4286,0.2579 0.4286,0.2607 0.4257,0.2607 0.4257,0.2636 0.4229,0.2636 0.4200,0.2636 0.4200,0.2665 0.4171,0.2665 0.4143,0.2693 0.4114,0.2693 0.4057,0.2693 0.4029,0.2693 0.4029,0.2751 0.4000,0.2751 0.3971,0.2751 0.3971,0.2779 0.3943,0.2779 0.3914,0.2779 T0.3886,0.2779" />
	<path type="line" fill="none" point-count="440" stroke="rgb(255,250,14)" stroke-width="0.200" d="M0.5400,0.2493 L0.5371,0.2493 0.5343,0.2464 0.5286,0.2464 0.5257,0.2464 0.5200,0.2464 0.5171,0.2464 0.5143,0.2464 0.5114,0.2464 0.5086,0.2464 0.5057,0.2464 0.5029,0.2464 0.5000,0.2464 0.4943,0.2464 0.4943,0.2493 0.4886,0.2493 0.4857,0.2493 0.4800,0.2493 0.4714,0.2521 0.4686,0.2521 0.4657,0.2521 0.4657,0.2550 0.4629,0.2579 0.4571,0.2579 0.4543,0.2579 0.4543,0.2607 0.4514,0.2607 0.4486,0.2607 0.4457,0.2607 0.4457,0.2665 0.4371,0.2665 0.4371,0.2693 0.4343,0.2722 0.4314,0.2751 0.4286,0.2751 0.4257,0.2779 0.4229,0.2808 0.4200,0.2808 0.4143,0.2808 0.4143,0.2837 0.4114,0.2865 0.4086,0.2865 0.4086,0.2923 0.4057,0.2923 0.4029,0.2951 0.4000,0.2951 0.4000,0.2980 0.3971,0.2980 0.3971,0.3009 0.3886,0.3009 0.3886,0.3037 0.3857,0.3037 0.3857,0.3066 0.3829,0.3066 0.3829,0.3095 0.3800,0.3095 0.3771,0.3095 0.3771,0.3123 0.3743,0.3152 0.3686,0.3152 0.3686,0.3209 0.3657,0.3209 0.3629,0.3209 0.3629,0.3238 0.3600,0.3238 0.3600,0.3266 0.3571,0.3266 0.3571,0.3295 0.3543,0.3295 0.3514,0.3295 0.3514,0.3324 0.3457,0.3324 0.3457,0.3352 0.3429,0.3352 0.3400,0.3381 0.3371,0.3381 0.3343,0.3381 0.3343,0.3438 0.3314,0.3438 0.3314,0.3467 0.3286,0.3496 0.3286,0.3524 0.3286,0.3553 0.3229,0.3553 0.3200,0.3582 0.3200,0.3610 0.3171,0.3668 0.3171,0.3725 0.3143,0.3725 0.3143,0.3754 0.3143,0.3782 0.3114,0.3782 0.3114,0.3811 0.3114,0.3868 0.3114,0.3897 0.3086,0.3897 0.3086,0.3954 0.3086,0.3983 0.3057,0.4011 0.3057,0.4040 0.3029,0.4069 0.3029,0.4126 0.3000,0.4155 0.3000,0.4212 0.2971,0.4212 0.2971,0.4298 0.2943,0.4298 0.2943,0.4327 0.2943,0.4355 0.2886,0.4384 0.2886,0.4413 0.2886,0.4441 0.2857,0.4441 0.2857,0.4470 0.2857,0.4527 0.2857,0.4556 0.2829,0.4585 0.2829,0.4613 0.2800,0.4613 0.2800,0.4642 0.2800,0.4670 0.2800,0.4699 0.2771,0.4699 0.2771,0.4756 0.2771,0.4785 0.2743,0.4814 0.2743,0.4842 0.2743,0.4871 0.2743,0.4900 0.2714,0.4900 0.2714,0.4928 0.2714,0.4957 0.2714,0.5014 0.2714,0.5043 0.2714,0.5072 0.2714,0.5100 0.2714,0.5129 0.2714,0.5158 0.2714,0.5186 0.2657,0.5244 0.2657,0.5272 0.2657,0.5301 0.2657,0.5358 0.2657,0.5387 0.2657,0.5415 0.2657,0.5473 0.2657,0.5501 0.2657,0.5530 0.2657,0.5559 0.2714,0.5587 0.2714,0.5616 0.2714,0.5645 0.2743,0.5702 0.2743,0.5731 0.2771,0.5759 0.2771,0.5788 0.2771,0.5817 0.2800,0.5845 0.2800,0.5874 0.2829,0.5903 0.2829,0.5960 0.2857,0.5989 0.2857,0.6017 0.2886,0.6046 0.2886,0.6074 0.2943,0.6074 0.2943,0.6103 0.2971,0.6103 0.3000,0.6132 0.3000,0.6189 0.3029,0.6218 0.3057,0.6246 0.3086,0.6275 0.3114,0.6304 0.3143,0.6332 0.3143,0.6361 0.3200,0.6361 0.3229,0.6418 0.3257,0.6447 0.3286,0.6476 0.3314,0.6504 0.3343,0.6533 0.3371,0.6533 0.3371,0.6562 0.3457,0.6619 0.3486,0.6619 0.3514,0.6648 0.3543,0.6648 0.3600,0.6705 0.3657,0.6734 0.3686,0.6734 0.3714,0.6762 0.3771,0.6819 0.3800,0.6819 0.3857,0.6848 0.3886,0.6848 0.3914,0.6877 0.3943,0.6877 0.3971,0.6877 0.4000,0.6905 0.4029,0.6905 0.4057,0.6905 0.4143,0.6934 0.4171,0.6934 0.4200,0.6963 0.4229,0.6963 0.4257,0.7020 0.4286,0.7020 0.4400,0.7049 0.4429,0.7049 0.4457,0.7077 0.4486,0.7077 0.4571,0.7106 0.4629,0.7106 0.4657,0.7135 0.4686,0.7135 0.4771,0.7135 0.4800,0.7163 0.4829,0.7163 0.4886,0.7192 0.4914,0.7192 0.4943,0.7192 0.5000,0.7192 0.5057,0.7192 0.5086,0.7249 0.5114,0.7249 0.5229,0.7249 0.5257,0.7249 0.5286,0.7249 0.5314,0.7249 0.5343,0.7249 0.5371,0.7249 0.5400,0.7278 0.5429,0.7278 0.5543,0.7278 0.5629,0.7307 0.5657,0.7307 0.5714,0.7307 0.5743,0.7335 0.5771,0.7335 0.5800,0.7335 0.5857,0.7335 0.5886,0.7335 0.5914,0.7335 0.5943,0.7335 0.5971,0.7335 0.6000,0.7335 0.6029,0.7335 0.6086,0.7335 0.6114,0.7335 0.6171,0.7335 0.6200,0.7335 0.6229,0.7335 0.6257,0.7335 0.6314,0.7335 0.6343,0.7335 0.6343,0.7307 0.6371,0.7307 0.6400,0.7307 0.6429,0.7307 0.6457,0.7307 0.6486,0.7307 0.6514,0.7307 0.6600,0.7307 0.6629,0.7278 0.6657,0.7278 0.6714,0.7249 0.6743,0.7249 0.6800,0.7249 0.6829,0.7249 0.6857,0.7221 0.6886,0.7221 0.7000,0.7192 0.7029,0.7192 0.7086,0.7192 0.7114,0.7163 0.7114,0.7106 0.7143,0.7106 0.7229,0.7077 0.7257,0.7077 0.7286,0.7049 0.7286,0.7020 0.7343,0.6991 0.7371,0.6963 0.7400,0.6905 0.7400,0.6877 0.7457,0.6848 0.7457,0.6819 0.7486,0.6791 0.7543,0.6676 0.7571,0.6676 0.7629,0.6590 0.7629,0.6533 0.7686,0.6504 0.7714,0.6476 0.7714,0.6447 0.7743,0.6390 0.7771,0.6304 0.7829,0.6218 0.7857,0.6103 0.7914,0.6017 0.7914,0.5931 0.7943,0.5845 0.7943,0.5788 0.8000,0.5702 0.8029,0.5645 0.8029,0.5616 0.8029,0.5530 0.8029,0.5444 0.8057,0.5387 0.8057,0.5358 0.8057,0.5272 0.8057,0.5244 0.8057,0.5186 0.8057,0.5100 0.8057,0.5014 0.8057,0.4986 0.8057,0.4900 0.8057,0.4842 0.8029,0.4785 0.8029,0.4756 0.7943,0.4642 0.7943,0.4613 0.7914,0.4499 0.7886,0.4470 0.7829,0.4413 0.7771,0.4355 0.7714,0.4269 0.7629,0.4155 0.7543,0.4069 0.7457,0.3983 0.7343,0.3811 0.7314,0.3782 0.7229,0.3696 0.7229,0.3668 0.7200,0.3610 0.7171,0.3610 0.7143,0.3553 0.7114,0.3496 0.7086,0.3467 0.7000,0.3381 0.6943,0.3324 0.6914,0.3295 0.6886,0.3266 0.6800,0.3181 0.6743,0.3152 0.6686,0.3095 0.6657,0.3066 0.6629,0.3066 0.6543,0.3037 0.6514,0.3009 0.6400,0.2951 0.6343,0.2923 0.6314,0.2894 0.6200,0.2865 0.6171,0.2837 0.6114,0.2837 0.6086,0.2837 0.6057,0.2779 0.6029,0.2779 0.6000,0.2779 0.5914,0.2779 0.5829,0.2779 0.5771,0.2779 0.5686,0.2779 0.5543,0.2779 0.5343,0.2779 0.5314,0.2779 0.5171,0.2779 0.5000,0.2923 0.4914,0.2951 0.4714,0.3037 0.4543,0.3095 0.4486,0.3152 0.4486,0.3181 0.4429,0.3209 0.4314,0.3324 0.4200,0.3467 0.4086,0.3524 0.4000,0.3668 0.3914,0.3782 0.3886,0.3897 0.3857,0.3983 0.3800,0.4069 0.3800,0.4212 0.3800,0.4413 0.3800,0.4441 0.3800,0.4585 0.3800,0.4728 0.3800,0.4871 0.3857,0.5014 0.3914,0.5129 0.3943,0.5186 0.4000,0.5244 0.4086,0.5301 0.4171,0.5358 0.4286,0.5444 0.4371,0.5473 0.4429,0.5501 0.4514,0.5559 0.4657,0.5587 0.4771,0.5616 0.4971,0.5645 0.5143,0.5731 0.5314,0.5817 0.5457,0.5845 0.5543,0.5845 0.5657,0.5874 0.5743,0.5874 0.5800,0.5874 0.5886,0.5874 0.6000,0.5874 0.6086,0.5845 0.6114,0.5788 0.6143,0.5731 0.6229,0.5616 0.6229,0.5530 0.6257,0.5444 0.6257,0.5358 0.6257,0.5272 0.6257,0.5158 0.6257,0.5014 0.6257,0.4928 0.6229,0.4785 0.6229,0.4670 0.6143,0.4585 0.6114,0.4470 0.6057,0.4413 0.6029,0.4384 0.5971,0.4355 0.5914,0.4269 0.5857,0.4241 0.5800,0.4212 0.5714,0.4212 0.5657,0.4183 0.5600,0.4183 0.5571,0.4212 0.5514,0.4241 0.5429,0.4241 0.5371,0.4269 T0.5343,0.4327" />
	<path type="line" fill="none" point-count="281" stroke="rgb(0,0,0)" stroke-width="0.025" d="M0.7371,0.2378 L0.7371,0.2350 0.7343,0.2350 0.7314,0.2321 0.7257,0.2264 0.7200,0.2235 0.7171,0.2178 0.7114,0.2120 0.7086,0.2120 0.7029,0.2092 0.7029,0.2063 0.6971,0.2034 0.6943,0.2034 0.6914,0.2006 0.6886,0.1977 0.6829,0.1920 0.6800,0.1920 0.6743,0.1891 0.6714,0.1862 0.6686,0.1862 0.6657,0.1834 0.6629,0.1805 0.6600,0.1777 0.6543,0.1748 0.6457,0.1748 0.6400,0.1691 0.6343,0.1662 0.6314,0.1633 0.6257,0.1605 0.6229,0.1605 0.6171,0.1576 0.6143,0.1576 0.6114,0.1547 0.6029,0.1547 0.6000,0.1547 0.5971,0.1519 0.5914,0.1461 0.5886,0.1461 0.5857,0.1461 0.5800,0.1461 0.5771,0.1461 0.5743,0.1461 0.5714,0.1433 0.5686,0.1433 0.5657,0.1433 0.5629,0.1404 0.5514,0.1404 0.5457,0.1375 0.5400,0.1375 0.5286,0.1375 0.5229,0.1347 0.5200,0.1347 0.5143,0.1347 0.5086,0.1347 0.5029,0.1318 0.4971,0.1318 0.4857,0.1318 0.4800,0.1318 0.4771,0.1318 0.4714,0.1318 0.4657,0.1318 0.4571,0.1318 0.4514,0.1347 0.4371,0.1347 0.4314,0.1375 0.4229,0.1404 0.4171,0.1433 0.4114,0.1461 0.4029,0.1490 0.3971,0.1490 0.3914,0.1547 0.3886,0.1633 0.3800,0.1662 0.3743,0.1691 0.3686,0.1748 0.3657,0.1748 0.3571,0.1805 0.3543,0.1862 0.3486,0.1891 0.3400,0.1920 0.3314,0.1948 0.3286,0.1977 0.3200,0.2006 0.3143,0.2063 0.3086,0.2092 0.2971,0.2120 0.2914,0.2178 0.2800,0.2206 0.2771,0.2235 0.2743,0.2235 0.2657,0.2264 0.2629,0.2292 0.2543,0.2350 0.2514,0.2378 0.2486,0.2407 0.2457,0.2436 0.2429,0.2464 0.2400,0.2493 0.2314,0.2607 0.2286,0.2665 0.2229,0.2751 0.2171,0.2808 0.2143,0.2923 0.2114,0.2980 0.2057,0.3037 0.2000,0.3123 0.2000,0.3209 0.1971,0.3266 0.1943,0.3381 0.1886,0.3467 0.1857,0.3553 0.1829,0.3696 0.1829,0.3782 0.1800,0.3840 0.1771,0.3926 0.1743,0.3983 0.1743,0.4069 0.1686,0.4183 0.1686,0.4241 0.1686,0.4355 0.1686,0.4413 0.1657,0.4470 0.1657,0.4585 0.1657,0.4670 0.1657,0.4756 0.1657,0.4871 0.1657,0.4986 0.1657,0.5129 0.1657,0.5244 0.1657,0.5301 0.1657,0.5358 0.1657,0.5473 0.1657,0.5530 0.1686,0.5587 0.1686,0.5645 0.1743,0.5817 0.1743,0.5903 0.1771,0.5931 0.1771,0.5989 0.1771,0.6046 0.1800,0.6132 0.1829,0.6189 0.1857,0.6304 0.1886,0.6390 0.1943,0.6447 0.1971,0.6533 0.1971,0.6562 0.2000,0.6590 0.2029,0.6619 0.2057,0.6676 0.2057,0.6762 0.2114,0.6791 0.2114,0.6819 0.2143,0.6848 0.2143,0.6877 0.2229,0.6963 0.2257,0.7020 0.2286,0.7049 0.2343,0.7106 0.2429,0.7221 0.2457,0.7249 0.2486,0.7278 0.2543,0.7335 0.2571,0.7364 0.2657,0.7393 0.2714,0.7479 0.2800,0.7536 0.2914,0.7593 0.2971,0.7650 0.3000,0.7679 0.3029,0.7708 0.3114,0.7708 0.3200,0.7765 0.3314,0.7794 0.3371,0.7822 0.3486,0.7880 0.3543,0.7880 0.3600,0.7908 0.3657,0.7937 0.3857,0.8023 0.3914,0.8052 0.3971,0.8080 0.4057,0.8080 0.4171,0.8138 0.4229,0.8138 0.4343,0.8223 0.4400,0.8223 0.4514,0.8252 0.4600,0.8281 0.4657,0.8281 0.4800,0.8309 0.4857,0.8309 0.4971,0.8367 0.5057,0.8367 0.5200,0.8395 0.5371,0.8424 0.5457,0.8424 0.5600,0.8453 0.5657,0.8453 0.5714,0.8453 0.5800,0.8453 0.5943,0.8453 0.6143,0.8453 0.6257,0.8453 0.6486,0.8453 0.6629,0.8424 0.6743,0.8395 0.6800,0.8395 0.6800,0.8367 0.6914,0.8338 0.7000,0.8281 0.7029,0.8252 0.7171,0.8223 0.7257,0.8195 0.7286,0.8166 0.7343,0.8166 0.7371,0.8138 0.7514,0.8109 0.7571,0.8080 0.7600,0.8052 0.7657,0.7994 0.7743,0.7966 0.7829,0.7908 0.7914,0.7880 0.7943,0.7822 0.8029,0.7765 0.8057,0.7708 0.8143,0.7650 0.8229,0.7622 0.8257,0.7564 0.8343,0.7507 0.8400,0.7479 0.8457,0.7421 0.8543,0.7364 0.8600,0.7249 0.8686,0.7106 0.8743,0.7020 0.8771,0.6934 0.8886,0.6762 0.9000,0.6590 0.9114,0.6476 0.9143,0.6418 0.9171,0.6246 0.9257,0.6046 0.9286,0.5903 0.9314,0.5817 0.9371,0.5587 0.9371,0.5444 0.9371,0.5301 0.9371,0.5158 0.9286,0.4871 0.9257,0.4699 0.9171,0.4556 0.9143,0.4470 0.9114,0.4355 0.8971,0.4097 0.8886,0.3983 0.8829,0.3897 0.8714,0.3754 0.8629,0.3668 0.8514,0.3496 0.8429,0.3410 0.8371,0.3295 0.8286,0.3181 0.8200,0.3066 0.8114,0.3009 0.8057,0.2923 0.7857,0.2665 0.7743,0.2579 0.7629,0.2464 0.7571,0.2407 0.7514,0.2292 0.7486,0.2264 0.7429,0.2206 0.7343,0.2178 0.7286,0.2092 0.7257,0.2063 0.7200,0.2034 0.7143,0.2034 0.7114,0.2006 0.7086,0.2006 T0.7057,0.2006" />
	<path type="line" fill="none" point-count="38" stroke="rgb(0,0,0)" stroke-width="0.025" d="M0.3800,0.2808 L0.3771,0.2808 0.3714,0.2808 0.3657,0.2808 0.3600,0.2808 0.3486,0.2837 0.3400,0.2894 0.3343,0.3009 0.3229,0.3095 0.3143,0.3209 0.3114,0.3295 0.3114,0.3438 0.3171,0.3582 0.3200,0.3696 0.3286,0.3840 0.3429,0.4011 0.3486,0.4126 0.3600,0.4155 0.3771,0.4269 0.3857,0.4298 0.3971,0.4298 0.4057,0.4298 0.4286,0.4241 0.4400,0.4183 0.4429,0.4126 0.4571,0.3926 0.4629,0.3840 0.4686,0.3668 0.4686,0.3610 0.4686,0.3496 0.4686,0.3410 0.4600,0.3324 0.4543,0.3238 0.4400,0.3095 0.4200,0.2980 0.4057,0.2837 0.3914,0.2751 0.3886,0.2722 T0.3857,0.2722" />
	<path type="line" fill="none" point-count="33" stroke="rgb(0,0,0)" stroke-width="0.025" d="M0.6229,0.3266 L0.6200,0.3295 0.6143,0.3324 0.6057,0.3324 0.6000,0.3410 0.5971,0.3438 0.5943,0.3496 0.5886,0.3639 0.5857,0.3725 0.5857,0.3868 0.5914,0.4097 0.5943,0.4183 0.6057,0.4269 0.6114,0.4355 0.6257,0.4441 0.6400,0.4527 0.6486,0.4556 0.6657,0.4556 0.6771,0.4556 0.6914,0.4556 0.7000,0.4499 0.7029,0.4413 0.7086,0.4327 0.7086,0.4097 0.7086,0.4011 0.7086,0.3926 0.7000,0.3811 0.6914,0.3725 0.6857,0.3639 0.6771,0.3524 0.6629,0.3410 0.6543,0.3324 0.6457,0.3295 T0.6400,0.3266" />
	<path type="line" fill="none" point-count="21" stroke="rgb(0,0,0)" stroke-width="0.025" d="M0.3429,0.5673 L0.3429,0.5731 0.3457,0.5788 0.3600,0.6074 0.3714,0.6218 0.3829,0.6332 0.4000,0.6504 0.4200,0.6619 0.4371,0.6705 0.4514,0.6791 0.4771,0.6905 0.4914,0.6934 0.5086,0.6934 0.5457,0.6934 0.5743,0.6934 0.6086,0.6877 0.6457,0.6648 0.6514,0.6533 0.6543,0.6476 0.6543,0.6447 0.6514,0.6390 T0.6457,0.6390" />
	<path type="line" fill="none" point-count="85" stroke="rgb(0,0,0)" stroke-width="0.050" d="M0.4086,0.3467 L0.4086,0.3496 0.4057,0.3582 0.4057,0.3639 0.4057,0.3668 0.4057,0.3782 0.4000,0.3811 0.3971,0.3840 0.3943,0.3868 0.3914,0.3897 0.3857,0.3897 0.3743,0.3897 0.3657,0.3897 0.3600,0.3897 0.3457,0.3782 0.3343,0.3696 0.3257,0.3582 0.3257,0.3524 0.3257,0.3438 0.3257,0.3381 0.3286,0.3324 0.3343,0.3238 0.3343,0.3181 0.3429,0.3152 0.3429,0.3123 0.3514,0.3123 0.3571,0.3095 0.3600,0.3066 0.3657,0.3066 0.3800,0.3095 0.3829,0.3123 0.3857,0.3152 0.3971,0.3266 0.4029,0.3324 0.4057,0.3381 0.4086,0.3410 0.4086,0.3496 0.4086,0.3582 0.4086,0.3639 0.4057,0.3668 0.4029,0.3725 0.4000,0.3754 0.3971,0.3782 0.3857,0.3782 0.3800,0.3811 0.3771,0.3811 0.3743,0.3811 0.3714,0.3782 0.3629,0.3725 0.3571,0.3582 0.3543,0.3438 0.3571,0.3410 0.3629,0.3352 0.3657,0.3266 0.3743,0.3238 0.3829,0.3209 0.3886,0.3209 0.3914,0.3209 0.4057,0.3238 0.4143,0.3352 0.4229,0.3381 0.4286,0.3438 0.4343,0.3553 0.4343,0.3582 0.4343,0.3610 0.4343,0.3639 0.4343,0.3668 0.4343,0.3754 0.4343,0.3782 0.4314,0.3811 0.4257,0.3868 0.4200,0.3868 0.4171,0.3897 0.4086,0.3926 0.4029,0.3926 0.3886,0.3926 0.3857,0.3926 0.3829,0.3926 0.3800,0.3897 0.3686,0.3840 0.3657,0.3754 0.3600,0.3582 0.3600,0.3467 0.3629,0.3438 0.3657,0.3410 T0.3714,0.3352" />
	<path type="line" fill="none" point-count="108" stroke="rgb(0,0,0)" stroke-width="0.050" d="M0.6343,0.4355 L0.6314,0.4355 0.6314,0.4327 0.6257,0.4241 0.6229,0.4212 0.6114,0.4126 0.6057,0.4069 0.6029,0.3954 0.6000,0.3897 0.6000,0.3868 0.6000,0.3811 0.6029,0.3782 0.6057,0.3782 0.6086,0.3754 0.6171,0.3754 0.6200,0.3754 0.6229,0.3754 0.6257,0.3754 0.6314,0.3754 0.6343,0.3754 0.6429,0.3782 0.6457,0.3811 0.6486,0.3897 0.6486,0.3926 0.6543,0.3954 0.6571,0.4069 0.6657,0.4155 0.6657,0.4183 0.6657,0.4212 0.6629,0.4241 0.6543,0.4241 0.6486,0.4298 0.6457,0.4298 0.6400,0.4298 0.6314,0.4212 0.6257,0.4183 0.6200,0.4126 0.6171,0.4069 0.6171,0.3983 0.6171,0.3926 0.6200,0.3897 0.6229,0.3840 0.6286,0.3782 0.6343,0.3725 0.6429,0.3696 0.6486,0.3696 0.6486,0.3668 0.6514,0.3668 0.6543,0.3668 0.6571,0.3668 0.6629,0.3696 0.6714,0.3754 0.6743,0.3782 0.6771,0.3868 0.6771,0.3897 0.6771,0.3926 0.6800,0.3954 0.6800,0.4069 0.6800,0.4097 0.6800,0.4126 0.6743,0.4155 0.6686,0.4155 0.6629,0.4155 0.6543,0.4155 0.6486,0.4126 0.6457,0.4097 0.6400,0.4011 0.6343,0.3954 0.6314,0.3811 0.6286,0.3725 0.6286,0.3639 0.6286,0.3582 0.6314,0.3524 0.6343,0.3524 0.6371,0.3496 0.6429,0.3496 0.6457,0.3467 0.6486,0.3467 0.6514,0.3467 0.6543,0.3467 0.6571,0.3467 0.6600,0.3467 0.6686,0.3553 0.6714,0.3553 0.6714,0.3582 0.6771,0.3610 0.6800,0.3639 0.6829,0.3696 0.6829,0.3725 0.6829,0.3754 0.6886,0.3754 0.6886,0.3811 0.6886,0.3840 0.6886,0.3868 0.6886,0.3954 0.6829,0.4011 0.6829,0.4069 0.6800,0.4097 0.6771,0.4212 0.6743,0.4241 0.6743,0.4269 0.6714,0.4298 0.6686,0.4298 0.6657,0.4298 0.6600,0.4298 0.6571,0.4298 0.6543,0.4298 0.6486,0.4298 T0.6486,0.4269" />
</g>
</svg>
